<?xml version="1.0" standalone="no"?> <!DOCTYPE svg PUBLIC "-//W3C//DTD SVG 1.0//EN" "http://www.w3.org/TR/2001/REC-SVG-20010904/DTD/svg10.dtd" > <svg xmlns="http://www.w3.org/2000/svg" width="100%" height="100%">
<defs >
<font id="EzraSIL" horiz-adv-x="937" ><font-face
    font-family="Ezra SIL"
    units-per-em="2048"
    panose-1="2 0 4 0 0 0 0 0 0 0"
    ascent="2181"
    descent="-827"
    alphabetic="0" />
<missing-glyph horiz-adv-x="1024" d="M128 0V1536H896V0H128ZM256 128H768V1408H256V128Z" />
<glyph unicode=" " glyph-name="space" horiz-adv-x="700" />
<glyph unicode="!" glyph-name="exclam" horiz-adv-x="887" d="M502 1243L426 365H328L254 1243Q253 1257 253 1269Q253 1401 377 1401Q503 1401 503 1269Q503 1257 502 1243ZM504 111Q504 59 467 22T377 -16Q325 -16 289 21T252 111Q252 162 288 199T377 236Q429
236 466 199T504 111Z" />
<glyph unicode="&quot;" glyph-name="quotedbl" horiz-adv-x="682" d="M594 1362L522 862H489L420 1362Q420 1462 506 1462Q594 1462 594 1362ZM262 1362L193 862H160L88 1362Q88 1462 176 1462Q262 1462 262 1362Z" />
<glyph unicode="#" glyph-name="numbersign" horiz-adv-x="1522" d="M1397 862H1075L977 569H1307V467H942L768 -47L666 -14L827 467H530L356 -47L254 -12L418 467H127V569H451L551 862H221V967H586L750 1450L854 1417L698 967H997L1159 1450L1266 1417L1110 967H1397V862ZM961
862H664L565 569H862L961 862Z" />
<glyph unicode="$" glyph-name="dollar" horiz-adv-x="1153" d="M1038 389Q1038 220 884 103Q759 8 629 0V-211H535V0Q388 9 342 13Q211 27 121 53V401H225L262 172Q321 100 535 100V618Q154 706 154 991Q154 1159 285 1263Q388 1345 537 1368V1522H631V1374Q795
1374 979 1327V1004H874L842 1221Q795 1274 631 1274V786Q825 728 901 673Q1038 574 1038 389ZM537 813V1266Q344 1226 344 1032Q344 884 537 813ZM850 350Q850 524 629 594V109Q850 148 850 350Z" />
<glyph unicode="%" glyph-name="percent" horiz-adv-x="1763" d="M1700 406Q1700 215 1621 99Q1537 -25 1384 -25Q1232 -25 1147 99Q1069 215 1069 406Q1069 597 1147 712Q1231 836 1384 836Q1537 836 1621 712Q1700 597 1700 406ZM1380 1374L512 0H383L1253 1374H1380ZM694
971Q694 780 617 665Q533 541 381 541Q228 541 144 665Q66 780 66 971Q66 1162 144 1277Q228 1401 381 1401Q533 1401 617 1277Q694 1162 694 971ZM1542 406Q1542 758 1384 758Q1225 758 1225 406Q1225 53 1384 53Q1542 53 1542 406ZM537 971Q537 1323 381 1323Q219
1323 219 971Q219 618 381 618Q537 618 537 971Z" />
<glyph unicode="&amp;" glyph-name="ampersand" horiz-adv-x="1460" d="M1419 0H1042V49L950 152Q840 65 775 32Q663 -25 535 -25Q358 -25 234 91T109 381Q109 627 383 741Q211 913 211 1055Q211 1207 322 1304T600 1401Q755 1401 858 1313T961 1092Q961 957 866
863Q799 796 659 733L1004 362Q1103 489 1118 602Q1119 612 1108 625T1083 641L973 657V743H1393V657L1245 635Q1197 463 1071 289L1237 98L1419 88V0ZM772 1079Q772 1173 725 1233Q673 1300 580 1300Q498 1300 447 1245T395 1108Q395 1019 463 931Q488 898 586
803Q772 896 772 1079ZM885 223L463 682Q315 578 315 428Q315 291 401 200T612 109Q751 109 885 223Z" />
<glyph unicode="&apos;" glyph-name="quotesingle" horiz-adv-x="350" d="M262 1362L193 862H160L88 1362Q88 1462 174 1462Q262 1462 262 1362Z" />
<glyph unicode="(" glyph-name="parenleft" horiz-adv-x="1100" d="M1012 -373Q624 -329 434 -1Q268 286 268 754Q268 1222 434 1509Q625 1838 1012 1880V1763Q745 1719 624 1454Q512 1210 512 754Q512 297 624 54Q745 -212 1012 -256V-373Z" />
<glyph unicode=")" glyph-name="parenright" horiz-adv-x="1100" d="M834 754Q834 286 667 -1Q476 -329 88 -373V-256Q355 -212 476 54Q588 297 588 754Q588 1210 476 1454Q355 1719 88 1763V1880Q475 1838 667 1509Q834 1221 834 754Z" />
<glyph unicode="*" glyph-name="asterisk" horiz-adv-x="1032" d="M944 1315L844 1188L557 1171L547 1202L786 1362L944 1315ZM598 1503L522 1227H489L414 1503L506 1640L598 1503ZM776 797L623 854L520 1120L545 1141L770 961L776 797ZM467 1202L457 1171L168
1188L66 1315L223 1362L467 1202ZM492 1120L389 854L236 797L242 961L467 1141L492 1120Z" />
<glyph unicode="+" glyph-name="plus" horiz-adv-x="1706" d="M1462 551H911V0H795V551H244V668H795V1217H911V668H1462V551Z" />
<glyph unicode="," glyph-name="comma" horiz-adv-x="432" d="M387 150Q387 67 295 -38Q213 -131 180 -131Q169 -131 165 -127T160 -109Q160 -100 183 -68T207 0Q207 83 45 154Q101 188 160 248Q216 306 233 344Q387 260 387 150Z" />
<glyph unicode="-" glyph-name="hyphenminus" horiz-adv-x="657" d="M565 416H90V569H565V416Z" />
<glyph unicode="." glyph-name="period" horiz-adv-x="592" d="M483 166Q363 93 295 -25Q227 93 106 166Q227 236 295 356Q363 236 483 166Z" />
<glyph unicode="/" glyph-name="slash" horiz-adv-x="1026" d="M1024 1497L133 -102H0L891 1497H1024Z" />
<glyph unicode="0" glyph-name="zero" horiz-adv-x="1135" d="M1057 678Q1057 371 936 182Q804 -25 567 -25Q331 -25 200 182Q80 371 80 678Q80 983 200 1172Q331 1378 567 1378Q804 1378 936 1172Q1057 983 1057 678ZM844 678Q844 1278 567 1278Q293 1278 293
678Q293 76 567 76Q844 76 844 678Z" />
<glyph unicode="1" glyph-name="one" horiz-adv-x="1135" d="M901 0H217V90L424 98Q467 100 467 143V1206L154 1153V1243L590 1378H666V143Q666 100 711 98L901 90V0Z" />
<glyph unicode="2" glyph-name="two" horiz-adv-x="1135" d="M1040 0H96V135Q508 477 602 577Q801 787 801 975Q801 1113 715 1194Q635 1270 512 1270Q454 1270 396 1249Q369 1238 342 1227V1001Q301 969 244 969Q123 969 123 1085Q123 1211 256 1296Q386 1378
567 1378Q766 1378 892 1273T1018 993Q1018 805 799 582Q689 470 307 170H905L942 344H1040V0Z" />
<glyph unicode="3" glyph-name="three" horiz-adv-x="1135" d="M1040 385Q1040 205 888 90T512 -25Q323 -25 202 53Q96 121 96 205Q96 250 126 282T215 315Q264 315 283 301L344 121Q424 78 518 78Q654 78 746 171Q834 260 834 385Q834 519 732 587Q650 641 530
641Q464 641 408 631V758Q414 756 459 756Q597 756 685 817Q784 886 784 1012Q784 1132 703 1203Q628 1268 518 1268Q419 1268 336 1219V1018Q283 991 246 991Q202 991 170 1016Q129 1048 129 1106Q129 1220 262 1300Q392 1378 575 1378Q755 1378 870 1288Q989
1194 989 1038Q989 802 680 713Q824 706 923 630Q1040 540 1040 385Z" />
<glyph unicode="4" glyph-name="four" horiz-adv-x="1135" d="M1057 401H885V-25H694V401H80V541L741 1378H885V539H1057V401ZM694 539V1120L240 539H694Z" />
<glyph unicode="5" glyph-name="five" horiz-adv-x="1135" d="M1044 438Q1044 227 899 104Q747 -25 475 -25Q323 -25 205 51Q92 123 92 205Q92 319 217 319Q248 319 272 311L350 125Q401 74 506 74Q656 74 752 178Q838 271 838 389Q838 553 739 641Q647 723 494
723Q372 723 170 653V1354H950V1184H315V801Q301 801 401 826T586 852Q798 852 921 742T1044 438Z" />
<glyph unicode="6" glyph-name="six" horiz-adv-x="1135" d="M1057 463Q1057 246 913 109Q774 -25 565 -25Q346 -25 221 112Q80 266 80 580Q80 946 292 1160Q509 1378 889 1378V1253L819 1255Q622 1261 478 1128Q329 989 299 754Q447 883 637 883Q825 883 941
764T1057 463ZM852 436Q852 585 776 668T565 752Q431 752 293 649Q289 606 289 539Q289 80 565 80Q705 80 782 183Q852 278 852 436Z" />
<glyph unicode="7" glyph-name="seven" horiz-adv-x="1135" d="M1053 1241L389 43V-25H176L842 1184H219L188 997H84V1354H1053V1241Z" />
<glyph unicode="8" glyph-name="eight" horiz-adv-x="1135" d="M1055 369Q1055 198 916 87T567 -25Q346 -25 214 83T82 365Q82 594 369 700Q273 740 210 811Q135 898 135 1008Q135 1179 254 1280Q372 1378 567 1378Q752 1378 874 1283T997 1040Q997 830 754 713Q1055
603 1055 369ZM813 1022Q813 1142 740 1211Q672 1276 567 1276Q465 1276 400 1212T334 1055Q334 953 422 878Q499 812 666 750Q813 856 813 1022ZM850 336Q850 449 744 520Q680 564 449 655Q268 556 268 379Q268 245 344 167Q423 86 567 86Q695 86 774 159Q850
230 850 336Z" />
<glyph unicode="9" glyph-name="nine" horiz-adv-x="1135" d="M1057 774Q1057 409 843 194Q626 -25 246 -25V100L315 98Q512 93 656 226Q806 364 838 600Q689 471 500 471Q312 471 196 590T80 891Q80 1108 222 1245Q361 1378 569 1378Q790 1378 915 1242Q1057
1088 1057 774ZM848 815Q848 1274 569 1274Q430 1274 355 1172Q285 1077 285 918Q285 770 360 686T569 602Q706 602 844 705Q848 748 848 815Z" />
<glyph unicode=":" glyph-name="colon" horiz-adv-x="600" d="M438 850Q438 793 398 753T301 713Q244 713 205 753T166 850Q166 908 205 947T301 987Q358 987 398 947T438 850ZM438 121Q438 64 398 24T301 -16Q244 -16 205 24T166 121Q166 178 205 218T301 258Q359
258 398 218T438 121Z" />
<glyph unicode=";" glyph-name="semicolon" horiz-adv-x="592" d="M475 645Q359 578 289 457Q220 576 100 645Q218 713 289 836Q361 711 475 645ZM442 147Q442 65 351 -39Q270 -131 238 -131Q215 -131 215 -109Q215 -100 237 -68T260 0Q260 84 100 154Q157 188
214 247T289 344Q442 260 442 147Z" />
<glyph unicode="&lt;" glyph-name="less" horiz-adv-x="1706" d="M1442 76L264 557V662L1442 1145V1018L442 610L1442 205V76Z" />
<glyph unicode="=" glyph-name="equal" horiz-adv-x="1706" d="M1452 743H254V860H1452V743ZM1452 360H254V477H1452V360Z" />
<glyph unicode="&gt;" glyph-name="greater" horiz-adv-x="1706" d="M1442 557L264 76V205L1264 610L264 1018V1145L1442 662V557Z" />
<glyph unicode="?" glyph-name="question" horiz-adv-x="1071" d="M924 1069Q924 892 783 765Q694 685 520 608V375H401V680Q525 721 606 803Q709 907 709 1051Q709 1344 408 1344L319 1126L285 1124Q147 1124 147 1239Q147 1323 229 1381Q321 1448 483 1448Q674
1448 797 1345Q924 1239 924 1069ZM596 113Q596 59 557 22T463 -16Q409 -16 372 22T334 115Q334 169 371 207T463 246Q518 246 557 207T596 113Z" />
<glyph unicode="@" glyph-name="at" horiz-adv-x="1917" d="M1776 764Q1776 476 1603 284Q1451 115 1276 115Q1116 115 1116 285Q948 117 821 117Q708 117 637 208T565 451Q565 681 722 847Q875 1008 1073 1008Q1173 1008 1274 952L1311 999H1427Q1417 969 1286
391Q1278 355 1278 326Q1278 231 1362 231Q1466 231 1565 374Q1677 537 1677 762Q1677 1034 1498 1188Q1338 1325 1102 1325Q754 1325 529 1098T303 526Q303 204 492 1Q689 -211 1020 -211Q1288 -211 1561 -59L1591 -133Q1254 -313 971 -313Q630 -313 399 -99Q156
127 156 489Q156 919 445 1179Q707 1415 1077 1415Q1390 1415 1579 1248Q1776 1073 1776 764ZM1204 805Q1210 835 1174 877Q1134 922 1083 922Q934 922 841 789Q752 661 752 469Q752 248 913 248Q1015 248 1122 381L1204 805Z" />
<glyph unicode="A" glyph-name="A" horiz-adv-x="1360" d="M1360 0H872V88L991 98Q1000 99 1007 112T1012 133L872 508H397L262 139Q261 136 261 133Q261 100 291 98L412 88V0H0V88L119 113L596 1391H750L1225 143Q1234 120 1240 114T1268 104L1360 88V0ZM834
606L631 1159L434 606H834Z" />
<glyph unicode="B" glyph-name="B" horiz-adv-x="1247" d="M1159 406Q1159 183 980 79Q845 0 639 0H66V88L174 96Q217 99 217 141V1233Q217 1275 174 1278L66 1286V1374H614Q1075 1374 1075 1044Q1075 804 780 729Q937 729 1038 658Q1159 573 1159 406ZM854 1030Q854
1280 539 1280Q514 1280 470 1277T422 1274V756Q475 754 496 754Q689 754 775 826Q854 892 854 1030ZM936 389Q936 659 606 659Q565 659 493 653T422 647V106Q513 100 549 100Q759 100 850 172Q936 239 936 389Z" />
<glyph unicode="C" glyph-name="C" horiz-adv-x="1296" d="M1210 47Q1030 -25 801 -25Q471 -25 271 192Q86 393 86 690Q86 1008 284 1203T803 1399Q977 1399 1210 1327V1006H1087L1057 1192Q1052 1225 1022 1239Q927 1284 813 1284Q595 1284 463 1137Q322 981
322 696Q322 411 459 250T840 88Q941 88 1006 115Q1038 128 1044 156L1092 379H1210V47Z" />
<glyph unicode="D" glyph-name="D" horiz-adv-x="1430" d="M1346 690Q1346 394 1183 211Q996 0 635 0H66V88L174 96Q219 99 219 141V1233Q219 1275 174 1278L66 1286V1374H594Q934 1374 1131 1209Q1346 1030 1346 690ZM1114 686Q1114 1276 582 1276H424V98L592
100Q1114 106 1114 686Z" />
<glyph unicode="E" glyph-name="E" horiz-adv-x="1198" d="M1130 0H66V88L174 96Q219 99 219 141V1233Q219 1275 174 1278L66 1286V1374H1061V1069H938L909 1237Q902 1276 872 1276H424V766H735Q767 766 772 801L791 942H895V485H791L772 627Q767 664 735 664H424V100H946Q976
100 983 139L1018 342H1130V0Z" />
<glyph unicode="F" glyph-name="F" horiz-adv-x="1110" d="M1059 1049H938L909 1237Q903 1274 874 1274H436V741H752Q783 741 788 778L807 922H909V461H807L788 604Q783 641 752 641H436V141Q436 99 479 96L616 88V0H80V88L188 96Q231 99 231 141V1233Q231 1275
188 1278L63 1286V1374H1059V1049Z" />
<glyph unicode="G" glyph-name="G" horiz-adv-x="1430" d="M1378 575L1274 565Q1231 561 1231 522V49Q1006 -25 801 -25Q472 -25 272 190Q86 392 86 690Q86 1014 285 1206T827 1399Q993 1399 1229 1337V1006H1106L1073 1190Q1067 1224 1032 1239Q927 1284 819
1284Q592 1284 458 1135Q319 979 319 700Q319 409 462 248Q601 90 844 90Q899 90 964 101T1024 113V522Q1024 562 981 565L844 575V664H1378V575Z" />
<glyph unicode="H" glyph-name="H" horiz-adv-x="1522" d="M1456 0H940V88L1057 96Q1100 99 1100 141V670H424V141Q424 99 467 96L584 88V0H66V88L172 96Q217 99 217 141V1233Q217 1273 172 1276L66 1284V1374H584V1284L467 1276Q424 1273 424 1233V772H1100V1233Q1100
1273 1057 1276L940 1284V1374H1456V1284L1350 1276Q1305 1273 1305 1233V141Q1305 99 1350 96L1456 88V0Z" />
<glyph unicode="I" glyph-name="I" horiz-adv-x="676" d="M608 0H68V88L190 96Q233 99 233 141V1233Q233 1273 190 1276L68 1284V1374H608V1284L483 1276Q440 1273 440 1233V141Q440 99 483 96L608 88V0Z" />
<glyph unicode="J" glyph-name="J" horiz-adv-x="981" d="M940 1286L821 1278Q778 1275 778 1233V518Q778 251 677 119Q568 -25 328 -25Q201 -25 51 25V375H174L219 125Q227 80 313 80Q451 80 512 183T573 504V1233Q573 1275 530 1278L401 1286V1374H940V1286Z" />
<glyph unicode="K" glyph-name="K" horiz-adv-x="1307" d="M1307 0H948V63L567 610H426L424 141Q424 99 469 96L586 88V0H66V88L174 96Q217 99 217 141V1233Q217 1275 174 1278L66 1286V1374H586V1286L469 1278Q424 1275 424 1233L426 696H498L944 1241Q951 1250
945 1263Q939 1275 928 1276L823 1286V1374H1257V1286L1118 1270L700 770L1159 98L1307 88V0Z" />
<glyph unicode="L" glyph-name="L" horiz-adv-x="1077" d="M1051 0H55V88L174 96Q217 99 217 141V1233Q217 1275 174 1278L55 1286V1374H578V1286L469 1278Q424 1275 424 1233V100H854Q894 100 899 135L932 381H1051V0Z" />
<glyph unicode="M" glyph-name="M" horiz-adv-x="1784" d="M1722 0H1214V88L1323 96Q1368 99 1368 141V1270L897 0H795L340 1251V141Q340 99 385 96L502 88V0H59V88L176 96Q219 99 219 141V1233Q219 1275 176 1278L59 1286V1374H518V1319L889 313L1260 1313V1374H1722V1286L1612
1278Q1567 1275 1567 1233V141Q1567 99 1612 96L1722 88V0Z" />
<glyph unicode="N" glyph-name="N" horiz-adv-x="1466" d="M1417 1286L1303 1278Q1260 1275 1260 1233V0H1100L338 1147V141Q338 99 381 96L498 88V0H55V88L172 96Q217 99 217 141V1233Q217 1275 172 1278L51 1286V1374H457V1323L1139 293V1233Q1139 1275 1096
1278L979 1286V1374H1417V1286Z" />
<glyph unicode="O" glyph-name="O" horiz-adv-x="1507" d="M1423 686Q1423 382 1240 178Q1051 -33 756 -33Q458 -33 270 173Q86 376 86 688Q86 995 267 1198Q455 1409 754 1409Q1052 1409 1241 1196Q1423 991 1423 686ZM1186 684Q1186 948 1079 1113Q962 1292
756 1292Q544 1292 428 1112Q322 949 322 688Q322 426 428 261Q544 80 752 80Q963 80 1080 261Q1186 425 1186 684Z" />
<glyph unicode="P" glyph-name="P" horiz-adv-x="1157" d="M1106 961Q1106 744 950 624Q805 513 571 514Q463 515 426 522V141Q426 99 469 96L604 88V0H66V88L174 96Q219 99 219 141V1233Q219 1275 174 1278L51 1286V1374H541Q837 1374 969 1281Q1106 1184 1106
961ZM893 958Q893 1274 530 1274Q494 1274 426 1272V627Q425 627 471 622T541 616Q893 613 893 958Z" />
<glyph unicode="Q" glyph-name="Q" horiz-adv-x="1520" d="M1440 686Q1440 407 1290 218Q1137 27 874 -16Q877 -260 1157 -260Q1255 -260 1354 -238V-326Q1195 -360 1051 -360Q655 -360 655 -20Q402 16 248 200Q86 392 86 686Q86 994 269 1198Q459 1409 760 1409Q1066
1409 1256 1199Q1440 996 1440 686ZM1198 686Q1198 946 1093 1111Q976 1294 762 1294Q549 1294 432 1114Q326 951 326 690Q326 433 434 267Q553 86 762 86Q973 86 1091 265Q1198 429 1198 686Z" />
<glyph unicode="R" glyph-name="R" horiz-adv-x="1331" d="M1331 2Q1187 -14 1196 -14Q1032 -14 966 58T854 291Q806 461 762 518Q690 612 518 612Q492 612 458 610T426 608V141Q426 99 469 96L578 88V0H68V88L174 96Q219 99 219 141V1233Q219 1275 174 1278L68
1286V1374H602Q1104 1374 1104 1010Q1104 743 768 668Q892 638 944 578Q1010 501 1046 351T1133 143T1331 86V2ZM881 1001Q881 1274 520 1274H426V713Q508 711 528 711Q706 711 790 774Q881 843 881 1001Z" />
<glyph unicode="S" glyph-name="S" horiz-adv-x="1085" d="M997 385Q997 214 870 102Q725 -25 455 -25Q250 -25 90 43V406H219L246 174Q250 141 281 129Q379 90 487 90Q621 90 704 151T788 324Q788 431 664 516Q623 544 428 637Q270 712 208 773Q113 865 113 1006Q113
1185 248 1294Q379 1399 586 1399Q751 1399 946 1337V1018H829L799 1214Q796 1235 768 1249Q710 1288 588 1288Q466 1288 395 1224T324 1055Q324 892 608 784Q808 708 895 626Q997 530 997 385Z" />
<glyph unicode="T" glyph-name="T" horiz-adv-x="1227" d="M1194 1047H1073L1044 1239Q1039 1274 1010 1274H717V141Q717 99 760 96L891 88V0H336V88L467 96Q510 99 510 141V1274H215Q185 1274 180 1239L152 1047H33V1374H1194V1047Z" />
<glyph unicode="U" glyph-name="U" horiz-adv-x="1442" d="M1397 1286L1280 1278Q1237 1275 1237 1233V455Q1237 -25 709 -25Q199 -25 199 455V1233Q199 1275 156 1278L47 1286V1374H578V1286L461 1278Q418 1275 418 1233V508Q418 311 485 221Q566 113 766 113Q964
113 1047 225Q1116 318 1116 508V1233Q1116 1275 1071 1278L954 1286V1374H1397V1286Z" />
<glyph unicode="V" glyph-name="V" horiz-adv-x="1364" d="M1343 1286L1225 1264L766 -10H610Q498 290 141 1266L20 1286V1374H510V1286L389 1276Q379 1275 373 1262T371 1239L731 240L1077 1235Q1081 1247 1072 1261T1049 1276L936 1286V1374H1343V1286Z" />
<glyph unicode="W" glyph-name="W" horiz-adv-x="1907" d="M1886 1286L1761 1262L1448 -10H1298L956 1102L621 -10H473L139 1262L20 1286V1374H489V1286L367 1274Q336 1271 346 1233L590 322L911 1374H1069L1399 299L1626 1233Q1635 1270 1597 1274L1468 1286V1374H1886V1286Z"
/>
<glyph unicode="X" glyph-name="X" horiz-adv-x="1296" d="M1278 0H752V88L870 100Q899 103 899 129Q899 136 895 143L623 571L307 137Q282 102 332 98L455 88V0H20V88L143 113L555 678L182 1264L47 1288V1374H561V1288L457 1278Q409 1273 432 1237L682 850L958
1231Q964 1239 964 1247Q964 1270 936 1274L831 1288V1374H1260V1288L1128 1268L748 743L1151 113L1278 88V0Z" />
<glyph unicode="Y" glyph-name="Y" horiz-adv-x="1280" d="M1260 1288L1149 1268L737 584V141Q737 99 780 96L911 88V0H360V88L487 96Q532 99 532 141V553L139 1264L20 1288V1374H506V1288L403 1278Q359 1274 379 1237L666 700L983 1231Q987 1238 987 1245Q987
1270 958 1274L844 1288V1374H1260V1288Z" />
<glyph unicode="Z" glyph-name="Z" horiz-adv-x="1202" d="M1110 0H92V90L854 1272H322Q293 1272 287 1237L256 1047H135V1374H1100V1280L336 104H920Q949 104 954 141L989 379H1110V0Z" />
<glyph unicode="[" glyph-name="bracketleft" horiz-adv-x="655" d="M586 -698H174V1686H586V1642H324V-655H586V-698Z" />
<glyph unicode="\" glyph-name="backslash" horiz-adv-x="1026" d="M1024 -102H893L0 1497H135L1024 -102Z" />
<glyph unicode="]" glyph-name="bracketright" horiz-adv-x="655" d="M481 -698H70V-655H332V1642H70V1686H481V-698Z" />
<glyph unicode="^" glyph-name="asciicircum" horiz-adv-x="1962" d="M1516 23H1386L981 1022L573 23H446L930 1200H1034L1516 23Z" />
<glyph unicode="_" glyph-name="underscore" horiz-adv-x="1024" d="M1024 -483H0V-350H1024V-483Z" />
<glyph unicode="`" glyph-name="grave" horiz-adv-x="717" d="M475 1128H358L47 1327Q0 1357 0 1409Q0 1501 94 1501Q154 1501 201 1446L475 1128Z" />
<glyph unicode="a" glyph-name="a" horiz-adv-x="1049" d="M1024 0H717L690 121Q500 -16 352 -16Q237 -16 164 53Q86 127 86 252Q86 380 187 452Q316 544 690 625V713Q690 915 504 915Q423 915 358 889V711H209Q133 711 133 770Q133 887 270 953Q389 1010 559
1010Q883 1010 883 705V131Q883 89 926 86L1024 80V0ZM690 193V547Q439 484 351 410Q289 356 289 266Q289 199 329 154Q371 104 442 104Q543 104 690 193Z" />
<glyph unicode="b" glyph-name="b" horiz-adv-x="1126" d="M1057 541Q1057 297 918 155Q766 0 471 0H176V1362H20V1430L283 1509H367V934Q526 1010 649 1010Q842 1010 954 870Q1057 740 1057 541ZM850 500Q850 889 535 889Q456 889 367 858V98Q365 98 404 97T467
96Q657 96 749 186Q850 284 850 500Z" />
<glyph unicode="c" glyph-name="c" horiz-adv-x="963" d="M891 84Q704 -16 545 -16Q332 -16 204 124T76 487Q76 734 224 878Q361 1010 569 1010Q709 1010 796 957Q887 902 887 805Q887 748 852 717T766 686Q714 686 664 719V899Q620 924 578 924Q443 924 364 810T285
514Q285 336 371 228Q462 113 625 113Q756 113 891 201V84Z" />
<glyph unicode="d" glyph-name="d" horiz-adv-x="1151" d="M1110 0H786V109Q622 -16 469 -16Q277 -16 170 139Q76 273 76 467Q76 692 205 843Q348 1010 598 1010Q694 1010 786 987V1362H631V1430L895 1509H979V131Q979 89 1022 86L1110 80V0ZM786 186V883Q701
913 612 913Q460 913 370 801T279 502Q279 331 356 229Q436 123 575 123Q684 123 786 186Z" />
<glyph unicode="e" glyph-name="e" horiz-adv-x="1014" d="M940 102Q751 -16 551 -16Q350 -16 221 105Q76 240 76 483Q76 720 211 865T557 1010Q742 1010 844 892Q940 781 940 592Q940 553 938 535H274Q274 354 346 244Q434 109 616 109Q763 109 940 227V102ZM735
627V672Q735 779 687 842Q634 911 537 911Q434 911 364 834T285 627H735Z" />
<glyph unicode="f" glyph-name="f" horiz-adv-x="668" d="M797 1401Q797 1317 702 1290Q697 1295 607 1359T514 1425Q398 1365 395 1116L393 961H647V858H393V131Q393 88 436 86L557 80V0H59V80L160 86Q203 89 203 131V858H72V928L203 965Q203 1165 272 1298Q390
1524 621 1524Q705 1524 753 1487Q797 1453 797 1401Z" />
<glyph unicode="g" glyph-name="g" horiz-adv-x="1085" d="M1051 850H846Q901 762 901 666Q901 518 780 427Q667 341 500 341Q479 341 459 342Q418 276 442 205Q652 184 670 170Q997 120 997 -82Q997 -229 842 -336T465 -444Q283 -444 182 -374T80 -178Q80 -85
133 -19Q191 51 297 70Q276 133 276 164Q276 250 379 356Q271 380 201 459Q125 545 125 664Q125 824 238 917T537 1010Q644 1010 774 950H1051V850ZM707 678Q707 780 658 850Q604 926 516 926Q429 926 376 860T322 676Q322 568 371 500Q423 426 516 426Q605 426
658 500Q707 569 707 678ZM821 -137Q821 -71 784 -38T645 13T420 55Q264 -1 264 -137Q264 -220 329 -279Q403 -348 532 -348Q668 -348 749 -279Q821 -219 821 -137Z" />
<glyph unicode="h" glyph-name="h" horiz-adv-x="1171" d="M1135 0H680V80L764 86Q809 89 809 131V659Q809 862 606 862Q492 862 385 803V131Q385 89 426 86L514 80V0H51V80L150 86Q193 89 193 131V1362H39V1430L301 1509H385V885Q590 1010 721 1010Q845 1010
918 935Q997 854 997 702V131Q997 89 1042 86L1135 80V0Z" />
<glyph unicode="i" glyph-name="i" horiz-adv-x="621" d="M446 1323Q446 1270 410 1233T322 1196Q270 1196 233 1233T195 1323Q195 1375 232 1411T322 1448Q374 1448 410 1412T446 1323ZM551 0H70V80L170 86Q213 89 213 131V862H72V932L322 1010H403V131Q403 88
446 86L551 80V0Z" />
<glyph unicode="j" glyph-name="j" horiz-adv-x="631" d="M436 1323Q436 1271 400 1234T311 1196Q259 1196 222 1233T184 1323Q184 1375 221 1411T311 1448Q363 1448 399 1412T436 1323ZM414 156Q414 -130 334 -254Q210 -446 -6 -446Q-162 -446 -162 -332Q-162
-244 -74 -213L125 -350Q223 -294 223 -18V854H78V922L330 999H414V156Z" />
<glyph unicode="k" glyph-name="k" horiz-adv-x="1104" d="M1083 0H766V72L500 465H385V131Q385 89 428 86L516 80V0H51V80L152 86Q195 89 195 131V1362H39V1430L301 1509H385V524H426L727 866Q735 875 730 887Q725 900 711 901L627 909V987H1024V909L893 895L623
604L975 92L1083 80V0Z" />
<glyph unicode="l" glyph-name="l" horiz-adv-x="608" d="M553 0H55V80L164 86Q178 87 193 101T209 129V1362H53V1430L315 1509H399V129Q399 115 413 101T442 86L553 80V0Z" />
<glyph unicode="m" glyph-name="m" horiz-adv-x="1751" d="M1714 0H1253V80L1337 86Q1380 89 1380 131V653Q1380 862 1198 862Q1095 862 981 803V131Q981 89 1024 86L1110 80V0H662V80L748 86Q791 89 791 131V664Q791 862 610 862Q495 862 391 803V131Q391 89
434 86L520 80V0H57V80L158 86Q201 89 201 131V854H59V922L307 999H391V885Q599 1010 725 1010Q878 1010 950 870Q1174 1010 1305 1010Q1451 1010 1520 906Q1573 826 1573 698V131Q1573 89 1616 86L1714 80V0Z" />
<glyph unicode="n" glyph-name="n" horiz-adv-x="1182" d="M1130 0H678V80L764 86Q807 89 807 131V662Q807 862 610 862Q503 862 385 803V131Q385 89 428 86L514 80V0H51V80L152 86Q195 89 195 131V854H51V922L301 999H385V885Q604 1010 723 1010Q997 1010 997
696V131Q997 89 1040 86L1130 80V0Z" />
<glyph unicode="o" glyph-name="o" horiz-adv-x="1122" d="M1051 494Q1051 272 918 130Q782 -16 561 -16Q340 -16 206 128Q76 269 76 494Q76 719 207 862Q342 1010 565 1010Q788 1010 922 860Q1051 717 1051 494ZM838 496Q838 675 770 791Q695 918 563 918Q428
918 356 791Q291 677 291 496Q291 318 358 203Q432 76 563 76Q697 76 771 202Q838 316 838 496Z" />
<glyph unicode="p" glyph-name="p" horiz-adv-x="1149" d="M1079 526Q1079 283 941 139T561 -6Q493 -6 379 12V-315Q379 -354 424 -358L545 -369V-446H47V-369L145 -358Q188 -353 188 -315V854H47V922L297 999H379V885Q540 1010 688 1010Q853 1010 963 882Q1079
747 1079 526ZM874 498Q874 662 802 762Q725 868 588 868Q493 868 379 807V121Q467 88 545 88Q705 88 794 213Q874 325 874 498Z" />
<glyph unicode="q" glyph-name="q" horiz-adv-x="1110" d="M1100 -446H604V-369L725 -358Q768 -354 768 -315V74Q604 -6 481 -6Q296 -6 184 129Q76 261 76 469Q76 721 233 866T668 1012Q819 1012 958 979V-315Q958 -353 1001 -358L1100 -369V-446ZM768 143V897Q674
918 627 918Q463 918 371 804Q283 693 283 502Q283 331 355 229Q435 115 592 115Q680 115 768 143Z" />
<glyph unicode="r" glyph-name="r" horiz-adv-x="811" d="M791 778H711Q662 834 600 834Q506 834 395 707V131Q395 88 438 86L573 80V0H61V78L162 86Q205 89 205 131V854H57V922L311 999H395V805Q483 902 517 932Q604 1010 666 1010Q737 1010 791 981V778Z" />
<glyph unicode="s" glyph-name="s" horiz-adv-x="838" d="M760 297Q760 147 657 65T369 -18Q197 -18 84 27V301H188L213 125Q291 74 395 74Q479 74 531 121Q580 165 580 229Q580 306 514 357Q479 383 330 455Q209 513 158 566Q98 628 98 715Q98 853 195 932T467
1012Q625 1012 729 965V723H623L606 868Q546 915 451 915Q285 915 285 778Q285 711 334 667Q378 628 512 567Q634 512 690 457Q760 389 760 297Z" />
<glyph unicode="t" glyph-name="t" horiz-adv-x="696" d="M684 43Q543 -6 406 -6Q288 -6 237 40T186 205V858H55V926L195 991L287 1188H377V961H666V858H377V313Q377 196 418 150Q455 109 541 109Q615 109 684 125V43Z" />
<glyph unicode="u" glyph-name="u" horiz-adv-x="1165" d="M1122 0H799V117Q625 -16 469 -16Q186 -16 186 307V862H43V932L295 1010H379V346Q379 123 575 123Q693 123 799 176V862H655V932L905 1010H987V131Q987 89 1032 86L1122 80V0Z" />
<glyph unicode="v" glyph-name="v" horiz-adv-x="1083" d="M1063 909L954 897L596 0H463L133 897L20 909V987H473V909L375 903Q358 902 348 889T344 858L573 215L825 858Q831 874 823 888T797 903L705 909V987H1063V909Z" />
<glyph unicode="w" glyph-name="w" horiz-adv-x="1604" d="M1583 909L1479 897L1198 0H1053L811 766L541 0H395L133 897L20 909V987H469V909L373 903Q331 900 342 858L512 219L776 987H922L1159 219L1348 858Q1361 900 1319 903L1225 909V987H1583V909Z" />
<glyph unicode="x" glyph-name="x" horiz-adv-x="1051" d="M1030 0H588V80L659 88Q672 90 678 102Q683 114 676 125L500 387L299 125Q291 115 295 102Q300 89 313 88L414 80V0H25V80L143 96L436 477L156 891L35 909V987H487V909L414 899Q400 897 394 885Q388 872
395 862L555 631L735 862Q743 872 738 884Q732 897 719 899L631 909V987H1001V909L889 891L616 539L918 96L1030 80V0Z" />
<glyph unicode="y" glyph-name="y" horiz-adv-x="1085" d="M1065 909L958 897L565 -63Q476 -280 389 -367Q310 -446 211 -446Q142 -446 100 -410Q61 -377 61 -328Q61 -260 127 -205L319 -293Q412 -200 481 2L133 897L20 909V987H473V909L375 903Q342 901 342 870Q342
864 344 858L582 252L825 858Q831 873 823 887T797 903L700 909V987H1065V909Z" />
<glyph unicode="z" glyph-name="z" horiz-adv-x="973" d="M899 0H92V109L635 891H279Q244 891 238 848L217 696H113V987H870V903L309 98H723Q736 98 751 114T768 147L788 309H899V0Z" />
<glyph unicode="{" glyph-name="braceleft" horiz-adv-x="1278" d="M1098 -655Q751 -655 641 -524Q563 -432 543 -277Q535 -210 535 14Q535 185 528 245Q514 385 461 444Q413 499 320 515Q270 524 158 524V664Q284 665 343 679Q418 697 461 745Q514 805 528 945Q535
1005 535 1176Q535 1396 543 1465Q563 1619 641 1712Q750 1843 1098 1843V1720Q904 1720 831 1630Q783 1570 772 1435Q768 1387 768 1184Q768 879 692 768Q608 644 416 596Q609 544 692 420Q768 307 768 4Q768 -197 772 -247Q784 -382 831 -442Q901 -530 1098 -530V-655Z"
/>
<glyph unicode="|" glyph-name="bar" horiz-adv-x="1024" d="M584 -483H442V1565H584V-483Z" />
<glyph unicode="}" glyph-name="braceright" horiz-adv-x="1278" d="M1120 524Q1007 524 958 515Q866 499 817 444Q764 385 749 245Q743 187 743 14Q743 -210 735 -277Q715 -432 637 -524Q527 -655 180 -655V-530Q379 -530 449 -442Q496 -382 508 -247Q512 -197
512 4Q512 310 586 420Q670 545 864 596Q670 644 586 768Q512 876 512 1184Q512 1387 508 1435Q497 1570 449 1630Q376 1720 180 1720V1843Q528 1843 637 1712Q715 1619 735 1465Q743 1396 743 1176Q743 1003 749 945Q764 805 817 745Q861 696 935 679Q994 665
1120 664V524Z" />
<glyph unicode="~" glyph-name="asciitilde" horiz-adv-x="1706" d="M1530 627Q1321 483 1145 483Q1050 483 856 552T553 621Q397 621 178 461V594Q380 739 567 739Q669 739 864 671T1147 602Q1312 602 1530 760V627Z" />
<glyph unicode="&#xa0;" glyph-name="nbspace" horiz-adv-x="700" />
<glyph unicode="&#xa1;" glyph-name="exclamdown" horiz-adv-x="692" d="M473 1274Q473 1222 437 1186T348 1149Q296 1149 259 1185T221 1274Q221 1326 258 1363T348 1401Q400 1401 436 1364T473 1274ZM471 141Q472 127 472 115Q472 -16 348 -16Q222 -16 222 115Q222
127 223 141L299 1020H397L471 141Z" />
<glyph unicode="&#xa2;" glyph-name="cent" horiz-adv-x="1153" d="M991 47Q980 36 913 21Q819 0 696 0V-203H598V4Q391 27 271 166T150 516Q150 720 273 860T598 1028V1237H696V1036Q835 1036 991 985V684H893L864 862Q858 898 840 905Q790 934 696 936V98Q776
100 840 127Q854 134 864 160L891 356H991V47ZM598 104V930Q502 908 432 814Q346 698 346 522Q346 348 421 234Q489 130 598 104Z" />
<glyph unicode="&#xa3;" glyph-name="sterling" horiz-adv-x="1153" d="M1057 1180Q1057 1131 1019 1097T930 1063Q903 1063 856 1073V1278Q802 1294 764 1294Q489 1294 489 889Q489 805 494 725H874V623H494Q501 302 276 156Q408 168 446 168H1053V0H80V125Q310
184 303 524Q307 531 301 623H158V725H299Q297 830 297 887Q297 1185 475 1319Q579 1397 733 1397Q850 1397 943 1347Q1057 1287 1057 1180Z" />
<glyph unicode="&#xa4;" glyph-name="currency" horiz-adv-x="1589" d="M1481 539L1386 444L1120 711Q977 600 797 600Q618 600 469 713L205 444L111 539L377 805Q262 949 262 1135Q262 1315 373 1458L111 1722L205 1815L465 1552Q608 1667 797 1667Q983 1667
1124 1554L1386 1815L1481 1722L1219 1460Q1329 1317 1329 1135Q1329 946 1214 803L1481 539ZM1198 1135Q1198 1300 1081 1418T797 1536Q629 1536 511 1419T393 1135Q393 967 511 849T797 731Q963 731 1080 849T1198 1135Z" />
<glyph unicode="&#xa5;" glyph-name="yen" horiz-adv-x="1221" d="M1200 1288L1085 1262L866 874H1155V784H815L696 575H1155V485H698V141Q698 101 752 96L870 86V0H336V86L457 96Q508 100 508 141V485H66V575H504L393 784H66V874H344L141 1264L20 1288V1374H479V1288L391
1274Q348 1267 367 1229L637 700L934 1227Q955 1264 907 1272L809 1288V1374H1200V1288Z" />
<glyph unicode="&#xa6;" glyph-name="brokenbar" horiz-adv-x="1024" d="M582 674H442V1434H582V674ZM582 -350H442V410H582V-350Z" />
<glyph unicode="&#xa7;" glyph-name="section" horiz-adv-x="1024" d="M903 627Q903 514 826 420Q757 335 655 295Q866 197 866 25Q866 -113 759 -201T485 -289Q320 -289 170 -223V45H272L283 -18L301 -139Q328 -157 373 -172Q436 -193 494 -193Q586 -193 645
-148T705 -27Q705 99 365 252Q121 362 121 586Q121 711 192 792Q245 853 362 907Q158 1009 158 1169Q158 1470 555 1470Q731 1470 840 1421V1155H743L723 1321Q615 1380 530 1380Q439 1380 383 1332T326 1208Q326 1144 412 1083Q468 1043 623 969Q903 835 903 627ZM743
575Q743 747 461 864Q372 833 322 766Q276 705 276 633Q276 543 348 473Q414 410 571 336Q628 365 679 427Q743 503 743 575Z" />
<glyph unicode="&#xa8;" glyph-name="dieresis" horiz-adv-x="647" d="M647 1313Q647 1266 615 1232T537 1198Q491 1198 458 1232T424 1313Q424 1356 459 1390T537 1425Q583 1425 615 1392T647 1313ZM223 1313Q223 1267 190 1233T111 1198Q67 1198 34 1232T0 1311Q0
1356 33 1390T111 1425Q157 1425 190 1392T223 1313Z" />
<glyph unicode="&#xa9;" glyph-name="copyright" horiz-adv-x="1831" d="M1706 696Q1706 368 1476 136T918 -96Q594 -96 363 136T131 694Q131 1022 362 1254T920 1487Q1248 1487 1477 1254T1706 696ZM1618 694Q1618 985 1414 1193T920 1401Q630 1401 425 1194T219
694Q219 404 424 197T918 -10Q1207 -10 1412 197T1618 694ZM1241 260Q1094 211 950 211Q718 211 579 356Q449 491 449 694Q449 908 587 1042T952 1176Q1065 1176 1241 1124V881H1149L1118 1036Q1054 1079 973 1079Q835 1079 740 979Q637 872 637 698Q637 519 735
408Q825 305 952 305Q1039 305 1122 344L1151 518H1241V260Z" />
<glyph unicode="&#xaa;" glyph-name="ordfeminine" horiz-adv-x="711" d="M686 784H481L463 856Q335 776 236 776Q159 776 110 817Q57 861 57 936Q57 1016 135 1060Q220 1109 463 1157V1212Q463 1333 338 1333Q296 1333 240 1317V1210H139Q90 1210 90 1245Q90
1315 183 1356Q264 1391 377 1391Q592 1391 592 1206V862Q592 839 627 836L686 831V784ZM680 623H63V684H680V623ZM463 899V1110Q293 1072 235 1029Q193 998 193 944Q193 904 221 877T297 850Q365 850 463 899Z" />
<glyph unicode="&#xab;" glyph-name="guillemotleft" horiz-adv-x="1159" d="M1053 168L616 524V735L1053 1092V905L752 631L1053 348V168ZM537 168L100 524V735L537 1092V905L233 631L537 348V168Z" />
<glyph unicode="&#xac;" glyph-name="logicalnot" horiz-adv-x="1024" d="M949 496H794V942H73V1102H949V496Z" />
<glyph unicode="&#xad;" glyph-name="sfthyphen" horiz-adv-x="657" d="M565 416H90V569H565V416Z" />
<glyph unicode="&#xae;" glyph-name="registered" horiz-adv-x="1831" d="M1706 694Q1706 367 1475 136T915 -96Q592 -96 362 135T131 694Q131 1022 362 1254T920 1487Q1243 1487 1474 1255T1706 694ZM1618 694Q1618 987 1414 1194T920 1401Q631 1401 425 1195T219
690Q219 402 423 196T918 -10Q1208 -10 1413 197T1618 694ZM1427 268Q1367 258 1309 258Q1193 258 1147 305T1066 458Q1030 568 999 606Q948 668 825 668Q806 668 782 667T758 666V360Q758 334 788 332L866 326V268H504V326L582 332Q612 334 612 360V1073Q612 1100
582 1102L504 1108V1165H885Q1243 1165 1243 928Q1243 756 1004 705Q1092 685 1130 645Q1177 595 1202 498T1264 362T1427 324V268ZM1083 922Q1083 1102 827 1102H758V733Q820 731 834 731Q1083 731 1083 922Z" />
<glyph unicode="&#xaf;" glyph-name="overscore" horiz-adv-x="616" d="M616 1198H0V1329H616V1198Z" />
<glyph unicode="&#xb0;" glyph-name="degree" horiz-adv-x="676" d="M623 1171Q623 1053 540 970T338 887Q220 887 137 970T53 1171Q53 1289 136 1371T338 1454Q456 1454 539 1372T623 1171ZM541 1171Q541 1254 481 1313T338 1372Q255 1372 195 1313T135 1171Q135
1088 195 1029T338 969Q421 969 481 1028T541 1171Z" />
<glyph unicode="&#xb1;" glyph-name="plusminus" horiz-adv-x="1706" d="M1452 719H913V375H795V719H254V836H795V1180H913V836H1452V719ZM1452 41H254V158H1452V41Z" />
<glyph unicode="&#xb2;" glyph-name="twosuperior" horiz-adv-x="748" d="M686 604H63V686Q318 881 390 954Q514 1080 514 1196Q514 1376 340 1376Q309 1376 231 1350V1214Q206 1194 168 1194Q86 1194 86 1266Q86 1343 172 1393T377 1444Q506 1444 581 1380T657
1208Q657 1092 520 959Q441 882 203 709H596L621 813H686V604Z" />
<glyph unicode="&#xb3;" glyph-name="threesuperior" horiz-adv-x="764" d="M686 844Q686 733 589 664T346 594Q221 594 144 640Q78 680 78 731Q78 801 156 801Q184 801 201 791L242 682Q293 655 350 655Q439 655 497 713Q551 767 551 844Q551 995 358 995Q314
995 283 991V1067H317Q518 1067 518 1223Q518 1297 468 1339Q421 1378 350 1378Q283 1378 236 1350V1227Q202 1210 176 1210Q98 1210 98 1280Q98 1350 181 1398T385 1446Q503 1446 577 1391Q653 1333 653 1237Q653 1094 449 1040Q545 1037 610 991Q686 938 686
844Z" />
<glyph unicode="&#xb4;" glyph-name="acute" horiz-adv-x="717" d="M717 1409Q717 1357 670 1327L358 1128H242L514 1446Q561 1501 623 1501Q717 1501 717 1409Z" />
<glyph unicode="&#xb5;" glyph-name="micro" horiz-adv-x="1137" d="M1094 299Q1094 222 1042 125Q964 -20 821 -20Q738 -20 698 49Q665 106 668 193Q577 -23 387 -23Q292 -23 232 39Q176 98 166 195Q160 165 94 -256Q68 -418 -2 -418Q-86 -418 -86 -340Q-86 -295
-72 -244Q42 167 193 885H354L248 375Q238 327 238 287Q238 115 393 115Q584 115 635 352L750 885H913L791 307Q782 262 782 227Q782 117 870 117Q936 117 977 172Q997 199 1038 297Q1053 334 1071 334Q1094 334 1094 299Z" />
<glyph unicode="&#xb6;" glyph-name="paragraph" horiz-adv-x="1274" d="M1202 1665L1040 1638V-207H913V1651H713V735Q402 735 250 837Q70 958 70 1243Q70 1523 230 1646Q377 1759 684 1759H1202V1665Z" />
<glyph unicode="&#xb7;" glyph-name="middot" horiz-adv-x="786" d="M694 891Q694 765 607 678T393 590Q267 590 180 677T92 891Q92 1017 179 1105T393 1194Q519 1194 606 1106T694 891Z" />
<glyph unicode="&#xb8;" glyph-name="cedilla" horiz-adv-x="473" d="M473 -266Q473 -359 408 -410T236 -461Q169 -461 84 -440V-360Q159 -377 207 -377Q340 -377 340 -293Q340 -217 244 -217Q225 -217 197 -229V0H276V-129Q332 -121 324 -121Q473 -121 473 -266Z" />
<glyph unicode="&#xb9;" glyph-name="onesuperior" horiz-adv-x="688" d="M592 604H141V659L276 664Q305 665 305 690V1339L98 1307V1362L387 1444H436V690Q436 665 467 664L592 659V604Z" />
<glyph unicode="&#xba;" glyph-name="ordmasculine" horiz-adv-x="756" d="M707 1081Q707 948 617 860T379 772Q231 772 141 860T51 1081Q51 1220 140 1305T381 1391Q530 1391 621 1300Q707 1213 707 1081ZM692 623H66V684H692V623ZM561 1081Q561 1188 516 1257Q467
1333 379 1333Q289 1333 239 1257Q195 1189 195 1081Q195 975 241 905Q291 829 379 829Q469 829 518 904Q561 972 561 1081Z" />
<glyph unicode="&#xbb;" glyph-name="guillemotright" horiz-adv-x="1159" d="M1061 524L623 168V352L926 629L623 909V1092L1061 735V524ZM541 524L106 168V352L408 629L106 909V1092L541 735V524Z" />
<glyph unicode="&#xbc;" glyph-name="onequarter" horiz-adv-x="1792" d="M1694 233H1542V-43H1427V233H1001V319L1452 831H1542V317H1694V233ZM1413 1430L506 0H375L1284 1430H1413ZM592 604H141V659L276 664Q305 665 305 690V1339L98 1307V1362L387 1444H436V690Q436
665 467 664L592 659V604ZM1427 317V688L1108 317H1427Z" />
<glyph unicode="&#xbd;" glyph-name="onehalf" horiz-adv-x="1792" d="M1700 0H1075V82Q1330 277 1403 351Q1528 478 1528 594Q1528 772 1354 772Q1326 772 1245 745V610Q1218 590 1180 590Q1100 590 1100 662Q1100 739 1185 789T1389 840Q1518 840 1593 776T1669
604Q1669 488 1533 354Q1452 275 1217 104H1610L1632 211H1700V0ZM1399 1430L489 0H360L1270 1430H1399ZM588 604H137V659L272 664Q301 665 301 690V1339L94 1307V1362L383 1444H432V690Q432 665 463 664L588 659V604Z" />
<glyph unicode="&#xbe;" glyph-name="threequarters" horiz-adv-x="1792" d="M1716 233H1565V-43H1450V233H1024V319L1475 831H1565V317H1716V233ZM1436 1430L526 0H397L1307 1430H1436ZM686 844Q686 733 589 664T346 594Q221 594 144 640Q78 680 78 731Q78 801
156 801Q184 801 201 791L242 682Q293 655 350 655Q439 655 497 713Q551 767 551 844Q551 995 358 995Q314 995 283 991V1067H317Q518 1067 518 1223Q518 1297 468 1339Q421 1378 350 1378Q283 1378 236 1350V1227Q202 1210 176 1210Q98 1210 98 1280Q98 1350 181
1398T385 1446Q503 1446 577 1391Q653 1333 653 1237Q653 1094 449 1040Q545 1037 610 991Q686 938 686 844ZM1450 317V688L1130 317H1450Z" />
<glyph unicode="&#xbf;" glyph-name="questiondown" horiz-adv-x="995" d="M686 1272Q686 1220 650 1184T561 1147Q509 1147 472 1183T434 1272Q434 1325 471 1362T561 1399Q613 1399 649 1362T686 1272ZM866 184Q866 104 788 48Q700 -16 545 -16Q358 -16 239
82Q117 183 117 348Q117 637 506 795V1022H621V725Q324 625 324 367Q324 84 616 84L698 295H735Q866 295 866 184Z" />
<glyph unicode="&#xc0;" glyph-name="Agrave" horiz-adv-x="1360" d="M778 1493H664L352 1692Q303 1723 303 1774Q303 1866 399 1866Q458 1866 506 1810L778 1493ZM1360 0H872V88L991 98Q1000 99 1007 112T1012 133L872 508H397L262 139Q261 136 261 133Q261 100
291 98L412 88V0H0V88L119 113L596 1391H750L1225 143Q1234 120 1240 114T1268 104L1360 88V0ZM834 606L631 1159L434 606H834Z" />
<glyph unicode="&#xc1;" glyph-name="Aacute" horiz-adv-x="1360" d="M1028 1774Q1028 1722 981 1692L672 1493H555L827 1810Q875 1866 936 1866Q1028 1866 1028 1774ZM1360 0H872V88L991 98Q1000 99 1007 112T1012 133L872 508H397L262 139Q261 136 261 133Q261
100 291 98L412 88V0H0V88L119 113L596 1391H750L1225 143Q1234 120 1240 114T1268 104L1360 88V0ZM834 606L631 1159L434 606H834Z" />
<glyph unicode="&#xc2;" glyph-name="Acircumflex" horiz-adv-x="1360" d="M993 1487H870L659 1692L446 1487H324L582 1835H735L993 1487ZM1360 0H872V88L991 98Q1000 99 1007 112T1012 133L872 508H397L262 139Q261 136 261 133Q261 100 291 98L412 88V0H0V88L119
113L596 1391H750L1225 143Q1234 120 1240 114T1268 104L1360 88V0ZM834 606L631 1159L434 606H834Z" />
<glyph unicode="&#xc3;" glyph-name="Atilde" horiz-adv-x="1360" d="M1028 1776Q971 1550 791 1550Q740 1550 659 1599T508 1649Q468 1649 436 1619T399 1550H317Q374 1776 555 1776Q606 1776 688 1727T840 1677Q880 1677 910 1707T946 1776H1028ZM1360 0H872V88L991
98Q1000 99 1007 112T1012 133L872 508H397L262 139Q261 136 261 133Q261 100 291 98L412 88V0H0V88L119 113L596 1391H750L1225 143Q1234 120 1240 114T1268 104L1360 88V0ZM834 606L631 1159L434 606H834Z" />
<glyph unicode="&#xc4;" glyph-name="Adieresis" horiz-adv-x="1360" d="M993 1665Q993 1619 960 1585T881 1550Q835 1550 802 1584T768 1665Q768 1708 803 1743T881 1778Q927 1778 960 1745T993 1665ZM569 1665Q569 1619 536 1585T457 1550Q412 1550 378 1584T344
1663Q344 1708 378 1743T457 1778Q503 1778 536 1745T569 1665ZM1360 0H872V88L991 98Q1000 99 1007 112T1012 133L872 508H397L262 139Q261 136 261 133Q261 100 291 98L412 88V0H0V88L119 113L596 1391H750L1225 143Q1234 120 1240 114T1268 104L1360 88V0ZM834
606L631 1159L434 606H834Z" />
<glyph unicode="&#xc5;" glyph-name="Aring" horiz-adv-x="1360" d="M926 1743Q926 1637 851 1562T670 1487Q564 1487 490 1562T416 1743Q416 1849 490 1923T670 1997Q776 1997 851 1923T926 1743ZM1360 0H872V88L991 98Q1000 99 1007 112T1012 133L872 508H397L262
139Q261 136 261 133Q261 100 291 98L412 88V0H0V88L119 113L596 1391H750L1225 143Q1234 120 1240 114T1268 104L1360 88V0ZM803 1743Q803 1798 764 1837T670 1876Q615 1876 576 1837T537 1743Q537 1688 576 1649T670 1610Q725 1610 764 1649T803 1743ZM834 606L631
1159L434 606H834Z" />
<glyph unicode="&#xc6;" glyph-name="AE" horiz-adv-x="1847" d="M1835 0H821V88L922 96Q975 100 975 141V512H502L272 141Q247 101 287 98L403 88V0H0V88L109 104L805 1235Q809 1241 809 1247Q809 1275 776 1278L676 1288V1374H1761V1069H1642L1614 1237Q1608
1276 1579 1276H1171V766L1440 764Q1472 764 1477 801L1495 942H1595V485H1495L1477 629Q1473 664 1440 664H1171V100H1651Q1682 100 1688 139L1718 342H1835V0ZM975 614V1280L559 612L975 614Z" />
<glyph unicode="&#xc7;" glyph-name="Ccedilla" horiz-adv-x="1296" d="M1210 47Q1036 -23 817 -25V-129Q873 -121 864 -121Q1014 -121 1014 -266Q1014 -359 945 -411Q880 -461 774 -461Q707 -461 623 -440V-360Q700 -377 748 -377Q879 -377 879 -293Q879 -217
782 -217Q763 -217 735 -229V-23Q433 -1 254 211Q86 408 86 690Q86 1008 284 1203T803 1399Q977 1399 1210 1327V1006H1087L1057 1192Q1052 1225 1022 1239Q927 1284 813 1284Q595 1284 463 1137Q322 981 322 696Q322 411 459 250T840 88Q941 88 1006 115Q1038
128 1044 156L1092 379H1210V47Z" />
<glyph unicode="&#xc8;" glyph-name="Egrave" horiz-adv-x="1198" d="M752 1487H635L324 1686Q276 1717 276 1769Q276 1860 371 1860Q428 1860 477 1804L752 1487ZM1130 0H66V88L174 96Q219 99 219 141V1233Q219 1275 174 1278L66 1286V1374H1061V1069H938L909
1237Q902 1276 872 1276H424V766H735Q767 766 772 801L791 942H895V485H791L772 627Q767 664 735 664H424V100H946Q976 100 983 139L1018 342H1130V0Z" />
<glyph unicode="&#xc9;" glyph-name="Eacute" horiz-adv-x="1198" d="M963 1774Q963 1724 913 1692L602 1493H487L760 1810Q808 1866 866 1866Q963 1866 963 1774ZM1130 0H66V88L174 96Q219 99 219 141V1233Q219 1275 174 1278L66 1286V1374H1061V1069H938L909
1237Q902 1276 872 1276H424V766H735Q767 766 772 801L791 942H895V485H791L772 627Q767 664 735 664H424V100H946Q976 100 983 139L1018 342H1130V0Z" />
<glyph unicode="&#xca;" glyph-name="Ecircumflex" horiz-adv-x="1198" d="M948 1487H825L614 1692L403 1487H281L539 1835H692L948 1487ZM1130 0H66V88L174 96Q219 99 219 141V1233Q219 1275 174 1278L66 1286V1374H1061V1069H938L909 1237Q902 1276 872 1276H424V766H735Q767
766 772 801L791 942H895V485H791L772 627Q767 664 735 664H424V100H946Q976 100 983 139L1018 342H1130V0Z" />
<glyph unicode="&#xcb;" glyph-name="Edieresis" horiz-adv-x="1198" d="M952 1665Q952 1618 920 1584T842 1550Q796 1550 763 1584T729 1665Q729 1708 764 1743T842 1778Q888 1778 920 1745T952 1665ZM528 1665Q528 1619 495 1585T416 1550Q372 1550 339 1584T305
1663Q305 1708 338 1743T416 1778Q462 1778 495 1745T528 1665ZM1130 0H66V88L174 96Q219 99 219 141V1233Q219 1275 174 1278L66 1286V1374H1061V1069H938L909 1237Q902 1276 872 1276H424V766H735Q767 766 772 801L791 942H895V485H791L772 627Q767 664 735 664H424V100H946Q976
100 983 139L1018 342H1130V0Z" />
<glyph unicode="&#xcc;" glyph-name="Igrave" horiz-adv-x="676" d="M473 1487H356L45 1686Q-2 1716 -2 1769Q-2 1860 92 1860Q151 1860 199 1804L473 1487ZM608 0H68V88L193 96Q236 99 236 141V1233Q236 1273 193 1276L68 1284V1374H608V1284L485 1276Q440 1273
440 1233V141Q440 99 485 96L608 88V0Z" />
<glyph unicode="&#xcd;" glyph-name="Iacute" horiz-adv-x="676" d="M662 1769Q662 1717 614 1686L303 1487H186L461 1804Q510 1860 567 1860Q662 1860 662 1769ZM608 0H68V88L190 96Q233 99 233 141V1233Q233 1273 190 1276L68 1284V1374H608V1284L483 1276Q440
1273 440 1233V141Q440 99 483 96L608 88V0Z" />
<glyph unicode="&#xce;" glyph-name="Icircumflex" horiz-adv-x="676" d="M672 1487H549L338 1692L127 1487H2L260 1835H416L672 1487ZM608 0H68V88L193 96Q236 99 236 141V1233Q236 1273 193 1276L68 1284V1374H608V1284L485 1276Q440 1273 440 1233V141Q440
99 485 96L608 88V0Z" />
<glyph unicode="&#xcf;" glyph-name="Idieresis" horiz-adv-x="676" d="M662 1665Q662 1619 630 1585T551 1550Q505 1550 472 1584T438 1665Q438 1708 472 1743T549 1778Q595 1778 628 1745T662 1665ZM238 1665Q238 1619 205 1585T125 1550Q81 1550 48 1584T14
1663Q14 1708 47 1743T125 1778Q171 1778 204 1745T238 1665ZM608 0H68V88L193 96Q236 99 236 141V1233Q236 1273 193 1276L68 1284V1374H608V1284L485 1276Q440 1273 440 1233V141Q440 99 485 96L608 88V0Z" />
<glyph unicode="&#xd0;" glyph-name="Eth" horiz-adv-x="1432" d="M1346 686Q1346 382 1168 197Q978 0 637 0H66V88L174 96Q217 99 217 141V668H31V772H217V1233Q217 1272 174 1276L66 1286V1374H592Q929 1374 1126 1214Q1346 1036 1346 686ZM1114 686Q1114 1276
582 1276H424V772H752V668H424V98H584Q1114 98 1114 686Z" />
<glyph unicode="&#xd1;" glyph-name="Ntilde" horiz-adv-x="1466" d="M1114 1776Q1057 1550 879 1550Q828 1550 746 1599T594 1649Q554 1649 523 1619T487 1550H406Q463 1776 641 1776Q692 1776 774 1727T926 1677Q966 1677 996 1707T1032 1776H1114ZM1419 1286L1305
1278Q1262 1275 1262 1233V0H1102L340 1147V141Q340 99 383 96L500 88V0H57V88L174 96Q219 99 219 141V1233Q219 1275 174 1278L53 1286V1374H459V1323L1141 293V1233Q1141 1275 1098 1278L981 1286V1374H1419V1286Z" />
<glyph unicode="&#xd2;" glyph-name="Ograve" horiz-adv-x="1507" d="M862 1487H745L434 1686Q387 1716 387 1769Q387 1860 481 1860Q540 1860 588 1804L862 1487ZM1423 686Q1423 382 1240 178Q1051 -33 756 -33Q458 -33 270 173Q86 376 86 688Q86 995 267 1198Q455
1409 754 1409Q1052 1409 1241 1196Q1423 991 1423 686ZM1186 684Q1186 948 1079 1113Q962 1292 756 1292Q544 1292 428 1112Q322 949 322 688Q322 426 428 261Q544 80 752 80Q963 80 1080 261Q1186 425 1186 684Z" />
<glyph unicode="&#xd3;" glyph-name="Oacute" horiz-adv-x="1507" d="M1112 1769Q1112 1716 1065 1686L754 1487H637L911 1804Q959 1860 1018 1860Q1112 1860 1112 1769ZM1423 686Q1423 382 1240 178Q1051 -33 756 -33Q458 -33 270 173Q86 376 86 688Q86 995 267
1198Q455 1409 754 1409Q1052 1409 1241 1196Q1423 991 1423 686ZM1186 684Q1186 948 1079 1113Q962 1292 756 1292Q544 1292 428 1112Q322 949 322 688Q322 426 428 261Q544 80 752 80Q963 80 1080 261Q1186 425 1186 684Z" />
<glyph unicode="&#xd4;" glyph-name="Ocircumflex" horiz-adv-x="1507" d="M1087 1487H965L754 1692L543 1487H420L676 1835H829L1087 1487ZM1423 686Q1423 382 1240 178Q1051 -33 756 -33Q458 -33 270 173Q86 376 86 688Q86 995 267 1198Q455 1409 754 1409Q1052
1409 1241 1196Q1423 991 1423 686ZM1186 684Q1186 948 1079 1113Q962 1292 756 1292Q544 1292 428 1112Q322 949 322 688Q322 426 428 261Q544 80 752 80Q963 80 1080 261Q1186 425 1186 684Z" />
<glyph unicode="&#xd5;" glyph-name="Otilde" horiz-adv-x="1507" d="M1106 1776Q1049 1550 868 1550Q817 1550 736 1599T584 1649Q544 1649 513 1619T477 1550H395Q452 1776 633 1776Q684 1776 764 1727T915 1677Q955 1677 987 1707T1024 1776H1106ZM1425 686Q1425
382 1242 178Q1053 -33 758 -33Q460 -33 271 173Q86 376 86 688Q86 995 268 1198Q457 1409 756 1409Q1054 1409 1243 1196Q1425 991 1425 686ZM1188 684Q1188 948 1081 1113Q964 1292 758 1292Q546 1292 430 1112Q324 949 324 688Q324 426 430 261Q546 80 754 80Q965
80 1082 261Q1188 425 1188 684Z" />
<glyph unicode="&#xd6;" glyph-name="Odieresis" horiz-adv-x="1507" d="M1075 1665Q1075 1618 1043 1584T965 1550Q919 1550 886 1584T852 1665Q852 1708 886 1743T963 1778Q1009 1778 1042 1745T1075 1665ZM651 1665Q651 1619 618 1585T539 1550Q495 1550 462
1584T428 1663Q428 1708 461 1743T539 1778Q585 1778 618 1745T651 1665ZM1425 686Q1425 382 1242 178Q1053 -33 758 -33Q460 -33 271 173Q86 376 86 688Q86 995 268 1198Q457 1409 756 1409Q1054 1409 1243 1196Q1425 991 1425 686ZM1188 684Q1188 948 1081 1113Q964
1292 758 1292Q546 1292 430 1112Q324 949 324 688Q324 426 430 261Q546 80 754 80Q965 80 1082 261Q1188 425 1188 684Z" />
<glyph unicode="&#xd7;" glyph-name="multiply" horiz-adv-x="1706" d="M1417 139L1325 47L854 520L381 47L291 139L762 610L291 1083L381 1176L854 702L1325 1176L1417 1083L944 610L1417 139Z" />
<glyph unicode="&#xd8;" glyph-name="Oslash" horiz-adv-x="1507" d="M1423 686Q1423 382 1240 178Q1051 -33 756 -33Q571 -33 426 49L299 -162L205 -104L334 113Q86 319 86 688Q86 995 267 1198Q455 1409 754 1409Q919 1409 1061 1335L1178 1532L1274 1475L1155
1276Q1423 1069 1423 686ZM1186 684Q1186 959 1067 1128L500 174Q604 80 752 80Q963 80 1080 261Q1186 425 1186 684ZM987 1214Q890 1292 756 1292Q544 1292 428 1112Q322 949 322 688Q322 428 424 266L987 1214Z" />
<glyph unicode="&#xd9;" glyph-name="Ugrave" horiz-adv-x="1440" d="M866 1487H750L438 1686Q391 1716 391 1769Q391 1860 485 1860Q544 1860 592 1804L866 1487ZM1397 1286L1280 1278Q1237 1275 1237 1233V455Q1237 -25 709 -25Q199 -25 199 455V1233Q199 1275
156 1278L47 1286V1374H578V1286L461 1278Q418 1275 418 1233V508Q418 311 485 221Q566 113 766 113Q964 113 1047 225Q1116 318 1116 508V1233Q1116 1275 1071 1278L954 1286V1374H1397V1286Z" />
<glyph unicode="&#xda;" glyph-name="Uacute" horiz-adv-x="1442" d="M1114 1769Q1114 1716 1067 1686L756 1487H639L911 1804Q959 1860 1020 1860Q1114 1860 1114 1769ZM1397 1286L1280 1278Q1237 1275 1237 1233V455Q1237 -25 709 -25Q199 -25 199 455V1233Q199
1275 156 1278L47 1286V1374H578V1286L461 1278Q418 1275 418 1233V508Q418 311 485 221Q566 113 766 113Q964 113 1047 225Q1116 318 1116 508V1233Q1116 1275 1071 1278L954 1286V1374H1397V1286Z" />
<glyph unicode="&#xdb;" glyph-name="Ucircumflex" horiz-adv-x="1442" d="M1090 1487H967L754 1692L543 1487H420L678 1835H831L1090 1487ZM1397 1286L1280 1278Q1237 1275 1237 1233V455Q1237 -25 709 -25Q199 -25 199 455V1233Q199 1275 156 1278L47 1286V1374H578V1286L461
1278Q418 1275 418 1233V508Q418 311 485 221Q566 113 766 113Q964 113 1047 225Q1116 318 1116 508V1233Q1116 1275 1071 1278L954 1286V1374H1397V1286Z" />
<glyph unicode="&#xdc;" glyph-name="Udieresis" horiz-adv-x="1442" d="M1085 1665Q1085 1618 1053 1584T975 1550Q929 1550 896 1584T862 1665Q862 1708 896 1743T973 1778Q1019 1778 1052 1745T1085 1665ZM662 1665Q662 1619 629 1585T549 1550Q505 1550 472
1584T438 1663Q438 1708 471 1743T549 1778Q595 1778 628 1745T662 1665ZM1399 1286L1284 1278Q1239 1275 1239 1233V455Q1239 -25 713 -25Q203 -25 203 455V1233Q203 1275 160 1278L49 1286V1374H580V1286L465 1278Q420 1275 420 1233L422 508Q422 311 488 221Q568
113 768 113Q966 113 1050 225Q1120 319 1120 508V1233Q1120 1275 1075 1278L958 1286V1374H1399V1286Z" />
<glyph unicode="&#xdd;" glyph-name="Yacute" horiz-adv-x="1280" d="M975 1769Q975 1716 928 1686L616 1487H500L772 1804Q820 1860 881 1860Q975 1860 975 1769ZM1260 1288L1149 1268L737 584V141Q737 99 780 96L911 88V0H360V88L487 96Q532 99 532 141V553L139
1264L20 1288V1374H506V1288L403 1278Q359 1274 379 1237L666 700L983 1231Q987 1238 987 1245Q987 1270 958 1274L844 1288V1374H1260V1288Z" />
<glyph unicode="&#xde;" glyph-name="Thorn" horiz-adv-x="1157" d="M1110 709Q1110 500 960 382Q816 269 575 270Q522 270 428 281V141Q428 99 473 96L592 88V0H72V88L178 96Q223 99 223 141V1233Q223 1275 178 1278L72 1286V1374H592V1286L473 1278Q428 1275
428 1233V1118L569 1116Q852 1112 979 1019Q1110 923 1110 709ZM897 709Q897 1034 526 1020Q520 1024 428 1016V383Q468 379 547 375Q897 372 897 709Z" />
<glyph unicode="&#xdf;" glyph-name="germandbls" horiz-adv-x="1264" d="M1210 305Q1210 159 1105 70Q1005 -14 854 -14Q767 -14 612 27V301H723L741 123Q786 82 864 82Q939 82 987 129T1036 246Q1036 360 813 483Q696 548 649 603Q598 662 598 741Q598 849 668
925Q735 998 844 1022Q864 1118 864 1169Q864 1270 813 1339Q757 1417 657 1417Q491 1417 420 1237Q373 1119 373 948V135Q373 88 403 86L508 78V0H39V78L137 88Q178 92 178 133V928Q178 1165 301 1330Q442 1520 694 1520Q866 1520 961 1422Q1051 1329 1051 1169Q1051
1121 1018 956Q1019 956 1004 958T971 961Q782 961 782 805Q782 703 1004 586Q1210 477 1210 305Z" />
<glyph unicode="&#xe0;" glyph-name="agrave" horiz-adv-x="1049" d="M659 1128H543L231 1327Q184 1357 184 1409Q184 1501 279 1501Q338 1501 385 1446L659 1128ZM1024 0H717L690 121Q500 -16 352 -16Q237 -16 164 53Q86 127 86 252Q86 380 187 452Q316 544 690
625V713Q690 915 504 915Q423 915 358 889V711H209Q133 711 133 770Q133 887 270 953Q389 1010 559 1010Q883 1010 883 705V131Q883 89 926 86L1024 80V0ZM690 193V547Q439 484 351 410Q289 356 289 266Q289 199 329 154Q371 104 442 104Q543 104 690 193Z" />
<glyph unicode="&#xe1;" glyph-name="aacute" horiz-adv-x="1049" d="M877 1409Q877 1358 829 1327L518 1128H401L676 1446Q724 1501 782 1501Q877 1501 877 1409ZM1024 0H717L690 121Q500 -16 352 -16Q237 -16 164 53Q86 127 86 252Q86 380 187 452Q316 544 690
625V713Q690 915 504 915Q423 915 358 889V711H209Q133 711 133 770Q133 887 270 953Q389 1010 559 1010Q883 1010 883 705V131Q883 89 926 86L1024 80V0ZM690 193V547Q439 484 351 410Q289 356 289 266Q289 199 329 154Q371 104 442 104Q543 104 690 193Z" />
<glyph unicode="&#xe2;" glyph-name="acircumflex" horiz-adv-x="1049" d="M844 1128H721L510 1331L299 1128H174L432 1475H588L844 1128ZM1024 0H717L690 121Q500 -16 352 -16Q237 -16 164 53Q86 127 86 252Q86 380 187 452Q316 544 690 625V713Q690 915 504
915Q423 915 358 889V711H209Q133 711 133 770Q133 887 270 953Q389 1010 559 1010Q883 1010 883 705V131Q883 89 926 86L1024 80V0ZM690 193V547Q439 484 351 410Q289 356 289 266Q289 199 329 154Q371 104 442 104Q543 104 690 193Z" />
<glyph unicode="&#xe3;" glyph-name="atilde" horiz-adv-x="1049" d="M881 1423Q824 1198 643 1198Q592 1198 510 1247T358 1296Q318 1296 288 1266T252 1198H170Q227 1423 408 1423Q459 1423 539 1374T690 1325Q730 1325 762 1355T799 1423H881ZM1024 0H717L690
121Q500 -16 352 -16Q237 -16 164 53Q86 127 86 252Q86 380 187 452Q316 544 690 625V713Q690 915 504 915Q423 915 358 889V711H209Q133 711 133 770Q133 887 270 953Q389 1010 559 1010Q883 1010 883 705V131Q883 89 926 86L1024 80V0ZM690 193V547Q439 484 351
410Q289 356 289 266Q289 199 329 154Q371 104 442 104Q543 104 690 193Z" />
<glyph unicode="&#xe4;" glyph-name="adieresis" horiz-adv-x="1049" d="M856 1313Q856 1267 823 1233T743 1198Q697 1198 665 1232T633 1313Q633 1356 666 1390T743 1425Q789 1425 822 1392T856 1313ZM430 1313Q430 1267 397 1233T317 1198Q273 1198 241 1232T209
1311Q209 1356 242 1390T319 1425Q365 1425 397 1392T430 1313ZM1024 0H717L690 121Q500 -16 352 -16Q237 -16 164 53Q86 127 86 252Q86 380 187 452Q316 544 690 625V713Q690 915 504 915Q423 915 358 889V711H209Q133 711 133 770Q133 887 270 953Q389 1010 559
1010Q883 1010 883 705V131Q883 89 926 86L1024 80V0ZM690 193V547Q439 484 351 410Q289 356 289 266Q289 199 329 154Q371 104 442 104Q543 104 690 193Z" />
<glyph unicode="&#xe5;" glyph-name="aring" horiz-adv-x="1049" d="M782 1372Q782 1271 711 1200T539 1128Q438 1128 367 1199T295 1372Q295 1473 366 1544T539 1616Q640 1616 711 1545T782 1372ZM1024 0H717L690 121Q500 -16 352 -16Q237 -16 164 53Q86 127
86 252Q86 380 187 452Q316 544 690 625V713Q690 915 504 915Q423 915 358 889V711H209Q133 711 133 770Q133 887 270 953Q389 1010 559 1010Q883 1010 883 705V131Q883 89 926 86L1024 80V0ZM682 1372Q682 1432 641 1474T539 1516Q479 1516 437 1474T395 1372Q395
1312 437 1271T539 1229Q599 1229 640 1270T682 1372ZM690 193V547Q439 484 351 410Q289 356 289 266Q289 199 329 154Q371 104 442 104Q543 104 690 193Z" />
<glyph unicode="&#xe6;" glyph-name="ae" horiz-adv-x="1507" d="M1423 102Q1260 -16 1083 -16Q862 -16 711 131Q517 -16 350 -16Q224 -16 153 57Q86 127 86 244Q86 397 220 476Q325 538 666 625V709Q666 915 483 915Q419 915 354 889V711H211Q133 711 133 770Q133
887 264 953Q377 1010 535 1010Q726 1010 807 891Q907 1010 1083 1010Q1255 1010 1344 885Q1423 775 1423 596Q1423 575 1419 524H846V252Q977 121 1149 121Q1298 121 1423 225V102ZM1221 612V674Q1221 775 1179 841Q1132 915 1047 915Q942 915 890 819Q846 739
846 612H1221ZM666 193V547Q445 487 362 425Q283 367 283 272Q283 106 438 106Q527 106 666 193Z" />
<glyph unicode="&#xe7;" glyph-name="ccedilla" horiz-adv-x="963" d="M891 84Q722 -9 569 -16V-129Q625 -121 616 -121Q766 -121 766 -266Q766 -359 698 -411Q634 -461 528 -461Q461 -461 375 -440V-360Q452 -377 500 -377Q633 -377 633 -293Q633 -217 535 -217Q516
-217 489 -229V-14Q300 4 188 142T76 487Q76 734 224 878Q361 1010 569 1010Q709 1010 796 957Q887 902 887 805Q887 748 852 717T766 686Q714 686 664 719V899Q620 924 578 924Q443 924 364 810T285 514Q285 336 371 228Q462 113 625 113Q756 113 891 201V84Z"
/>
<glyph unicode="&#xe8;" glyph-name="egrave" horiz-adv-x="1014" d="M662 1128H545L233 1327Q186 1357 186 1409Q186 1501 281 1501Q339 1501 387 1446L662 1128ZM940 102Q751 -16 551 -16Q350 -16 221 105Q76 240 76 483Q76 720 211 865T557 1010Q742 1010 844
892Q940 781 940 592Q940 553 938 535H274Q274 354 346 244Q434 109 616 109Q763 109 940 227V102ZM735 627V672Q735 779 687 842Q634 911 537 911Q434 911 364 834T285 627H735Z" />
<glyph unicode="&#xe9;" glyph-name="eacute" horiz-adv-x="1014" d="M897 1409Q897 1357 850 1327L539 1128H422L694 1446Q741 1501 803 1501Q897 1501 897 1409ZM940 102Q751 -16 551 -16Q350 -16 221 105Q76 240 76 483Q76 720 211 865T557 1010Q742 1010 844
892Q940 781 940 592Q940 553 938 535H274Q274 354 346 244Q434 109 616 109Q763 109 940 227V102ZM735 627V672Q735 779 687 842Q634 911 537 911Q434 911 364 834T285 627H735Z" />
<glyph unicode="&#xea;" glyph-name="ecircumflex" horiz-adv-x="1014" d="M856 1128H733L522 1331L311 1128H188L444 1475H598L856 1128ZM940 102Q751 -16 551 -16Q350 -16 221 105Q76 240 76 483Q76 720 211 865T557 1010Q742 1010 844 892Q940 781 940 592Q940
553 938 535H274Q274 354 346 244Q434 109 616 109Q763 109 940 227V102ZM735 627V672Q735 779 687 842Q634 911 537 911Q434 911 364 834T285 627H735Z" />
<glyph unicode="&#xeb;" glyph-name="edieresis" horiz-adv-x="1014" d="M852 1313Q852 1267 819 1233T739 1198Q693 1198 660 1232T627 1313Q627 1356 660 1390T737 1425Q783 1425 817 1392T852 1313ZM426 1313Q426 1267 393 1233T313 1198Q269 1198 236 1232T203
1311Q203 1356 236 1390T313 1425Q359 1425 392 1392T426 1313ZM940 102Q751 -16 551 -16Q350 -16 221 105Q76 240 76 483Q76 720 211 865T557 1010Q742 1010 844 892Q940 781 940 592Q940 553 938 535H274Q274 354 346 244Q434 109 616 109Q763 109 940 227V102ZM735
627V672Q735 779 687 842Q634 911 537 911Q434 911 364 834T285 627H735Z" />
<glyph unicode="&#xec;" glyph-name="igrave" horiz-adv-x="621" d="M446 1128H332L20 1327Q-29 1358 -29 1409Q-29 1501 68 1501Q127 1501 174 1446L446 1128ZM551 0H70V80L170 86Q213 89 213 131V854H72V922L322 999H403V131Q403 88 446 86L551 80V0Z" />
<glyph unicode="&#xed;" glyph-name="iacute" horiz-adv-x="621" d="M553 1409Q553 1357 506 1327L195 1128H78L350 1446Q397 1501 459 1501Q553 1501 553 1409ZM551 0H70V80L170 86Q213 89 213 131V854H72V922L322 999H403V131Q403 88 446 86L551 80V0Z" />
<glyph unicode="&#xee;" glyph-name="icircumflex" horiz-adv-x="621" d="M643 1128H520L307 1331L96 1128H-27L231 1475H385L643 1128ZM551 0H70V80L170 86Q213 89 213 131V854H72V922L322 999H403V131Q403 88 446 86L551 80V0Z" />
<glyph unicode="&#xef;" glyph-name="idieresis" horiz-adv-x="621" d="M633 1313Q633 1267 600 1233T520 1198Q474 1198 442 1232T410 1313Q410 1356 443 1390T520 1425Q566 1425 599 1392T633 1313ZM209 1313Q209 1267 176 1233T96 1198Q52 1198 19 1232T-14
1311Q-14 1356 19 1390T96 1425Q142 1425 175 1392T209 1313ZM551 0H70V80L170 86Q213 89 213 131V854H72V922L322 999H403V131Q403 88 446 86L551 80V0Z" />
<glyph unicode="&#xf0;" glyph-name="eth" horiz-adv-x="1102" d="M1034 555Q1034 294 899 136Q766 -18 553 -18Q336 -18 203 126T70 500Q70 724 212 862Q350 997 565 997Q611 997 702 983Q676 1029 610 1118Q554 1195 545 1204L285 1049L240 1130L475 1272L403
1354L231 1376V1434L483 1507L631 1358L854 1491L901 1409L692 1282Q1034 891 1034 555ZM836 514Q836 750 756 881Q659 907 600 907Q443 907 360 792Q283 684 283 498Q283 318 347 205Q420 74 559 74Q699 74 773 213Q836 331 836 514Z" />
<glyph unicode="&#xf1;" glyph-name="ntilde" horiz-adv-x="1182" d="M940 1423Q883 1198 702 1198Q651 1198 571 1247T420 1296Q380 1296 348 1266T311 1198H229Q286 1423 467 1423Q518 1423 600 1374T752 1325Q792 1325 822 1355T858 1423H940ZM1130 0H678V80L764
86Q807 89 807 131V662Q807 862 610 862Q503 862 385 803V131Q385 89 428 86L514 80V0H51V80L152 86Q195 89 195 131V854H51V922L301 999H385V885Q604 1010 723 1010Q997 1010 997 696V131Q997 89 1040 86L1130 80V0Z" />
<glyph unicode="&#xf2;" glyph-name="ograve" horiz-adv-x="1135" d="M682 1128H565L254 1327Q207 1357 207 1409Q207 1501 301 1501Q361 1501 408 1446L682 1128ZM1051 494Q1051 272 918 130Q782 -16 561 -16Q340 -16 206 128Q76 269 76 494Q76 719 207 862Q342
1010 565 1010Q788 1010 922 860Q1051 717 1051 494ZM838 496Q838 675 770 791Q695 918 563 918Q428 918 356 791Q291 677 291 496Q291 318 358 203Q432 76 563 76Q697 76 771 202Q838 316 838 496Z" />
<glyph unicode="&#xf3;" glyph-name="oacute" horiz-adv-x="1135" d="M932 1409Q932 1357 885 1327L573 1128H457L729 1446Q776 1501 838 1501Q932 1501 932 1409ZM1051 494Q1051 272 918 130Q782 -16 561 -16Q340 -16 206 128Q76 269 76 494Q76 719 207 862Q342
1010 565 1010Q788 1010 922 860Q1051 717 1051 494ZM838 496Q838 675 770 791Q695 918 563 918Q428 918 356 791Q291 677 291 496Q291 318 358 203Q432 76 563 76Q697 76 771 202Q838 316 838 496Z" />
<glyph unicode="&#xf4;" glyph-name="ocircumflex" horiz-adv-x="1135" d="M899 1128H776L565 1331L352 1128H229L487 1475H641L899 1128ZM1051 494Q1051 272 918 130Q782 -16 561 -16Q340 -16 206 128Q76 269 76 494Q76 718 208 862Q344 1010 567 1010Q790 1010
923 860Q1051 717 1051 494ZM838 496Q838 675 770 791Q695 918 563 918Q428 918 356 791Q291 677 291 496Q291 318 358 203Q432 76 563 76Q697 76 771 202Q838 316 838 496Z" />
<glyph unicode="&#xf5;" glyph-name="otilde" horiz-adv-x="1135" d="M930 1423Q873 1198 692 1198Q641 1198 561 1247T410 1296Q370 1296 338 1266T301 1198H219Q276 1423 457 1423Q508 1423 589 1374T741 1325Q781 1325 812 1355T848 1423H930ZM1051 494Q1051
272 918 130Q782 -16 561 -16Q340 -16 206 128Q76 269 76 494Q76 719 207 862Q342 1010 565 1010Q788 1010 922 860Q1051 717 1051 494ZM838 496Q838 675 770 791Q695 918 563 918Q428 918 356 791Q291 677 291 496Q291 318 358 203Q432 76 563 76Q697 76 771 202Q838
316 838 496Z" />
<glyph unicode="&#xf6;" glyph-name="odieresis" horiz-adv-x="1135" d="M893 1313Q893 1267 860 1233T780 1198Q734 1198 702 1232T670 1313Q670 1356 703 1390T780 1425Q826 1425 859 1392T893 1313ZM469 1313Q469 1267 436 1233T356 1198Q312 1198 279 1232T246
1311Q246 1356 279 1390T356 1425Q402 1425 435 1392T469 1313ZM1051 494Q1051 272 918 130Q782 -16 561 -16Q340 -16 206 128Q76 269 76 494Q76 719 207 862Q342 1010 565 1010Q788 1010 922 860Q1051 717 1051 494ZM838 496Q838 675 770 791Q695 918 563 918Q428
918 356 791Q291 677 291 496Q291 318 358 203Q432 76 563 76Q697 76 771 202Q838 316 838 496Z" />
<glyph unicode="&#xf7;" glyph-name="divide" horiz-adv-x="1706" d="M977 967Q977 915 941 880T854 844Q803 844 766 879T729 967Q729 1018 766 1054T854 1090Q905 1090 941 1054T977 967ZM1452 553H254V670H1452V553ZM977 256Q977 206 941 171T854 135Q803 135
766 170T729 256Q729 308 766 344T854 381Q905 381 941 345T977 256Z" />
<glyph unicode="&#xf8;" glyph-name="oslash" horiz-adv-x="1122" d="M1051 498Q1051 280 921 135Q786 -16 567 -16Q423 -16 332 37L215 -168L143 -125L262 82Q76 236 76 494Q76 717 208 861Q344 1010 565 1010Q682 1010 768 967L872 1149L946 1108L842 926Q1051
772 1051 498ZM711 864Q652 915 561 915Q427 915 353 791Q287 679 287 500Q287 322 342 223L711 864ZM838 492Q838 686 768 795L393 145Q458 76 561 76Q698 76 772 201Q838 313 838 492Z" />
<glyph unicode="&#xf9;" glyph-name="ugrave" horiz-adv-x="1165" d="M729 1128H612L301 1327Q254 1357 254 1409Q254 1501 348 1501Q410 1501 457 1446L729 1128ZM1122 0H799V117Q625 -16 469 -16Q186 -16 186 307V862H43V932L295 1010H379V346Q379 123 575 123Q693
123 799 176V862H655V932L905 1010H987V131Q987 89 1032 86L1122 80V0Z" />
<glyph unicode="&#xfa;" glyph-name="uacute" horiz-adv-x="1165" d="M942 1409Q942 1356 897 1327L586 1128H469L741 1446Q788 1501 850 1501Q942 1501 942 1409ZM1122 0H799V117Q625 -16 469 -16Q186 -16 186 307V862H43V932L295 1010H379V346Q379 123 575 123Q693
123 799 176V862H655V932L905 1010H987V131Q987 89 1032 86L1122 80V0Z" />
<glyph unicode="&#xfb;" glyph-name="ucircumflex" horiz-adv-x="1165" d="M899 1128H776L565 1331L352 1128H229L487 1475H641L899 1128ZM1122 0H799V117Q625 -16 469 -16Q186 -16 186 307V862H43V932L295 1010H379V346Q379 123 575 123Q693 123 799 176V862H655V932L905
1010H987V131Q987 89 1032 86L1122 80V0Z" />
<glyph unicode="&#xfc;" glyph-name="udieresis" horiz-adv-x="1165" d="M926 1313Q926 1267 893 1233T813 1198Q767 1198 735 1232T702 1313Q702 1356 736 1390T813 1425Q859 1425 892 1392T926 1313ZM502 1313Q502 1267 468 1233T387 1198Q343 1198 311 1232T279
1311Q279 1356 312 1390T389 1425Q435 1425 468 1392T502 1313ZM1122 0H799V117Q625 -16 469 -16Q186 -16 186 307V862H43V932L295 1010H379V346Q379 123 575 123Q693 123 799 176V862H655V932L905 1010H987V131Q987 89 1032 86L1122 80V0Z" />
<glyph unicode="&#xfd;" glyph-name="yacute" horiz-adv-x="1085" d="M903 1409Q903 1359 854 1327L545 1128H428L700 1446Q747 1501 809 1501Q903 1501 903 1409ZM1065 909L958 897L565 -63Q476 -280 389 -367Q310 -446 211 -446Q142 -446 100 -410Q61 -377 61
-328Q61 -260 127 -205L319 -293Q412 -200 481 2L133 897L20 909V987H473V909L375 903Q342 901 342 870Q342 864 344 858L582 252L825 858Q831 873 823 887T797 903L700 909V987H1065V909Z" />
<glyph unicode="&#xfe;" glyph-name="thorn" horiz-adv-x="1149" d="M1087 528Q1087 284 947 140T567 -4Q497 -4 389 12V-315Q389 -354 432 -358L553 -369V-446H55V-369L156 -358Q199 -353 199 -315V1362H41V1430L307 1509H389V887Q556 1012 698 1012Q857 1012
968 886Q1087 750 1087 528ZM885 500Q885 665 808 766T594 868Q531 868 458 839Q423 823 389 807V121Q469 92 553 92Q712 92 803 216Q885 329 885 500Z" />
<glyph unicode="&#xff;" glyph-name="ydieresis" horiz-adv-x="1085" d="M899 1313Q899 1267 867 1233T788 1198Q742 1198 709 1232T676 1313Q676 1356 710 1390T788 1425Q834 1425 866 1392T899 1313ZM475 1313Q475 1267 442 1233T362 1198Q318 1198 285 1232T252
1311Q252 1356 285 1390T362 1425Q408 1425 441 1392T475 1313ZM1065 909L958 897L565 -63Q476 -280 389 -367Q310 -446 211 -446Q142 -446 100 -410Q61 -377 61 -328Q61 -260 127 -205L319 -293Q412 -200 481 2L133 897L20 909V987H473V909L375 903Q342 901 342
870Q342 864 344 858L582 252L825 858Q831 873 823 887T797 903L700 909V987H1065V909Z" />
<glyph unicode="&#x152;" glyph-name="OE" horiz-adv-x="2042" d="M1985 0H1126V242Q1072 134 971 64Q851 -18 696 -18Q422 -18 251 187Q86 386 86 686Q86 981 246 1179Q418 1393 705 1393Q1007 1393 1126 1139V1374H1913V1069H1792L1763 1237Q1756 1276 1726
1276H1319V766H1589Q1620 766 1624 801L1642 942H1747V485H1642L1624 627Q1619 664 1587 664H1319V100H1800Q1828 100 1835 139L1870 342H1985V0ZM1130 684Q1130 942 1025 1106Q915 1280 727 1280Q528 1280 420 1104Q322 944 322 688Q322 431 422 271Q531 96 725
96Q914 96 1024 265Q1130 426 1130 684Z" />
<glyph unicode="&#x153;" glyph-name="oe" horiz-adv-x="1696" d="M1616 592Q1616 553 1614 535H997Q997 360 1070 250Q1158 119 1331 119Q1469 119 1614 227V102Q1446 -18 1264 -18Q1036 -18 901 178Q753 -18 541 -18Q327 -18 198 133Q76 275 76 494Q76 715 199
859Q329 1010 545 1010Q678 1010 781 949Q870 897 913 817Q967 906 1059 958T1255 1010Q1429 1010 1525 893Q1616 782 1616 592ZM1409 627V672Q1409 777 1365 842Q1318 913 1235 913Q1140 913 1078 830Q1019 752 1008 627H1409ZM803 489Q803 675 741 789Q673 913
547 913Q421 913 351 788Q289 676 289 500Q289 319 353 203Q424 76 547 76Q671 76 740 200Q803 313 803 489Z" />
<glyph unicode="&#x160;" glyph-name="Scaron" horiz-adv-x="1145" d="M932 1835L674 1487H520L262 1835H385L598 1630L809 1835H932ZM1030 385Q1030 214 903 102Q757 -25 487 -25Q282 -25 123 43V406H252L279 166Q287 142 309 131Q398 90 520 90Q654 90 737 152T821
324Q821 436 678 530Q616 571 463 637Q323 697 254 760Q145 860 145 1006Q145 1185 280 1294Q411 1399 618 1399Q786 1399 981 1337V1018H862L831 1219Q824 1235 803 1249Q743 1288 627 1288Q501 1288 429 1225T356 1055Q356 892 641 784Q841 708 928 626Q1030
530 1030 385Z" />
<glyph unicode="&#x161;" glyph-name="scaron" horiz-adv-x="844" d="M776 1475L518 1128H365L109 1475H231L442 1272L653 1475H776ZM762 297Q762 147 659 65T371 -18Q199 -18 86 27V301H190Q192 291 215 125Q286 74 397 74Q481 74 533 121Q582 165 582 229Q582
304 520 354Q481 384 342 449Q217 507 163 561Q100 625 100 715Q100 853 197 932T469 1012Q627 1012 731 965V723H625L606 870Q549 915 453 915Q287 915 287 778Q287 711 335 667Q379 627 512 567Q635 511 691 457Q762 389 762 297Z" />
<glyph unicode="&#x178;" glyph-name="Ydieresis" horiz-adv-x="1280" d="M991 1665Q991 1619 958 1585T879 1550Q833 1550 801 1584T768 1665Q768 1708 802 1743T879 1778Q925 1778 958 1745T991 1665ZM565 1665Q565 1619 532 1585T453 1550Q409 1550 376 1584T342
1663Q342 1708 376 1743T455 1778Q501 1778 533 1745T565 1665ZM1260 1288L1149 1268L737 584V141Q737 99 780 96L911 88V0H360V88L487 96Q532 99 532 141V553L139 1264L20 1288V1374H506V1288L403 1278Q359 1274 379 1237L666 700L983 1231Q987 1238 987 1245Q987
1270 958 1274L844 1288V1374H1260V1288Z" />
<glyph unicode="&#x17d;" glyph-name="Zcaron" horiz-adv-x="1202" d="M981 1835L725 1487H569L313 1835H436L647 1630L858 1835H981ZM1110 0H92V90L854 1272H330Q295 1272 289 1239L256 1047H135V1374H1100V1280L336 104H913Q947 104 952 137L989 379H1110V0Z" />
<glyph unicode="&#x17e;" glyph-name="zcaron" horiz-adv-x="973" d="M827 1475L569 1128H416L158 1475H281L492 1272L705 1475H827ZM899 0H92V109L635 891H274Q246 891 240 850L217 696H113V987H870V903L309 98H725Q760 98 766 143L788 309H899V0Z" />
<glyph unicode="&#x192;" glyph-name="florin" horiz-adv-x="1153" d="M1053 1266Q1053 1182 952 1135L774 1292Q699 1254 669 1184Q633 1101 633 924V756H963V647H635V358Q635 -25 465 -199Q331 -336 168 -336Q95 -336 55 -301T14 -217Q14 -140 98 -84L307 -215Q446
-120 446 123V647H213V756H446Q446 1089 520 1196Q660 1399 872 1399Q958 1399 1009 1356Q1053 1318 1053 1266Z" />
<glyph unicode="&#x2c6;" glyph-name="circumflex" horiz-adv-x="670" d="M670 1128H547L336 1331L123 1128H0L258 1475H412L670 1128Z" />
<glyph unicode="&#x2c9;" glyph-name="macronmodifier" horiz-adv-x="616" d="M616 1198H0V1329H616V1198Z" />
<glyph unicode="&#x2dc;" glyph-name="tilde" horiz-adv-x="711" d="M711 1423Q654 1198 473 1198Q422 1198 340 1247T188 1296Q148 1296 118 1266T82 1198H0Q57 1423 238 1423Q289 1423 369 1374T520 1325Q560 1325 592 1355T629 1423H711Z" />
<glyph unicode="&#x307;" glyph-name="dotaccentcomb" horiz-adv-x="0" d="M245 1640Q245 1601 216 1572T146 1542Q107 1542 79 1571T50 1640Q50 1680 78 1708T146 1737Q186 1737 215 1709T245 1640Z" />
<glyph unicode="&#x308;" glyph-name="dieresisnosp" horiz-adv-x="0" d="M647 1313Q647 1266 615 1232T537 1198Q491 1198 458 1232T424 1313Q424 1356 459 1390T537 1425Q583 1425 615 1392T647 1313ZM223 1313Q223 1267 190 1233T111 1198Q67 1198 34 1232T0
1311Q0 1356 33 1390T111 1425Q157 1425 190 1392T223 1313Z" />
<glyph unicode="&#x323;" glyph-name="dotsubcomb" horiz-adv-x="0" d="M195 -727Q195 -766 166 -795T96 -825Q57 -825 29 -796T0 -727Q0 -687 28 -659T96 -630Q136 -630 165 -658T195 -727Z" />
<glyph unicode="&#x34f;" glyph-name="combininggrapehemejoiner" horiz-adv-x="0" />
<glyph unicode="&#x3bc;" glyph-name="mu" horiz-adv-x="1137" d="M1094 299Q1094 222 1042 125Q964 -20 821 -20Q738 -20 698 49Q665 106 668 193Q577 -23 387 -23Q292 -23 232 39Q176 98 166 195Q160 165 94 -256Q68 -418 -2 -418Q-86 -418 -86 -340Q-86 -295
-72 -244Q42 167 193 885H354L248 375Q238 327 238 287Q238 115 393 115Q584 115 635 352L750 885H913L791 307Q782 262 782 227Q782 117 870 117Q936 117 977 172Q997 199 1038 297Q1053 334 1071 334Q1094 334 1094 299Z" />
<glyph unicode="&#x591;" glyph-name="etnahta" horiz-adv-x="0" d="M540 -532L443 -598L273 -356L103 -598L7 -532L273 -154L540 -532Z" />
<glyph unicode="&#x592;" glyph-name="segolta" horiz-adv-x="0" d="M352 1950Q352 1913 325 1887T260 1860Q222 1860 195 1886T168 1950Q168 1988 195 2015T260 2042Q298 2042 325 2015T352 1950ZM520 1636Q520 1600 492 1573T426 1546Q388 1546 361 1572T334
1636Q334 1675 361 1702T426 1729Q464 1729 492 1702T520 1636ZM185 1638Q185 1600 158 1573T92 1546Q54 1546 27 1573T0 1638Q0 1676 27 1703T92 1731Q129 1731 157 1703T185 1638Z" />
<glyph unicode="&#x593;" glyph-name="shalshelet" horiz-adv-x="0" d="M344 1548H0L199 1714H0L199 1878H0L301 2132H344L143 1964H344L147 1798H344L147 1632H344V1548Z" />
<glyph unicode="&#x594;" glyph-name="zaqefkatan" horiz-adv-x="0" d="M284 1952Q284 1913 256 1886T190 1858Q152 1858 126 1885T100 1952Q100 1989 126 2015T190 2042Q228 2042 256 2016T284 1952ZM284 1638Q284 1600 257 1573T190 1546Q152 1546 126 1573T100
1638Q100 1676 126 1702T190 1729Q228 1729 256 1702T284 1638Z" />
<glyph unicode="&#x595;" glyph-name="zaqefgadol" horiz-adv-x="0" d="M397 1952Q397 1913 370 1886T303 1858Q266 1858 240 1885T213 1952Q213 1989 239 2015T303 2042Q342 2042 369 2016T397 1952ZM397 1638Q397 1600 370 1573T303 1546Q266 1546 240 1573T213
1638Q213 1675 239 1702T303 1729Q342 1729 369 1702T397 1638ZM117 1546H0V2042H117V1546Z" />
<glyph unicode="&#x596;" glyph-name="tipeha" horiz-adv-x="0" d="M320 -623L216 -672L-3 -203L101 -154L320 -623Z" />
<glyph unicode="&#x597;" glyph-name="revia" horiz-adv-x="0" d="M363 1866L181 1684L2 1866L181 2050L363 1866Z" />
<glyph unicode="&#x598;" glyph-name="zarqa" horiz-adv-x="0" d="M451 1546H336V1769Q336 1814 304 1846T228 1878Q182 1878 150 1846T117 1769H0Q0 1863 66 1929T226 1995Q318 1995 384 1929T451 1769V1546Z" />
<glyph unicode="&#x599;" glyph-name="pashta" horiz-adv-x="0" d="M325 1593L219 1544L0 2015L106 2062L325 1593Z" />
<glyph unicode="&#x59a;" glyph-name="yetiv" horiz-adv-x="2" d="M1436 -590L1368 -684L990 -420L1368 -154L1436 -248L1192 -420L1436 -590Z" />
<glyph unicode="&#x59b;" glyph-name="tevir" horiz-adv-x="0" d="M445 -203L225 -672L119 -623L338 -154L445 -203ZM184 -244Q184 -282 157 -310T90 -338Q53 -338 27 -310T0 -244Q0 -207 26 -181T90 -154Q129 -154 156 -180T184 -244Z" />
<glyph unicode="&#x59c;" glyph-name="gereshac" horiz-adv-x="0" d="M323 2015L104 1544L0 1593L219 2062L323 2015Z" />
<glyph unicode="&#x59d;" glyph-name="gereshmuqdam" horiz-adv-x="2" d="M871 2015L652 1544L548 1593L767 2062L871 2015Z" />
<glyph unicode="&#x59e;" glyph-name="gershayimac" horiz-adv-x="0" d="M598 2015L379 1544L273 1593L492 2062L598 2015ZM328 2015L111 1544L5 1593L224 2062L328 2015Z" />
<glyph unicode="&#x59f;" glyph-name="qarneyparah" horiz-adv-x="0" d="M421 1976Q421 1898 369 1843L519 1694L669 1843Q619 1899 619 1976Q619 2061 678 2121T824 2181Q909 2181 970 2121T1031 1976Q1031 1891 970 1830T824 1769Q750 1769 689 1821L519 1651L349
1821Q288 1769 214 1769Q128 1769 68 1829T7 1976Q7 2061 67 2121T214 2181Q299 2181 360 2121T421 1976ZM1000 1976Q1000 2049 948 2100T824 2152Q752 2152 700 2101T648 1976Q648 1904 700 1852T824 1800Q896 1800 948 1852T1000 1976ZM390 1976Q390 2049 338
2100T214 2152Q140 2152 89 2101T38 1976Q38 1904 89 1852T214 1800Q286 1800 338 1852T390 1976Z" />
<glyph unicode="&#x5a0;" glyph-name="telishagedola" horiz-adv-x="0" d="M171 1774L110 1542L79 1550L141 1782Q81 1804 43 1857T5 1976Q5 2061 65 2121T212 2181Q297 2181 357 2121T417 1976Q417 1890 357 1830T212 1769Q196 1769 171 1774ZM386 1976Q386 2049
335 2100T212 2152Q140 2152 88 2101T36 1976Q36 1904 88 1852T212 1800Q284 1800 335 1852T386 1976Z" />
<glyph unicode="&#x5a1;" glyph-name="pazer" horiz-adv-x="0" d="M452 1743H118V1548H3V2042H118V1860H452V1743Z" />
<glyph unicode="&#x5a2;" glyph-name="etnahtahafukh" horiz-adv-x="0" d="M533 -219L266 -600L0 -219L96 -154L266 -397L436 -154L533 -219Z" />
<glyph unicode="&#x5a3;" glyph-name="munah" horiz-adv-x="0" d="M503 -657H0V-526H374V-154H503V-657Z" />
<glyph unicode="&#x5a4;" glyph-name="mahapakh" horiz-adv-x="0" d="M446 -590L378 -684L0 -420L378 -154L446 -248L202 -420L446 -590Z" />
<glyph unicode="&#x5a5;" glyph-name="merkha" horiz-adv-x="0" d="M326 -203L106 -672L0 -623L219 -154L326 -203Z" />
<glyph unicode="&#x5a6;" glyph-name="merkhakefula" horiz-adv-x="0" d="M594 -203L375 -672L269 -623L488 -154L594 -203ZM326 -203L107 -672L0 -623L219 -154L326 -203Z" />
<glyph unicode="&#x5a7;" glyph-name="darga" horiz-adv-x="0" d="M457 -604Q457 -683 397 -743T256 -803H10V-686H262Q297 -686 320 -663Q340 -644 340 -621Q340 -560 252 -543Q103 -515 88 -508Q0 -468 0 -350Q0 -273 60 -214T199 -154H442V-268H192Q157 -268
135 -291Q117 -311 117 -336Q117 -397 205 -414Q355 -441 368 -447Q457 -487 457 -604Z" />
<glyph unicode="&#x5a8;" glyph-name="qadma" horiz-adv-x="0" d="M325 1593L219 1544L0 2015L106 2062L325 1593Z" />
<glyph unicode="&#x5a9;" glyph-name="telishaqetana" horiz-adv-x="0" d="M342 1550L311 1542L250 1774Q225 1769 213 1769Q128 1769 68 1829T8 1976Q8 2061 68 2121T213 2181Q299 2181 359 2121T420 1976Q420 1910 381 1856T280 1782L342 1550ZM389 1976Q389
2049 337 2100T213 2152Q141 2152 90 2101T39 1976Q39 1904 90 1852T213 1800Q285 1800 337 1852T389 1976Z" />
<glyph unicode="&#x5aa;" glyph-name="yerahbenyomo" horiz-adv-x="0" d="M533 -219L266 -600L0 -219L96 -154L266 -397L436 -154L533 -219Z" />
<glyph unicode="&#x5ab;" glyph-name="ole" horiz-adv-x="0" d="M447 1659L379 1563L0 1829L379 2095L447 1999L203 1829L447 1659Z" />
<glyph unicode="&#x5ac;" glyph-name="iluy" horiz-adv-x="0" d="M498 1544H-4V1673H369V2048H498V1544Z" />
<glyph unicode="&#x5ad;" glyph-name="dehi" horiz-adv-x="2" d="M1303 -623L1199 -672L980 -203L1084 -154L1303 -623Z" />
<glyph unicode="&#x5ae;" glyph-name="zinor" horiz-adv-x="0" d="M451 1546H336V1769Q336 1814 304 1846T228 1878Q182 1878 150 1846T117 1769H0Q0 1863 66 1929T226 1995Q318 1995 384 1929T451 1769V1546Z" />
<glyph unicode="&#x5af;" glyph-name="masoracircle" horiz-adv-x="0" d="M213 2046Q300 2046 363 1984T426 1833Q426 1745 363 1683T213 1620Q124 1620 62 1682T0 1833Q0 1921 62 1983T213 2046ZM213 1987Q148 1987 104 1942T59 1833Q59 1770 103 1725T213 1679Q275
1679 319 1724T364 1833Q364 1896 320 1941T213 1987Z" />
<glyph unicode="&#x5b0;" glyph-name="sheva" horiz-adv-x="0" d="M187 -244Q187 -282 159 -310T92 -338Q54 -338 27 -310T0 -244Q0 -207 27 -181T92 -154Q130 -154 158 -180T187 -244ZM187 -557Q187 -594 158 -621T92 -649Q54 -649 27 -622T0 -557Q0 -519 27
-493T92 -467Q130 -467 158 -493T187 -557Z" />
<glyph unicode="&#x5b1;" glyph-name="hatafsegol" horiz-adv-x="0" d="M854 -244Q854 -282 827 -310T762 -338Q724 -338 697 -310T670 -244Q670 -207 697 -181T762 -154Q799 -154 826 -180T854 -244ZM854 -557Q854 -594 827 -621T762 -649Q724 -649 697 -622T670
-557Q670 -519 696 -493T762 -467Q799 -467 826 -493T854 -557ZM520 -246Q520 -282 492 -310T426 -338Q388 -338 362 -311T336 -246Q336 -207 362 -181T426 -154Q463 -154 491 -181T520 -246ZM184 -246Q184 -283 156 -310T90 -338Q54 -338 27 -311T0 -246Q0 -208
26 -181T90 -154Q129 -154 156 -181T184 -246ZM352 -557Q352 -594 324 -621T258 -649Q221 -649 195 -622T168 -557Q168 -519 194 -493T258 -467Q297 -467 324 -493T352 -557Z" />
<glyph unicode="&#x5b2;" glyph-name="hatafpatah" horiz-adv-x="0" d="M743 -244Q743 -282 716 -310T651 -338Q613 -338 587 -311T561 -244Q561 -206 587 -180T651 -154Q688 -154 715 -180T743 -244ZM743 -557Q743 -594 716 -621T651 -649Q613 -649 587 -622T561
-557Q561 -519 587 -493T651 -467Q688 -467 715 -493T743 -557ZM448 -268H0V-154H448V-268Z" />
<glyph unicode="&#x5b3;" glyph-name="hatafqamats" horiz-adv-x="0" d="M743 -244Q743 -282 716 -310T651 -338Q613 -338 587 -311T561 -244Q561 -206 587 -180T651 -154Q688 -154 715 -180T743 -244ZM743 -557Q743 -594 716 -621T651 -649Q613 -649 587 -622T561
-557Q561 -519 587 -493T651 -467Q688 -467 715 -493T743 -557ZM317 -553Q317 -593 289 -621T221 -649Q180 -649 152 -621T123 -553Q123 -514 213 -268H0V-154H448V-268H227Q317 -514 317 -553Z" />
<glyph unicode="&#x5b4;" glyph-name="hiriq" horiz-adv-x="0" d="M187 -244Q187 -282 159 -310T92 -338Q54 -338 27 -310T0 -244Q0 -207 27 -181T92 -154Q130 -154 158 -180T187 -244Z" />
<glyph unicode="&#x5b5;" glyph-name="tsere" horiz-adv-x="0" d="M518 -246Q518 -283 490 -310T424 -338Q387 -338 361 -311T334 -246Q334 -208 360 -181T424 -154Q462 -154 490 -181T518 -246ZM182 -246Q182 -283 155 -310T90 -338Q52 -338 26 -311T0 -246Q0
-207 26 -181T90 -154Q128 -154 155 -180T182 -246Z" />
<glyph unicode="&#x5b6;" glyph-name="segol" horiz-adv-x="0" d="M518 -246Q518 -283 490 -310T424 -338Q387 -338 361 -311T334 -246Q334 -208 360 -181T424 -154Q462 -154 490 -181T518 -246ZM182 -246Q182 -283 155 -310T90 -338Q52 -338 26 -311T0 -246Q0
-207 26 -181T90 -154Q128 -154 155 -180T182 -246ZM350 -557Q350 -594 323 -621T258 -649Q221 -649 195 -622T168 -557Q168 -519 194 -493T258 -467Q297 -467 323 -493T350 -557Z" />
<glyph unicode="&#x5b7;" glyph-name="patah" horiz-adv-x="0" d="M449 -268H0V-154H449V-268Z" />
<glyph unicode="&#x5b8;" glyph-name="qamats" horiz-adv-x="0" d="M318 -553Q318 -593 289 -621T219 -649Q180 -649 152 -621T123 -553Q123 -494 213 -268H0V-154H449V-268H228Q318 -514 318 -553Z" />
<glyph unicode="&#x5b9;" glyph-name="holam" horiz-adv-x="0" d="M195 1640Q195 1601 166 1572T96 1542Q57 1542 29 1571T0 1640Q0 1680 28 1708T96 1737Q136 1737 165 1709T195 1640Z" />
<glyph unicode="&#x5ba;" glyph-name="holamhaser" horiz-adv-x="0" d="M545 1640Q545 1601 516 1572T446 1542Q407 1542 379 1571T350 1640Q350 1680 378 1708T446 1737Q486 1737 515 1709T545 1640Z" />
<glyph unicode="&#x5bb;" glyph-name="qubuts" horiz-adv-x="0" d="M166 -233Q166 -267 141 -292T82 -317Q48 -317 24 -292T0 -233Q0 -200 24 -176T82 -152Q116 -152 141 -176T166 -233ZM358 -489Q358 -523 333 -548T274 -573Q241 -573 217 -548T192 -489Q192
-456 216 -432T274 -408Q308 -408 333 -432T358 -489ZM553 -745Q553 -779 528 -803T469 -827Q435 -827 411 -803T387 -745Q387 -712 411 -688T469 -664Q503 -664 528 -688T553 -745Z" />
<glyph unicode="&#x5bc;" glyph-name="dagesh" horiz-adv-x="0" d="M195 678Q195 638 166 610T96 582Q56 582 28 610T0 678Q0 718 28 746T96 774Q136 774 165 746T195 678Z" />
<glyph unicode="&#x5bd;" glyph-name="meteg" horiz-adv-x="0" d="M117 -649H0V-154H117V-649Z" />
<glyph unicode="&#x5be;" glyph-name="maqaf" horiz-adv-x="952" d="M862 1188H90V1354H862V1188Z" />
<glyph unicode="&#x5bf;" glyph-name="rafe" horiz-adv-x="0" d="M540 1546H125V1661H540V1546Z" />
<glyph unicode="&#x5c0;" glyph-name="paseq" horiz-adv-x="316" d="M219 0H102V1358H219V0Z" />
<glyph unicode="&#x5c1;" glyph-name="shindot" horiz-adv-x="2" d="M1320 1638Q1320 1601 1292 1574T1225 1546Q1187 1546 1160 1573T1133 1638Q1133 1675 1160 1702T1225 1729Q1263 1729 1291 1702T1320 1638Z" />
<glyph unicode="&#x5c2;" glyph-name="sindot" horiz-adv-x="2" d="M380 1638Q380 1601 352 1574T285 1546Q247 1546 220 1573T193 1638Q193 1675 220 1702T285 1729Q323 1729 351 1702T380 1638Z" />
<glyph unicode="&#x5c3;" glyph-name="sofpasuq" horiz-adv-x="813" d="M483 166Q363 93 295 -25Q227 93 106 166Q227 236 295 356Q363 236 483 166ZM483 846Q363 776 295 655Q227 776 106 846Q224 914 295 1036Q366 914 483 846Z" />
<glyph unicode="&#x5c4;" glyph-name="upperdot" horiz-adv-x="0" d="M379 1631Q283 1572 229 1478Q175 1572 78 1631Q175 1687 229 1783Q283 1687 379 1631Z" />
<glyph unicode="&#x5c5;" glyph-name="lowerdot" horiz-adv-x="0" d="M379 -389Q283 -448 229 -542Q175 -448 78 -389Q175 -333 229 -237Q283 -333 379 -389Z" />
<glyph unicode="&#x5c6;" glyph-name="invertednun" horiz-adv-x="646" d="M526 1018H358Q240 884 244 754L256 340H526V0H127V715Q127 878 246 1018Q173 1021 145 1075Q119 1125 119 1243Q119 1444 176 1444Q188 1444 205 1401T276 1358H526V1018Z" />
<glyph unicode="&#x5c7;" glyph-name="qamatsqatan" horiz-adv-x="0" d="M0 -154H449V-268H228Q318 -690 318 -729Q318 -769 289 -797T219 -825Q180 -825 152 -797T123 -729Q123 -670 213 -268H0V-154Z" />
<glyph unicode="&#x5d0;" glyph-name="alef" horiz-adv-x="1221" d="M1143 213Q1143 117 1078 36Q1023 -33 987 -33Q969 -33 969 -4Q969 0 982 20T995 55Q995 104 929 179Q927 181 827 281L326 782Q270 699 270 635Q270 548 393 401T516 166Q516 95 462 48T330
0H63L74 51Q205 68 205 139Q205 174 146 285T86 465Q86 622 276 831L227 881Q137 971 106 1029Q70 1099 70 1198Q70 1294 133 1375Q187 1444 223 1444Q242 1444 242 1415Q242 1412 229 1392T215 1358Q215 1308 281 1234Q332 1183 383 1133L682 834L825 1014Q751
1070 726 1119Q709 1154 709 1210Q709 1307 780 1382Q837 1444 877 1444Q895 1444 895 1425Q895 1421 890 1416T885 1397Q885 1348 993 1270Q1122 1176 1122 1032Q1122 932 1078 878Q1044 836 1004 836Q982 836 964 870Q934 925 881 971L731 784L983 530Q1073 439
1105 382Q1143 312 1143 213Z" />
<glyph unicode="&#x5d1;" glyph-name="bet" horiz-adv-x="1362" d="M1307 340L1128 0H29L193 340H1069L1053 907Q1049 1018 881 1018H256Q177 1018 147 1072Q119 1122 119 1243Q119 1444 176 1444Q188 1444 205 1401T276 1358H862Q1143 1358 1143 1061V340H1307Z" />
<glyph unicode="&#x5d2;" glyph-name="gimel" horiz-adv-x="741" d="M686 248Q686 0 657 0Q637 0 635 27Q630 74 572 259Q518 428 518 543Q518 607 529 745T541 907Q541 1018 356 1018H256Q177 1018 147 1072Q119 1122 119 1243Q119 1444 176 1444Q188 1444 205
1401T276 1358H338Q616 1358 616 1061Q616 1010 606 958T596 823Q596 764 641 557T686 248ZM545 340L432 0H55L141 340H545Z" />
<glyph unicode="&#x5d3;" glyph-name="dalet" horiz-adv-x="1380" d="M1280 1188Q1280 1116 1243 1069T1155 1018L1194 164Q1195 142 1139 71T1067 0Q1040 0 1040 43Q1040 155 1077 1018H244Q165 1018 134 1072Q106 1122 106 1243Q106 1444 164 1444Q174 1444
192 1401T264 1358H1145Q1204 1358 1242 1311T1280 1188Z" />
<glyph unicode="&#x5d4;" glyph-name="he" horiz-adv-x="1380" d="M1280 1188Q1280 1113 1241 1066T1149 1018H1141L1194 164Q1195 142 1139 71T1067 0Q1040 0 1040 43Q1040 219 1061 1018H244Q165 1018 134 1072Q106 1122 106 1243Q106 1444 164 1444Q174 1444
192 1401T264 1358H1145Q1204 1358 1242 1311T1280 1188ZM330 319Q330 118 299 86Q278 64 230 34Q177 0 156 0Q117 0 117 41Q117 66 132 93T165 148Q188 202 188 311Q188 346 185 407T182 524Q182 589 223 660Q262 727 289 727Q315 727 315 709Q315 701 306 671T297
602Q297 572 313 493T330 319Z" />
<glyph unicode="&#x5d5;" glyph-name="vav" horiz-adv-x="690" d="M567 164Q567 141 511 71T438 0Q414 0 414 43Q414 70 448 437T483 901Q483 1018 356 1018H219Q140 1018 110 1072Q82 1122 82 1243Q82 1444 137 1444Q149 1444 167 1401T238 1358H365Q565 1358
565 1061L567 164Z" />
<glyph unicode="&#x5d6;" glyph-name="zayin" horiz-adv-x="707" d="M637 1157Q637 1071 599 998Q565 934 539 934Q526 934 526 950Q526 954 528 956T530 969Q530 1001 389 1018Q340 930 340 885Q340 857 386 633T432 379Q432 266 388 130Q345 0 315 0Q293 0 293
23Q293 21 309 72T326 160Q326 181 281 402T236 659Q236 844 330 1024L295 1026Q173 1033 133 1074T92 1235Q92 1299 125 1371T190 1444Q211 1444 211 1423Q211 1417 208 1412T205 1401Q205 1373 403 1358Q637 1340 637 1157Z" />
<glyph unicode="&#x5d7;" glyph-name="het" horiz-adv-x="1380" d="M1280 1188Q1280 1113 1241 1066T1149 1018H1141L1194 164Q1195 142 1139 71T1067 0Q1040 0 1040 43Q1040 219 1061 1018H344Q268 947 268 799Q268 788 299 603T330 319Q330 118 299 86Q278 64
230 34Q177 0 156 0Q117 0 117 41Q117 66 131 94Q164 160 164 326Q164 359 159 493T154 684Q154 895 260 1018H244Q165 1018 134 1072Q106 1122 106 1243Q106 1444 164 1444Q174 1444 192 1401T264 1358H1145Q1204 1358 1242 1311T1280 1188Z" />
<glyph unicode="&#x5d8;" glyph-name="tet" horiz-adv-x="1356" d="M1253 719Q1253 569 1104 0H166Q168 138 144 329Q119 527 119 645Q119 845 240 1026Q163 1059 137 1108Q115 1148 115 1235Q115 1325 159 1392Q194 1444 215 1444Q236 1444 236 1423Q236 1417
233 1412T229 1401Q229 1388 276 1373Q362 1343 408 1323Q477 1292 499 1258T522 1145Q522 1063 477 979Q439 909 424 909Q412 909 412 926Q412 929 414 931T416 942Q416 956 299 999Q211 847 211 741Q211 654 249 521Q290 376 293 340H1098Q1174 571 1174 668Q1174
840 1085 935Q1006 1020 887 1020Q777 1020 722 933Q678 865 678 764Q678 749 681 719T684 680Q684 662 671 644T643 625Q586 625 586 766Q586 829 628 961Q676 1111 686 1196Q689 1217 689 1240Q689 1265 685 1301T681 1349Q681 1372 690 1382Q697 1389 729 1389Q806
1389 902 1358Q1023 1320 1092 1253Q1192 1155 1228 1046Q1255 967 1255 842Q1255 822 1254 782T1253 719Z" />
<glyph unicode="&#x5d9;" glyph-name="yod" horiz-adv-x="691" d="M580 1061Q580 914 560 799Q539 678 508 678Q480 678 475 693Q475 694 475 725Q475 731 485 793T496 901Q496 1018 330 1018H231Q152 1018 121 1072Q92 1122 92 1243Q92 1444 152 1444Q162 1444
180 1401T252 1358H311Q578 1358 580 1061Z" />
<glyph unicode="&#x5da;" glyph-name="finalkaf" horiz-adv-x="1380" d="M1280 1188Q1280 1116 1243 1069T1155 1018L1194 -494Q1195 -515 1139 -585T1067 -655Q1040 -655 1040 -612Q1040 -560 1055 126Q1071 864 1077 1018H244Q165 1018 134 1072Q106 1122 106
1243Q106 1444 164 1444Q174 1444 192 1401T264 1358H1145Q1204 1358 1242 1311T1280 1188Z" />
<glyph unicode="&#x5db;" glyph-name="kaf" horiz-adv-x="1262" d="M1198 678Q1198 286 1030 134Q882 0 530 0H29L193 340H772Q943 340 1037 424Q1135 512 1135 678Q1135 1018 772 1018H256Q177 1018 147 1072Q119 1122 119 1243Q119 1444 176 1444Q188 1444 205
1401T276 1358H735Q981 1358 1087 1208Q1198 1052 1198 678Z" />
<glyph unicode="&#x5dc;" glyph-name="lamed" horiz-adv-x="1343" d="M1225 782Q1225 560 1006 401Q863 298 785 183Q745 109 705 35Q674 -20 621 -20Q584 -20 557 7Q526 37 526 84Q526 153 593 233Q677 335 834 401Q1033 487 1097 577Q1139 636 1139 745Q1139
864 1085 938Q1029 1016 936 1016H303Q176 1016 131 1066Q92 1110 92 1225V1546Q92 1663 133 1746Q159 1800 209 1848Q250 1887 250 1896Q250 1931 171 1954T92 2019Q92 2077 126 2129Q155 2173 170 2173Q186 2173 186 2163Q186 2161 184 2155T182 2146Q182 2137
226 2122Q282 2103 308 2082Q352 2047 352 1991Q352 1961 327 1924Q293 1875 279 1833Q254 1756 254 1626V1444Q254 1396 267 1379Q284 1358 336 1358H1008Q1160 1358 1180 1231L1217 997Q1225 945 1225 782Z" />
<glyph unicode="&#x5dd;" glyph-name="finalmem" horiz-adv-x="1350" d="M358 1018Q240 884 244 754L256 340H1133L1116 907Q1114 976 1077 999Q1047 1018 971 1018H358ZM1231 0H127V715Q127 878 246 1018Q173 1021 145 1075Q119 1125 119 1243Q119 1444 176 1444Q188
1444 205 1401T276 1358H952Q1231 1358 1231 1061V0Z" />
<glyph unicode="&#x5de;" glyph-name="mem" horiz-adv-x="1329" d="M1229 719Q1229 510 1104 0H449L524 340H1098Q1135 483 1135 641Q1135 807 1012 913T694 1020Q526 1020 397 900T268 633Q268 537 286 458T305 319Q305 122 272 86Q194 0 156 0Q117 0 117 41Q117
66 131 94Q164 160 164 326Q164 358 159 448T154 596Q154 780 287 913Q304 931 356 971L279 997Q248 1012 211 1028Q160 1060 144 1106Q131 1144 131 1235Q131 1324 194 1392Q242 1444 268 1444Q287 1444 287 1423Q287 1417 285 1412T283 1401Q283 1376 420 1329Q491
1305 516 1268T541 1145Q541 1102 528 1065Q575 1078 621 1091Q686 1113 686 1147Q686 1191 673 1260T659 1352Q659 1418 722 1418Q795 1418 901 1374Q1020 1324 1087 1251Q1230 1098 1230 804Q1230 786 1229 757Q1229 729 1229 719Z" />
<glyph unicode="&#x5df;" glyph-name="finalnun" horiz-adv-x="752" d="M567 1106Q567 1045 495 900Q425 759 430 664L489 -494Q491 -515 435 -585T362 -655Q338 -655 338 -612V645Q338 761 380 844T422 942Q422 970 360 987Q302 999 244 1012Q160 1033 132 1089Q113
1129 113 1221Q113 1312 149 1379Q178 1432 197 1432Q215 1432 215 1411Q215 1405 213 1399T211 1389Q211 1376 294 1359Q413 1334 465 1317Q529 1295 552 1235Q567 1192 567 1106Z" />
<glyph unicode="&#x5e0;" glyph-name="nun" horiz-adv-x="717" d="M662 272Q662 148 621 0H55L117 340H524Q518 538 518 633Q518 696 529 790T541 907Q541 1018 356 1018H256Q177 1018 147 1072Q119 1122 119 1243Q119 1444 176 1444Q188 1444 205 1401T276 1358H338Q616
1358 616 1061Q616 1010 604 945T592 797Q592 734 627 545T662 272Z" />
<glyph unicode="&#x5e1;" glyph-name="samekh" horiz-adv-x="1274" d="M373 1018Q283 944 238 833Q207 754 207 690Q207 536 300 430Q397 319 543 319H752Q914 319 1024 423T1135 678Q1135 854 1061 931Q978 1018 772 1018H373ZM1198 678Q1198 366 1071 183Q926
-27 637 -27Q382 -27 255 145Q141 297 141 563Q141 866 293 1018H244Q165 1018 134 1072Q106 1122 106 1243Q106 1444 164 1444Q174 1444 192 1401T264 1358H735Q963 1358 1082 1180Q1198 1006 1198 678Z" />
<glyph unicode="&#x5e2;" glyph-name="ayin" horiz-adv-x="1213" d="M1150 1133Q1150 1067 1109 969Q1046 818 1023 741Q994 644 979 500Q964 363 951 326Q916 224 866 182Q792 120 611 90L68 0L118 348L406 395Q418 416 418 441Q418 490 336 637T254 877Q254
948 294 1012Q211 1034 184 1090Q165 1130 165 1221Q165 1313 201 1379Q229 1432 249 1432Q267 1432 267 1411Q267 1405 265 1399T263 1389Q263 1375 321 1359Q441 1325 466 1317Q534 1294 559 1254Q580 1219 580 1145Q580 1063 547 987Q520 924 507 924Q484 924
484 938V956Q484 966 443 974Q395 983 347 991Q332 961 332 927Q332 866 417 733T502 520Q502 465 472 412L625 430Q761 446 809 478Q854 508 888 598L951 768Q974 831 1003 879Q1025 917 1025 920Q1025 943 971 964Q902 987 832 1010T737 1082Q714 1126 714 1221Q714
1312 757 1379Q791 1432 812 1432Q830 1432 830 1411Q830 1405 828 1399T826 1389Q826 1363 963 1317Q1150 1254 1150 1133Z" />
<glyph unicode="&#x5e3;" glyph-name="finalpe" horiz-adv-x="1312" d="M1182 -494Q1182 -515 1125 -585T1053 -655Q1028 -655 1028 -612Q1028 -585 1063 110T1098 901Q1098 1018 920 1018H328Q233 930 233 881Q233 845 269 836Q284 831 334 831Q353 831 407 834T516
838Q565 838 604 801Q649 760 649 694Q649 629 603 589Q564 555 516 555H244Q189 555 158 512T119 469Q102 469 102 489Q102 500 115 558T129 670Q129 690 123 736T117 813Q117 917 252 1018Q175 1019 145 1074Q119 1123 119 1243Q119 1444 176 1444Q188 1444 205
1401T276 1358H901Q1179 1358 1180 1061L1182 -494Z" />
<glyph unicode="&#x5e4;" glyph-name="pe" horiz-adv-x="1262" d="M649 694Q649 629 603 589Q564 555 516 555H244Q189 555 158 512T119 469Q102 469 102 489Q102 500 115 558T129 670Q129 690 123 736T117 813Q117 917 252 1018Q175 1019 145 1074Q119 1123 119
1243Q119 1444 176 1444Q188 1444 205 1401T276 1358H739Q997 1358 1096 1202Q1188 1057 1188 690V313L1077 0H53L141 340H1110V612Q1110 841 1049 915Q963 1018 676 1018H328Q233 930 233 881Q233 845 269 836Q284 831 334 831Q353 831 407 834T516 838Q565 838
604 801Q649 760 649 694Z" />
<glyph unicode="&#x5e5;" glyph-name="finaltsadi" horiz-adv-x="1210" d="M563 1106Q563 1045 491 900Q421 759 426 664L438 416Q505 574 621 746Q727 903 821 997Q740 1043 712 1074Q680 1107 680 1152Q680 1183 696 1243Q720 1332 769 1398Q809 1452 825 1450Q846
1447 842 1425Q839 1420 834 1405Q830 1386 1010 1290Q1101 1242 1101 1159Q1101 1135 1096 1102Q1083 1020 1036 932Q995 856 983 858Q962 862 965 874Q965 876 967 893Q969 910 895 956Q780 841 648 620Q502 375 451 180L494 -643Q495 -664 435 -734T358 -805Q341
-805 336 -791Q334 -783 334 -764V645Q334 761 376 844T418 942Q418 970 356 987Q298 999 240 1012Q156 1033 128 1089Q109 1129 109 1221Q109 1312 145 1379Q174 1432 193 1432Q213 1432 213 1411Q213 1405 210 1399T207 1389Q207 1376 290 1359Q409 1334 461
1317Q525 1295 547 1235Q563 1192 563 1106Z" />
<glyph unicode="&#x5e6;" glyph-name="tsadi" horiz-adv-x="1313" d="M1210 340Q1210 259 1157 125Q1129 63 1102 0H106L211 340H971Q988 340 988 349Q988 359 971 369L588 586Q471 652 471 764V956Q471 1018 416 1018H256Q177 1018 147 1072Q119 1122 119 1243Q119
1444 176 1444Q187 1444 204 1401T276 1358H383Q549 1358 549 1153V956Q549 813 653 764L797 696L934 999Q819 1051 793 1086T766 1221Q766 1312 803 1379Q831 1432 850 1432Q868 1432 868 1411Q868 1405 866 1399T864 1389Q864 1375 922 1359Q1042 1325 1067 1317Q1135
1294 1160 1254Q1182 1219 1182 1145Q1182 1062 1149 968Q1120 887 1108 887Q1087 887 1087 899V918Q1087 934 987 979L854 668Q1092 561 1160 489Q1210 437 1210 340Z" />
<glyph unicode="&#x5e7;" glyph-name="qof" horiz-adv-x="1247" d="M1184 758Q1184 498 1098 391Q1028 303 795 221Q644 168 562 109Q521 79 480 29Q455 -2 426 -2Q383 -2 383 59Q383 166 441 236Q537 350 801 426Q996 482 1036 513Q1118 575 1118 745Q1118 875
1051 948Q988 1018 885 1018H256Q177 1018 147 1072Q119 1122 119 1243Q119 1444 176 1444Q188 1444 205 1401T276 1358H850Q1015 1358 1087 1257Q1184 1122 1184 758ZM307 756Q307 751 267 687T227 522Q227 334 264 65T301 -319Q301 -525 262 -665Q227 -795 182
-795Q119 -795 119 -705Q119 -701 126 -559T133 -262Q133 -195 121 116T109 459Q109 593 181 699Q243 791 293 791Q307 791 307 756Z" />
<glyph unicode="&#x5e8;" glyph-name="resh" horiz-adv-x="1381" d="M1221 164Q1221 141 1164 71T1092 0Q1067 0 1067 43Q1067 70 1101 437T1135 901Q1135 1018 956 1018H244Q165 1018 134 1072Q106 1122 106 1243Q106 1444 164 1444Q174 1444 192 1401T264 1358H940Q1218
1358 1219 1061L1221 164Z" />
<glyph unicode="&#x5e9;" glyph-name="shin" horiz-adv-x="1430" d="M1341 1145Q1341 992 1254 749Q1218 648 1083 334Q981 98 963 0H229Q223 123 150 365Q82 594 82 723Q82 887 147 1028Q96 1060 81 1106Q68 1144 68 1235Q68 1325 111 1392Q144 1444 166 1444Q184
1444 184 1423Q184 1417 181 1412T178 1401Q178 1376 317 1329Q391 1304 414 1262Q432 1228 432 1145Q432 1063 387 979Q349 909 334 909Q322 909 322 926Q322 929 324 931T326 942Q326 956 314 962T213 997Q207 999 197 1004Q150 895 150 793Q150 715 199 563Q246
419 293 340H314Q501 641 610 1022Q554 1053 536 1107Q522 1146 522 1235Q522 1325 565 1392Q599 1444 621 1444Q639 1444 639 1423Q639 1417 637 1412T635 1401Q635 1376 772 1329Q844 1305 867 1261Q887 1226 887 1145Q887 1063 841 979Q803 909 788 909Q776
909 776 926Q776 929 778 931T780 942Q780 955 767 962Q758 966 676 993Q560 598 409 340H941Q966 405 1120 671Q1239 876 1239 969Q1239 990 1213 996Q1130 1015 1102 1024Q1032 1047 1006 1095Q983 1139 983 1235Q983 1325 1026 1392Q1059 1444 1079 1444Q1100
1444 1100 1423Q1100 1417 1097 1412T1094 1401Q1094 1376 1233 1329Q1300 1306 1324 1258Q1341 1221 1341 1145Z" />
<glyph unicode="&#x5ea;" glyph-name="tav" horiz-adv-x="1348" d="M1245 164Q1247 141 1203 71T1143 0Q1118 0 1118 43Q1118 59 1120 470T1122 901Q1122 1018 932 1018H340Q248 845 248 694Q248 608 345 465T442 256Q442 135 396 65Q353 0 287 0H23L82 340H236Q205
374 177 466Q152 553 152 608Q152 726 177 811Q198 883 266 1018H244Q165 1018 134 1072Q106 1122 106 1243Q106 1444 164 1444Q174 1444 192 1401T264 1358H913Q1169 1358 1188 1061L1245 164Z" />
<glyph unicode="&#x5f0;" glyph-name="vavdbl" horiz-adv-x="1217" d="M800 164Q800 141 744 71T671 0Q647 0 647 43Q647 70 681 437T716 901Q716 1018 589 1018H452Q373 1018 343 1072Q315 1122 315 1243Q315 1444 370 1444Q382 1444 400 1401T471 1358H598Q798
1358 798 1061L800 164ZM1144 164Q1144 141 1088 71T1015 0Q991 0 991 43Q991 70 1025 437T1060 901Q1060 1018 933 1018H796Q717 1018 687 1072Q659 1122 659 1243Q659 1444 714 1444Q726 1444 744 1401T815 1358H942Q1142 1358 1142 1061L1144 164Z" />
<glyph unicode="&#x5f1;" glyph-name="vavyod" horiz-adv-x="1257" d="M580 1061Q580 914 560 799Q539 678 508 678Q480 678 475 693Q475 694 475 725Q475 731 485 793T496 901Q496 1018 330 1018H231Q152 1018 121 1072Q92 1122 92 1243Q92 1444 152 1444Q162
1444 180 1401T252 1358H311Q578 1358 580 1061ZM1182 164Q1182 141 1126 71T1053 0Q1029 0 1029 43Q1029 70 1063 437T1098 901Q1098 1018 971 1018H834Q755 1018 725 1072Q697 1122 697 1243Q697 1444 752 1444Q764 1444 782 1401T853 1358H980Q1180 1358 1180
1061L1182 164Z" />
<glyph unicode="&#x5f2;" glyph-name="yoddbl" horiz-adv-x="1257" d="M580 1061Q580 914 560 799Q539 678 508 678Q480 678 475 693Q475 694 475 725Q475 731 485 793T496 901Q496 1018 330 1018H231Q152 1018 121 1072Q92 1122 92 1243Q92 1444 152 1444Q162
1444 180 1401T252 1358H311Q578 1358 580 1061ZM1181 1061Q1181 914 1161 799Q1140 678 1109 678Q1081 678 1076 693Q1076 694 1076 725Q1076 731 1086 793T1097 901Q1097 1018 931 1018H832Q753 1018 722 1072Q693 1122 693 1243Q693 1444 753 1444Q763 1444
781 1401T853 1358H912Q1179 1358 1181 1061Z" />
<glyph unicode="&#x5f3;" glyph-name="geresh" horiz-adv-x="530" d="M530 1280Q530 1231 483 1188L141 874H0L260 1268Q322 1362 408 1362Q530 1362 530 1280Z" />
<glyph unicode="&#x5f4;" glyph-name="gershayim" horiz-adv-x="946" d="M946 1280Q946 1231 899 1188L557 874H416L676 1268Q738 1362 823 1362Q946 1362 946 1280ZM530 1280Q530 1231 483 1188L141 874H0L260 1268Q322 1362 408 1362Q530 1362 530 1280Z" />
<glyph unicode="&#x2000;" glyph-name="enquad" horiz-adv-x="1024" />
<glyph unicode="&#x2001;" glyph-name="emquad" horiz-adv-x="2048" />
<glyph unicode="&#x2002;" glyph-name="enspace" horiz-adv-x="1024" />
<glyph unicode="&#x2003;" glyph-name="emspace" horiz-adv-x="2048" />
<glyph unicode="&#x2004;" glyph-name="threeperemspace" horiz-adv-x="683" />
<glyph unicode="&#x2005;" glyph-name="fourperemspace" horiz-adv-x="512" />
<glyph unicode="&#x2006;" glyph-name="sixperemspace" horiz-adv-x="341" />
<glyph unicode="&#x2007;" glyph-name="figurespace" horiz-adv-x="1135" />
<glyph unicode="&#x2008;" glyph-name="punctuationspace" horiz-adv-x="592" />
<glyph unicode="&#x2009;" glyph-name="thinspace" horiz-adv-x="200" />
<glyph unicode="&#x200a;" glyph-name="hairspace" horiz-adv-x="100" />
<glyph unicode="&#x200b;" glyph-name="zerowidthspace" horiz-adv-x="0" />
<glyph unicode="&#x200c;" glyph-name="zeronojoin" horiz-adv-x="0" d="M294 1019L278 995Q189 1056 78 1067L226 919L194 887L11 1070H-13L-193 890L-225 922L-80 1067Q-191 1057 -278 997L-294 1019Q-181 1124 -60 1141L-223 1304L-191 1336L-1 1146L192 1339L224
1307L58 1141Q180 1124 294 1019ZM32 932Q32 900 0 900Q-32 900 -32 932Q-32 964 0 964Q32 964 32 932ZM32 782Q32 750 0 750Q-32 750 -32 782Q-32 814 0 814Q32 814 32 782ZM32 632Q32 600 0 600Q-32 600 -32 632Q-32 664 0 664Q32 664 32 632ZM32 482Q32 450
0 450Q-32 450 -32 482Q-32 514 0 514Q32 514 32 482ZM32 332Q32 300 0 300Q-32 300 -32 332Q-32 364 0 364Q32 364 32 332ZM32 182Q32 150 0 150Q-32 150 -32 182Q-32 214 0 214Q32 214 32 182ZM32 32Q32 0 0 0Q-32 0 -32 32Q-32 64 0 64Q32 64 32 32Z" />
<glyph unicode="&#x200d;" glyph-name="zerojoin" horiz-adv-x="0" d="M0 1145Q158 1145 294 1019Q294 1014 278 995Q169 1070 0 1070Q-172 1070 -278 997Q-294 1014 -294 1019Q-158 1145 0 1145ZM32 932Q32 900 0 900Q-32 900 -32 932Q-32 964 0 964Q32 964 32
932ZM32 782Q32 750 0 750Q-32 750 -32 782Q-32 814 0 814Q32 814 32 782ZM32 632Q32 600 0 600Q-32 600 -32 632Q-32 664 0 664Q32 664 32 632ZM32 482Q32 450 0 450Q-32 450 -32 482Q-32 514 0 514Q32 514 32 482ZM32 332Q32 300 0 300Q-32 300 -32 332Q-32 364
0 364Q32 364 32 332ZM32 182Q32 150 0 150Q-32 150 -32 182Q-32 214 0 214Q32 214 32 182ZM32 32Q32 0 0 0Q-32 0 -32 32Q-32 64 0 64Q32 64 32 32Z" />
<glyph unicode="&#x200e;" glyph-name="ulefttoright" horiz-adv-x="0" d="M80 1050L-20 960V1140L80 1050Z" />
<glyph unicode="&#x200f;" glyph-name="urighttoleft" horiz-adv-x="0" d="M20 960L-80 1050L20 1140V960Z" />
<glyph unicode="&#x2010;" glyph-name="hyphen" horiz-adv-x="657" d="M565 416H90V569H565V416Z" />
<glyph unicode="&#x2011;" glyph-name="hyphennobreak" horiz-adv-x="657" d="M565 416H90V569H565V416Z" />
<glyph unicode="&#x2013;" glyph-name="en" horiz-adv-x="1024" d="M1024 541H0V721H1024V541Z" />
<glyph unicode="&#x2014;" glyph-name="em" horiz-adv-x="2048" d="M2048 541H0V721H2048V541Z" />
<glyph unicode="&#x2018;" glyph-name="quoteleft" horiz-adv-x="494" d="M508 1264Q451 1229 394 1170T319 1071Q166 1159 166 1268Q166 1350 257 1455Q338 1548 371 1548Q393 1548 393 1524Q393 1515 370 1485T346 1417Q346 1334 508 1264Z" />
<glyph unicode="&#x2019;" glyph-name="quoteright" horiz-adv-x="494" d="M387 1352Q387 1269 295 1165Q213 1071 180 1071Q160 1071 160 1096Q160 1103 183 1134T207 1202Q207 1282 45 1358Q101 1390 160 1451Q216 1508 233 1548Q387 1464 387 1352Z" />
<glyph unicode="&#x201a;" glyph-name="quotesinglbase" horiz-adv-x="440" d="M367 37Q367 -89 274 -209Q235 -259 141 -342L66 -326Q167 -207 173 -198Q237 -105 236 -16Q236 -10 235 5T233 25H104Q74 58 74 104Q74 158 108 193T197 229Q276 229 321 178T367 37Z" />
<glyph unicode="&#x201c;" glyph-name="quotedblleft" horiz-adv-x="1057" d="M893 1264Q835 1229 778 1170T705 1071Q551 1157 551 1268Q551 1350 642 1455Q723 1548 756 1548Q776 1548 776 1524Q776 1515 753 1485T729 1417Q729 1335 893 1264ZM508 1264Q451
1229 394 1170T319 1071Q166 1159 166 1268Q166 1350 257 1455Q338 1548 371 1548Q393 1548 393 1524Q393 1515 370 1485T346 1417Q346 1334 508 1264Z" />
<glyph unicode="&#x201d;" glyph-name="quotedblright" horiz-adv-x="815" d="M770 1352Q770 1269 679 1165Q598 1071 565 1071Q545 1071 545 1096Q545 1103 567 1134T590 1202Q590 1282 428 1358Q485 1391 543 1450T616 1548Q770 1466 770 1352ZM387 1352Q387
1269 295 1165Q213 1071 180 1071Q160 1071 160 1096Q160 1103 183 1134T207 1202Q207 1282 45 1358Q101 1390 160 1451Q216 1508 233 1548Q387 1464 387 1352Z" />
<glyph unicode="&#x201e;" glyph-name="doublecomma" horiz-adv-x="815" d="M770 150Q770 67 679 -38Q598 -131 565 -131Q554 -131 550 -127T545 -109Q545 -100 567 -68T590 0Q590 83 428 154Q485 188 543 247T616 344Q770 262 770 150ZM387 150Q387 67 295 -38Q213
-131 180 -131Q169 -131 165 -127T160 -109Q160 -100 183 -68T207 0Q207 83 45 154Q101 188 160 248Q216 306 233 344Q387 260 387 150Z" />
<glyph unicode="&#x2020;" glyph-name="dagger" horiz-adv-x="1024" d="M608 1315L526 1028H498L416 1315L512 1470L608 1315ZM995 985L842 891L555 971V999L842 1081L995 985ZM471 971L182 891L29 985L182 1081L471 999V971ZM616 602L526 -264H498L408 602L498
942H526L616 602Z" />
<glyph unicode="&#x2021;" glyph-name="daggerdbl" horiz-adv-x="1024" d="M608 1315L526 1028H498L418 1315L512 1470L608 1315ZM995 985L842 891L555 971V999L842 1081L995 985ZM471 971L182 891L29 985L182 1081L471 999V971ZM633 600L526 260H498L389 602L498
942H526L633 600ZM995 217L842 121L555 201V231L842 311L995 217ZM471 201L182 121L29 217L182 311L471 231V201ZM608 -113L512 -268L418 -113L498 174H526L608 -113Z" />
<glyph unicode="&#x2022;" glyph-name="bullet" horiz-adv-x="762" d="M662 748Q662 631 580 550T381 469Q264 469 182 550T100 748Q100 865 182 946T381 1028Q498 1028 580 947T662 748Z" />
<glyph unicode="&#x2026;" glyph-name="ellipsis" horiz-adv-x="2048" d="M1845 121Q1845 64 1806 24T1708 -16Q1651 -16 1611 24T1571 121Q1571 178 1610 218T1706 258Q1763 258 1804 217T1845 121ZM1161 121Q1161 63 1121 24T1024 -16Q966 -16 927 24T887 121Q887
178 927 218T1024 258Q1081 258 1121 218T1161 121ZM479 121Q479 64 439 24T342 -16Q285 -16 245 24T205 121Q205 178 245 218T342 258Q399 258 439 218T479 121Z" />
<glyph unicode="&#x202a;" glyph-name="lre" horiz-adv-x="0" d="M166 -70L66 -160V-90H-40V713H0V-50H66V20L166 -70Z" />
<glyph unicode="&#x202b;" glyph-name="rle" horiz-adv-x="0" d="M40 -90H-66V-160L-166 -70L-66 20V-50H0V713H40V-90Z" />
<glyph unicode="&#x202c;" glyph-name="pdf" horiz-adv-x="0" d="M90 713H20V-50H82V-90H-82V-50H-20V713H-90L0 813L90 713Z" />
<glyph unicode="&#x202d;" glyph-name="lro" horiz-adv-x="0" d="M166 1105L66 1015V1085H-145V1125H66V1195L166 1105ZM32 932Q32 900 0 900Q-32 900 -32 932Q-32 964 0 964Q32 964 32 932ZM32 782Q32 750 0 750Q-32 750 -32 782Q-32 814 0 814Q32 814 32 782ZM32
632Q32 600 0 600Q-32 600 -32 632Q-32 664 0 664Q32 664 32 632ZM32 482Q32 450 0 450Q-32 450 -32 482Q-32 514 0 514Q32 514 32 482ZM32 332Q32 300 0 300Q-32 300 -32 332Q-32 364 0 364Q32 364 32 332ZM32 182Q32 150 0 150Q-32 150 -32 182Q-32 214 0 214Q32
214 32 182ZM32 32Q32 0 0 0Q-32 0 -32 32Q-32 64 0 64Q32 64 32 32Z" />
<glyph unicode="&#x202e;" glyph-name="rlo" horiz-adv-x="0" d="M145 1085H-66V1015L-166 1105L-66 1195V1125H145V1085ZM32 932Q32 900 0 900Q-32 900 -32 932Q-32 964 0 964Q32 964 32 932ZM32 782Q32 750 0 750Q-32 750 -32 782Q-32 814 0 814Q32 814 32 782ZM32
632Q32 600 0 600Q-32 600 -32 632Q-32 664 0 664Q32 664 32 632ZM32 482Q32 450 0 450Q-32 450 -32 482Q-32 514 0 514Q32 514 32 482ZM32 332Q32 300 0 300Q-32 300 -32 332Q-32 364 0 364Q32 364 32 332ZM32 182Q32 150 0 150Q-32 150 -32 182Q-32 214 0 214Q32
214 32 182ZM32 32Q32 0 0 0Q-32 0 -32 32Q-32 64 0 64Q32 64 32 32Z" />
<glyph unicode="&#x2030;" glyph-name="perthousand" horiz-adv-x="2537" d="M2476 406Q2476 216 2398 100Q2314 -25 2163 -25Q2011 -25 1926 101Q1847 217 1847 406Q1847 594 1925 710Q2010 836 2163 836Q2315 836 2399 711Q2476 595 2476 406ZM1700 406Q1700
217 1620 100Q1535 -25 1384 -25Q1232 -25 1148 101Q1071 217 1071 406Q1071 595 1149 711Q1234 836 1386 836Q1538 836 1622 710Q1700 594 1700 406ZM1380 1374L512 0H383L1251 1374H1380ZM696 971Q696 781 616 665Q531 541 381 541Q228 541 144 667Q66 783 66
971Q66 1160 144 1276Q229 1401 381 1401Q533 1401 618 1276Q696 1160 696 971ZM2320 406Q2320 758 2161 758Q2003 758 2003 406Q2003 53 2161 53Q2320 53 2320 406ZM1544 406Q1544 758 1384 758Q1225 758 1225 406Q1225 53 1384 53Q1544 53 1544 406ZM539 971Q539
1323 381 1323Q221 1323 221 971Q221 618 379 618Q539 618 539 971Z" />
<glyph unicode="&#x2039;" glyph-name="guilsinglleft" horiz-adv-x="502" d="M426 131L86 410V573L426 854V711L188 492L426 274V131Z" />
<glyph unicode="&#x203a;" glyph-name="guilsinglright" horiz-adv-x="502" d="M418 410L78 131V274L313 492L78 711V854L418 573V410Z" />
<glyph unicode="&#x20aa;" glyph-name="newsheqel" horiz-adv-x="1153" d="M1063 249Q1063 0 818 0H370V1101H519V139H801Q914 139 914 258V1210H1063V249ZM791 280H640V1105Q640 1235 496 1235H247V168H99V1374H548Q650 1374 717 1317Q791 1256 791 1150V280Z" />
<glyph unicode="&#x20ac;" glyph-name="u20AC" horiz-adv-x="1153" d="M1081 47Q1049 32 960 9Q825 -25 713 -25Q474 -25 313 136Q163 285 120 525H0L47 635H107Q105 662 105 690Q105 718 107 745H0L47 855H119Q161 1105 320 1252T715 1399Q882 1399 1081 1327V1006H956L931
1192Q926 1225 901 1239Q821 1284 723 1284Q567 1284 464 1177Q356 1065 326 855H894L847 745H317Q316 721 316 696Q316 665 317 635H803L756 525H328Q359 316 466 202T746 88Q832 88 887 115Q915 128 920 156L960 379H1081V47Z" />
<glyph unicode="&#x2122;" glyph-name="trademark" horiz-adv-x="1671" d="M1462 817H1239V862L1300 872V1300L1116 817H1067L893 1300V872L954 862V817H768V862L831 872V1296L768 1309V1356H981V1329L1116 969L1251 1329V1356H1462V1309L1397 1296V872L1462 862V817ZM709
1212H653L639 1298Q639 1309 631 1309H524V872Q550 868 600 862V817H348V862Q371 864 426 872V1309H317Q309 1309 309 1298L297 1212H238V1356H709V1212Z" />
<glyph unicode="&#x2212;" glyph-name="minus" horiz-adv-x="1706" d="M1452 545H254V678H1452V545Z" />
<glyph unicode="&#x2219;" glyph-name="bulletmath" horiz-adv-x="573" d="M426 686Q426 628 385 589T287 549Q230 549 190 589T150 686Q150 743 190 784T287 825Q344 825 385 784T426 686Z" />
<glyph unicode="&#x25cc;" glyph-name="circledotted" horiz-adv-x="1580" d="M1232 1045Q1232 989 1177 989Q1117 989 1117 1045Q1117 1102 1177 1102Q1232 1102 1232 1045ZM1060 1160Q1060 1102 1004 1102Q944 1102 944 1160Q944 1220 1004 1220Q1060 1220 1060
1160ZM1350 872Q1350 812 1290 812Q1232 812 1232 872Q1232 929 1292 929Q1350 929 1350 872ZM1391 668Q1391 610 1336 610Q1276 610 1276 668Q1276 725 1336 725Q1391 725 1391 668ZM856 1203Q856 1143 798 1143Q740 1143 740 1203Q740 1261 798 1261Q856 1261
856 1203ZM654 1160Q654 1102 594 1102Q536 1102 536 1160Q536 1220 594 1220Q654 1220 654 1160ZM1350 464Q1350 406 1290 406Q1232 406 1232 464Q1232 524 1290 524Q1350 524 1350 464ZM479 1045Q479 989 421 989Q364 989 364 1042Q364 1102 421 1102Q479 1102
479 1045ZM1232 289Q1232 231 1177 231Q1120 231 1120 289Q1120 349 1177 349Q1232 349 1232 289ZM1060 173Q1060 118 1004 118Q947 118 947 173Q947 233 1004 233Q1060 233 1060 173ZM364 872Q364 812 308 812Q248 812 248 872Q248 929 306 929Q364 929 364 872ZM323
668Q323 610 265 610Q205 610 205 668Q205 725 265 725Q323 725 323 668ZM856 135Q856 75 798 75Q740 75 740 135Q740 193 798 193Q856 193 856 135ZM364 464Q364 406 306 406Q248 406 248 464Q248 524 306 524Q364 524 364 464ZM654 178Q654 118 594 118Q536 118
536 173Q536 233 594 233Q654 233 654 178ZM479 289Q479 231 421 231Q364 231 364 289Q364 349 421 349Q479 349 479 289Z" />
<glyph unicode="&#xfb1d;" glyph-name="yodhiriq" horiz-adv-x="691" d="M580 1061Q580 914 560 799Q539 678 508 678Q480 678 475 693Q475 694 475 725Q475 731 485 793T496 901Q496 1018 330 1018H231Q152 1018 121 1072Q92 1122 92 1243Q92 1444 152 1444Q162
1444 180 1401T252 1358H311Q578 1358 580 1061ZM422 196Q422 158 394 130T327 102Q289 102 262 130T235 196Q235 233 262 259T327 286Q365 286 393 260T422 196Z" />
<glyph unicode="&#xfb1e;" glyph-name="varika" horiz-adv-x="0" d="M496 1686Q468 1610 394 1565Q326 1524 248 1524Q170 1524 102 1565Q28 1610 0 1686V1778Q51 1638 248 1638Q445 1638 496 1778V1686Z" />
<glyph unicode="&#xfb1f;" glyph-name="yodpatahdbl" horiz-adv-x="1257" d="M1181 1061Q1181 914 1161 799Q1140 678 1109 678Q1081 678 1076 693Q1076 694 1076 725Q1076 731 1086 793T1097 901Q1097 1018 931 1018H832Q753 1018 722 1072Q693 1122 693 1243Q693
1444 753 1444Q763 1444 781 1401T853 1358H912Q1179 1358 1181 1061ZM580 1061Q580 914 560 799Q539 678 508 678Q480 678 475 693Q475 694 475 725Q475 731 485 793T496 901Q496 1018 330 1018H231Q152 1018 121 1072Q92 1122 92 1243Q92 1444 152 1444Q162 1444
180 1401T252 1358H311Q578 1358 580 1061ZM1124 443H675V557H1124V443ZM673 443H224V557H673V443Z" />
<glyph unicode="&#xfb20;" glyph-name="altayin" horiz-adv-x="1213" d="M1150 1133Q1150 1067 1109 969Q1046 818 1023 741Q994 644 979 500Q964 363 951 326Q916 224 866 182Q792 120 611 90L68 0L118 348L406 395Q418 416 418 441Q418 490 336 637T254 877Q254
948 294 1012Q211 1034 184 1090Q165 1130 165 1221Q165 1313 201 1379Q229 1432 249 1432Q267 1432 267 1411Q267 1405 265 1399T263 1389Q263 1375 321 1359Q441 1325 466 1317Q534 1294 559 1254Q580 1219 580 1145Q580 1063 547 987Q520 924 507 924Q484 924
484 938V956Q484 966 443 974Q395 983 347 991Q332 961 332 927Q332 866 417 733T502 520Q502 465 472 412L625 430Q761 446 809 478Q854 508 888 598L951 768Q974 831 1003 879Q1025 917 1025 920Q1025 943 971 964Q902 987 832 1010T737 1082Q714 1126 714 1221Q714
1312 757 1379Q791 1432 812 1432Q830 1432 830 1411Q830 1405 828 1399T826 1389Q826 1363 963 1317Q1150 1254 1150 1133Z" />
<glyph unicode="&#xfb29;" glyph-name="altplussign" horiz-adv-x="1706" d="M246 433H797V984H913V433H1464V316H246V433Z" />
<glyph unicode="&#xfb2a;" glyph-name="shinshindot" horiz-adv-x="1430" d="M1320 1639Q1320 1602 1292 1575T1225 1547Q1187 1547 1160 1574T1133 1639Q1133 1676 1160 1703T1225 1730Q1263 1730 1291 1703T1320 1639ZM1341 1145Q1341 992 1254 749Q1218 648
1083 334Q981 98 963 0H229Q223 123 150 365Q82 594 82 723Q82 887 147 1028Q96 1060 81 1106Q68 1144 68 1235Q68 1325 111 1392Q144 1444 166 1444Q184 1444 184 1423Q184 1417 181 1412T178 1401Q178 1376 317 1329Q391 1304 414 1262Q432 1228 432 1145Q432
1063 387 979Q349 909 334 909Q322 909 322 926Q322 929 324 931T326 942Q326 956 314 962T213 997Q207 999 197 1004Q150 895 150 793Q150 715 199 563Q246 419 293 340H314Q501 641 610 1022Q554 1053 536 1107Q522 1146 522 1235Q522 1325 565 1392Q599 1444
621 1444Q639 1444 639 1423Q639 1417 637 1412T635 1401Q635 1376 772 1329Q844 1305 867 1261Q887 1226 887 1145Q887 1063 841 979Q803 909 788 909Q776 909 776 926Q776 929 778 931T780 942Q780 955 767 962Q758 966 676 993Q560 598 409 340H941Q966 405
1120 671Q1239 876 1239 969Q1239 990 1213 996Q1130 1015 1102 1024Q1032 1047 1006 1095Q983 1139 983 1235Q983 1325 1026 1392Q1059 1444 1079 1444Q1100 1444 1100 1423Q1100 1417 1097 1412T1094 1401Q1094 1376 1233 1329Q1300 1306 1324 1258Q1341 1221
1341 1145Z" />
<glyph unicode="&#xfb2b;" glyph-name="shinsindot" horiz-adv-x="1430" d="M380 1639Q380 1602 352 1575T285 1547Q247 1547 220 1574T193 1639Q193 1676 220 1703T285 1730Q323 1730 351 1703T380 1639ZM1341 1145Q1341 992 1254 749Q1218 648 1083 334Q981
98 963 0H229Q223 123 150 365Q82 594 82 723Q82 887 147 1028Q96 1060 81 1106Q68 1144 68 1235Q68 1325 111 1392Q144 1444 166 1444Q184 1444 184 1423Q184 1417 181 1412T178 1401Q178 1376 317 1329Q391 1304 414 1262Q432 1228 432 1145Q432 1063 387 979Q349
909 334 909Q322 909 322 926Q322 929 324 931T326 942Q326 956 314 962T213 997Q207 999 197 1004Q150 895 150 793Q150 715 199 563Q246 419 293 340H314Q501 641 610 1022Q554 1053 536 1107Q522 1146 522 1235Q522 1325 565 1392Q599 1444 621 1444Q639 1444
639 1423Q639 1417 637 1412T635 1401Q635 1376 772 1329Q844 1305 867 1261Q887 1226 887 1145Q887 1063 841 979Q803 909 788 909Q776 909 776 926Q776 929 778 931T780 942Q780 955 767 962Q758 966 676 993Q560 598 409 340H941Q966 405 1120 671Q1239 876
1239 969Q1239 990 1213 996Q1130 1015 1102 1024Q1032 1047 1006 1095Q983 1139 983 1235Q983 1325 1026 1392Q1059 1444 1079 1444Q1100 1444 1100 1423Q1100 1417 1097 1412T1094 1401Q1094 1376 1233 1329Q1300 1306 1324 1258Q1341 1221 1341 1145Z" />
<glyph unicode="&#xfb2c;" glyph-name="shindageshshindot" horiz-adv-x="1430" d="M1341 1145Q1341 992 1254 749Q1218 648 1083 334Q981 98 963 0H229Q223 123 150 365Q82 594 82 723Q82 887 147 1028Q96 1060 81 1106Q68 1144 68 1235Q68 1325 111 1392Q144
1444 166 1444Q184 1444 184 1423Q184 1417 181 1412T178 1401Q178 1376 317 1329Q391 1304 414 1262Q432 1228 432 1145Q432 1063 387 979Q349 909 334 909Q322 909 322 926Q322 929 324 931T326 942Q326 956 314 962T213 997Q207 999 197 1004Q150 895 150 793Q150
715 199 563Q246 419 293 340H314Q501 641 610 1022Q554 1053 536 1107Q522 1146 522 1235Q522 1325 565 1392Q599 1444 621 1444Q639 1444 639 1423Q639 1417 637 1412T635 1401Q635 1376 772 1329Q844 1305 867 1261Q887 1226 887 1145Q887 1063 841 979Q803
909 788 909Q776 909 776 926Q776 929 778 931T780 942Q780 955 767 962Q758 966 676 993Q560 598 409 340H941Q966 405 1120 671Q1239 876 1239 969Q1239 990 1213 996Q1130 1015 1102 1024Q1032 1047 1006 1095Q983 1139 983 1235Q983 1325 1026 1392Q1059 1444
1079 1444Q1100 1444 1100 1423Q1100 1417 1097 1412T1094 1401Q1094 1376 1233 1329Q1300 1306 1324 1258Q1341 1221 1341 1145ZM1320 1639Q1320 1602 1292 1575T1225 1547Q1187 1547 1160 1574T1133 1639Q1133 1676 1160 1703T1225 1730Q1263 1730 1291 1703T1320
1639ZM935 678Q935 638 906 610T836 582Q796 582 768 610T740 678Q740 718 768 746T836 774Q876 774 905 746T935 678Z" />
<glyph unicode="&#xfb2d;" glyph-name="shindageshsindot" horiz-adv-x="1430" d="M1341 1145Q1341 992 1254 749Q1218 648 1083 334Q981 98 963 0H229Q223 123 150 365Q82 594 82 723Q82 887 147 1028Q96 1060 81 1106Q68 1144 68 1235Q68 1325 111 1392Q144
1444 166 1444Q184 1444 184 1423Q184 1417 181 1412T178 1401Q178 1376 317 1329Q391 1304 414 1262Q432 1228 432 1145Q432 1063 387 979Q349 909 334 909Q322 909 322 926Q322 929 324 931T326 942Q326 956 314 962T213 997Q207 999 197 1004Q150 895 150 793Q150
715 199 563Q246 419 293 340H314Q501 641 610 1022Q554 1053 536 1107Q522 1146 522 1235Q522 1325 565 1392Q599 1444 621 1444Q639 1444 639 1423Q639 1417 637 1412T635 1401Q635 1376 772 1329Q844 1305 867 1261Q887 1226 887 1145Q887 1063 841 979Q803
909 788 909Q776 909 776 926Q776 929 778 931T780 942Q780 955 767 962Q758 966 676 993Q560 598 409 340H941Q966 405 1120 671Q1239 876 1239 969Q1239 990 1213 996Q1130 1015 1102 1024Q1032 1047 1006 1095Q983 1139 983 1235Q983 1325 1026 1392Q1059 1444
1079 1444Q1100 1444 1100 1423Q1100 1417 1097 1412T1094 1401Q1094 1376 1233 1329Q1300 1306 1324 1258Q1341 1221 1341 1145ZM380 1639Q380 1602 352 1575T285 1547Q247 1547 220 1574T193 1639Q193 1676 220 1703T285 1730Q323 1730 351 1703T380 1639ZM935
678Q935 638 906 610T836 582Q796 582 768 610T740 678Q740 718 768 746T836 774Q876 774 905 746T935 678Z" />
<glyph unicode="&#xfb2e;" glyph-name="alefpatah" horiz-adv-x="1221" d="M1143 213Q1143 117 1078 36Q1023 -33 987 -33Q969 -33 969 -4Q969 0 982 20T995 55Q995 104 929 179Q927 181 827 281L326 782Q270 699 270 635Q270 548 393 401T516 166Q516 95 462
48T330 0H63L74 51Q205 68 205 139Q205 174 146 285T86 465Q86 622 276 831L227 881Q137 971 106 1029Q70 1099 70 1198Q70 1294 133 1375Q187 1444 223 1444Q242 1444 242 1415Q242 1412 229 1392T215 1358Q215 1308 281 1234Q332 1183 383 1133L682 834L825 1014Q751
1070 726 1119Q709 1154 709 1210Q709 1307 780 1382Q837 1444 877 1444Q895 1444 895 1425Q895 1421 890 1416T885 1397Q885 1348 993 1270Q1122 1176 1122 1032Q1122 932 1078 878Q1044 836 1004 836Q982 836 964 870Q934 925 881 971L731 784L983 530Q1073 439
1105 382Q1143 312 1143 213ZM829 -268H380V-154H829V-268Z" />
<glyph unicode="&#xfb2f;" glyph-name="alefqamats" horiz-adv-x="1221" d="M1143 213Q1143 117 1078 36Q1023 -33 987 -33Q969 -33 969 -4Q969 0 982 20T995 55Q995 104 929 179Q927 181 827 281L326 782Q270 699 270 635Q270 548 393 401T516 166Q516 95 462
48T330 0H63L74 51Q205 68 205 139Q205 174 146 285T86 465Q86 622 276 831L227 881Q137 971 106 1029Q70 1099 70 1198Q70 1294 133 1375Q187 1444 223 1444Q242 1444 242 1415Q242 1412 229 1392T215 1358Q215 1308 281 1234Q332 1183 383 1133L682 834L825 1014Q751
1070 726 1119Q709 1154 709 1210Q709 1307 780 1382Q837 1444 877 1444Q895 1444 895 1425Q895 1421 890 1416T885 1397Q885 1348 993 1270Q1122 1176 1122 1032Q1122 932 1078 878Q1044 836 1004 836Q982 836 964 870Q934 925 881 971L731 784L983 530Q1073 439
1105 382Q1143 312 1143 213ZM698 -553Q698 -593 669 -621T599 -649Q560 -649 532 -621T503 -553Q503 -494 593 -268H380V-154H829V-268H608Q698 -514 698 -553Z" />
<glyph unicode="&#xfb30;" glyph-name="alefmapiq" horiz-adv-x="1221" d="M1143 213Q1143 117 1078 36Q1023 -33 987 -33Q969 -33 969 -4Q969 0 982 20T995 55Q995 104 929 179Q927 181 827 281L326 782Q270 699 270 635Q270 548 393 401T516 166Q516 95 462
48T330 0H63L74 51Q205 68 205 139Q205 174 146 285T86 465Q86 622 276 831L227 881Q137 971 106 1029Q70 1099 70 1198Q70 1294 133 1375Q187 1444 223 1444Q242 1444 242 1415Q242 1412 229 1392T215 1358Q215 1308 281 1234Q332 1183 383 1133L682 834L825 1014Q751
1070 726 1119Q709 1154 709 1210Q709 1307 780 1382Q837 1444 877 1444Q895 1444 895 1425Q895 1421 890 1416T885 1397Q885 1348 993 1270Q1122 1176 1122 1032Q1122 932 1078 878Q1044 836 1004 836Q982 836 964 870Q934 925 881 971L731 784L983 530Q1073 439
1105 382Q1143 312 1143 213ZM806 99Q806 59 777 31T707 3Q667 3 639 31T611 99Q611 139 639 167T707 195Q747 195 776 167T806 99Z" />
<glyph unicode="&#xfb31;" glyph-name="betdagesh" horiz-adv-x="1312" d="M1307 340L1128 0H29L193 340H1069L1053 907Q1049 1018 881 1018H256Q177 1018 147 1072Q119 1122 119 1243Q119 1444 176 1444Q188 1444 205 1401T276 1358H862Q1143 1358 1143 1061V340H1307ZM700
678Q700 638 671 610T601 582Q561 582 533 610T505 678Q505 718 533 746T601 774Q641 774 670 746T700 678Z" />
<glyph unicode="&#xfb32;" glyph-name="gimeldagesh" horiz-adv-x="799" d="M686 248Q686 0 657 0Q637 0 635 27Q630 74 572 259Q518 428 518 543Q518 607 529 745T541 907Q541 1018 356 1018H256Q177 1018 147 1072Q119 1122 119 1243Q119 1444 176 1444Q188
1444 205 1401T276 1358H338Q616 1358 616 1061Q616 1010 606 958T596 823Q596 764 641 557T686 248ZM545 340L432 0H55L141 340H545ZM335 678Q335 638 306 610T236 582Q196 582 168 610T140 678Q140 718 168 746T236 774Q276 774 305 746T335 678Z" />
<glyph unicode="&#xfb33;" glyph-name="daletdagesh" horiz-adv-x="1380" d="M1280 1188Q1280 1116 1243 1069T1155 1018L1194 164Q1195 142 1139 71T1067 0Q1040 0 1040 43Q1040 155 1077 1018H244Q165 1018 134 1072Q106 1122 106 1243Q106 1444 164 1444Q174
1444 192 1401T264 1358H1145Q1204 1358 1242 1311T1280 1188ZM735 678Q735 638 706 610T636 582Q596 582 568 610T540 678Q540 718 568 746T636 774Q676 774 705 746T735 678Z" />
<glyph unicode="&#xfb34;" glyph-name="hedagesh" horiz-adv-x="1343" d="M1280 1188Q1280 1113 1241 1066T1149 1018H1141L1194 164Q1195 142 1139 71T1067 0Q1040 0 1040 43Q1040 219 1061 1018H244Q165 1018 134 1072Q106 1122 106 1243Q106 1444 164 1444Q174
1444 192 1401T264 1358H1145Q1204 1358 1242 1311T1280 1188ZM330 319Q330 118 299 86Q278 64 230 34Q177 0 156 0Q117 0 117 41Q117 66 132 93T165 148Q188 202 188 311Q188 346 185 407T182 524Q182 589 223 660Q262 727 289 727Q315 727 315 709Q315 701 306
671T297 602Q297 572 313 493T330 319ZM750 678Q750 638 721 610T651 582Q611 582 583 610T555 678Q555 718 583 746T651 774Q691 774 720 746T750 678Z" />
<glyph unicode="&#xfb35;" glyph-name="vavdagesh" horiz-adv-x="690" d="M567 164Q567 141 511 71T438 0Q414 0 414 43Q414 70 448 437T483 901Q483 1018 356 1018H219Q140 1018 110 1072Q82 1122 82 1243Q82 1444 137 1444Q149 1444 167 1401T238 1358H365Q565
1358 565 1061L567 164ZM318 678Q318 638 289 610T219 582Q179 582 151 610T123 678Q123 718 151 746T219 774Q259 774 288 746T318 678Z" />
<glyph unicode="&#xfb36;" glyph-name="zayindagesh" horiz-adv-x="813" d="M698 1157Q698 1071 660 998Q626 934 600 934Q587 934 587 950Q587 954 589 956T591 969Q591 1001 450 1018Q401 930 401 885Q401 857 447 633T493 379Q493 266 449 130Q406 0 376 0Q354
0 354 23Q354 21 370 72T387 160Q387 181 342 402T297 659Q297 844 391 1024L356 1026Q234 1033 194 1074T153 1235Q153 1299 186 1371T251 1444Q272 1444 272 1423Q272 1417 269 1412T266 1401Q266 1373 464 1358Q698 1340 698 1157ZM225 678Q225 638 196 610T126
582Q86 582 58 610T30 678Q30 718 58 746T126 774Q166 774 195 746T225 678Z" />
<glyph unicode="&#xfb38;" glyph-name="tetdagesh" horiz-adv-x="1343" d="M1253 719Q1253 569 1104 0H166Q168 138 144 329Q119 527 119 645Q119 845 240 1026Q163 1059 137 1108Q115 1148 115 1235Q115 1325 159 1392Q194 1444 215 1444Q236 1444 236 1423Q236
1417 233 1412T229 1401Q229 1388 276 1373Q362 1343 408 1323Q477 1292 499 1258T522 1145Q522 1063 477 979Q439 909 424 909Q412 909 412 926Q412 929 414 931T416 942Q416 956 299 999Q211 847 211 741Q211 654 249 521Q290 376 293 340H1098Q1174 571 1174
668Q1174 840 1085 935Q1006 1020 887 1020Q777 1020 722 933Q678 865 678 764Q678 749 681 719T684 680Q684 662 671 644T643 625Q586 625 586 766Q586 829 628 961Q676 1111 686 1196Q689 1217 689 1240Q689 1265 685 1301T681 1349Q681 1372 690 1382Q697 1389
729 1389Q806 1389 902 1358Q1023 1320 1092 1253Q1192 1155 1228 1046Q1255 967 1255 842Q1255 822 1254 782T1253 719ZM1010 678Q1010 638 981 610T911 582Q871 582 843 610T815 678Q815 718 843 746T911 774Q951 774 980 746T1010 678Z" />
<glyph unicode="&#xfb39;" glyph-name="yoddagesh" horiz-adv-x="741" d="M630 1061Q630 914 610 799Q589 678 558 678Q530 678 525 693Q525 694 525 725Q525 731 535 793T546 901Q546 1018 380 1018H281Q202 1018 171 1072Q142 1122 142 1243Q142 1444 202 1444Q212
1444 230 1401T302 1358H361Q628 1358 630 1061ZM383 776Q383 736 354 708T284 680Q244 680 216 708T188 776Q188 816 216 844T284 872Q324 872 353 844T383 776Z" />
<glyph unicode="&#xfb3a;" glyph-name="finalkafdagesh" horiz-adv-x="1380" d="M1280 1188Q1280 1116 1243 1069T1155 1018L1194 -494Q1195 -515 1139 -585T1067 -655Q1040 -655 1040 -612Q1040 -560 1055 126Q1071 864 1077 1018H244Q165 1018 134 1072Q106
1122 106 1243Q106 1444 164 1444Q174 1444 192 1401T264 1358H1145Q1204 1358 1242 1311T1280 1188ZM728 678Q728 638 699 610T629 582Q589 582 561 610T533 678Q533 718 561 746T629 774Q669 774 698 746T728 678Z" />
<glyph unicode="&#xfb3b;" glyph-name="kafdagesh" horiz-adv-x="1343" d="M1198 678Q1198 286 1030 134Q882 0 530 0H29L193 340H772Q943 340 1037 424Q1135 512 1135 678Q1135 1018 772 1018H256Q177 1018 147 1072Q119 1122 119 1243Q119 1444 176 1444Q188
1444 205 1401T276 1358H735Q981 1358 1087 1208Q1198 1052 1198 678ZM750 678Q750 638 721 610T651 582Q611 582 583 610T555 678Q555 718 583 746T651 774Q691 774 720 746T750 678Z" />
<glyph unicode="&#xfb3c;" glyph-name="lameddagesh" horiz-adv-x="1343" d="M1225 782Q1225 560 1006 401Q863 298 785 183Q745 109 705 35Q674 -20 621 -20Q584 -20 557 7Q526 37 526 84Q526 153 593 233Q677 335 834 401Q1033 487 1097 577Q1139 636 1139 745Q1139
864 1085 938Q1029 1016 936 1016H303Q176 1016 131 1066Q92 1110 92 1225V1546Q92 1663 133 1746Q159 1800 209 1848Q250 1887 250 1896Q250 1931 171 1954T92 2019Q92 2077 126 2129Q155 2173 170 2173Q186 2173 186 2163Q186 2161 184 2155T182 2146Q182 2137
226 2122Q282 2103 308 2082Q352 2047 352 1991Q352 1961 327 1924Q293 1875 279 1833Q254 1756 254 1626V1444Q254 1396 267 1379Q284 1358 336 1358H1008Q1160 1358 1180 1231L1217 997Q1225 945 1225 782ZM790 678Q790 638 761 610T691 582Q651 582 623 610T595
678Q595 718 623 746T691 774Q731 774 760 746T790 678Z" />
<glyph unicode="&#xfb3e;" glyph-name="memdagesh" horiz-adv-x="1343" d="M1229 719Q1229 510 1104 0H449L524 340H1098Q1135 483 1135 641Q1135 807 1012 913T694 1020Q526 1020 397 900T268 633Q268 537 286 458T305 319Q305 122 272 86Q194 0 156 0Q117 0
117 41Q117 66 131 94Q164 160 164 326Q164 358 159 448T154 596Q154 780 287 913Q304 931 356 971L279 997Q248 1012 211 1028Q160 1060 144 1106Q131 1144 131 1235Q131 1324 194 1392Q242 1444 268 1444Q287 1444 287 1423Q287 1417 285 1412T283 1401Q283 1376
420 1329Q491 1305 516 1268T541 1145Q541 1102 528 1065Q575 1078 621 1091Q686 1113 686 1147Q686 1191 673 1260T659 1352Q659 1418 722 1418Q795 1418 901 1374Q1020 1324 1087 1251Q1230 1098 1230 804Q1230 786 1229 757Q1229 729 1229 719ZM799 678Q799
638 770 610T700 582Q660 582 632 610T604 678Q604 718 632 746T700 774Q740 774 769 746T799 678Z" />
<glyph unicode="&#xfb40;" glyph-name="nundagesh" horiz-adv-x="752" d="M662 272Q662 148 621 0H55L117 340H524Q518 538 518 633Q518 696 529 790T541 907Q541 1018 356 1018H256Q177 1018 147 1072Q119 1122 119 1243Q119 1444 176 1444Q188 1444 205 1401T276
1358H338Q616 1358 616 1061Q616 1010 604 945T592 797Q592 734 627 545T662 272ZM318 678Q318 638 289 610T219 582Q179 582 151 610T123 678Q123 718 151 746T219 774Q259 774 288 746T318 678Z" />
<glyph unicode="&#xfb41;" glyph-name="samekhdagesh" horiz-adv-x="1343" d="M373 1018Q283 944 238 833Q207 754 207 690Q207 536 300 430Q397 319 543 319H752Q914 319 1024 423T1135 678Q1135 854 1061 931Q978 1018 772 1018H373ZM1198 678Q1198 366 1071
183Q926 -27 637 -27Q382 -27 255 145Q141 297 141 563Q141 866 293 1018H244Q165 1018 134 1072Q106 1122 106 1243Q106 1444 164 1444Q174 1444 192 1401T264 1358H735Q963 1358 1082 1180Q1198 1006 1198 678ZM755 678Q755 638 726 610T656 582Q616 582 588
610T560 678Q560 718 588 746T656 774Q696 774 725 746T755 678Z" />
<glyph unicode="&#xfb43;" glyph-name="finalpedagesh" horiz-adv-x="1312" d="M1182 -494Q1182 -515 1125 -585T1053 -655Q1028 -655 1028 -612Q1028 -585 1063 110T1098 901Q1098 1018 920 1018H328Q233 930 233 881Q233 845 269 836Q284 831 334 831Q353 831
407 834T516 838Q565 838 604 801Q649 760 649 694Q649 629 603 589Q564 555 516 555H244Q189 555 158 512T119 469Q102 469 102 489Q102 500 115 558T129 670Q129 690 123 736T117 813Q117 917 252 1018Q175 1019 145 1074Q119 1123 119 1243Q119 1444 176 1444Q188
1444 205 1401T276 1358H901Q1179 1358 1180 1061L1182 -494ZM961 697Q961 657 932 629T862 601Q822 601 794 629T766 697Q766 737 794 765T862 793Q902 793 931 765T961 697Z" />
<glyph unicode="&#xfb44;" glyph-name="pedagesh" horiz-adv-x="1262" d="M649 694Q649 629 603 589Q564 555 516 555H244Q189 555 158 512T119 469Q102 469 102 489Q102 500 115 558T129 670Q129 690 123 736T117 813Q117 917 252 1018Q175 1019 145 1074Q119
1123 119 1243Q119 1444 176 1444Q188 1444 205 1401T276 1358H739Q997 1358 1096 1202Q1188 1057 1188 690V313L1077 0H53L141 340H1110V612Q1110 841 1049 915Q963 1018 676 1018H328Q233 930 233 881Q233 845 269 836Q284 831 334 831Q353 831 407 834T516 838Q565
838 604 801Q649 760 649 694ZM966 678Q966 638 937 610T867 582Q827 582 799 610T771 678Q771 718 799 746T867 774Q907 774 936 746T966 678Z" />
<glyph unicode="&#xfb46;" glyph-name="tsadidagesh" horiz-adv-x="1343" d="M1210 340Q1210 259 1157 125Q1129 63 1102 0H106L211 340H971Q988 340 988 349Q988 359 971 369L588 586Q471 652 471 764V956Q471 1018 416 1018H256Q177 1018 147 1072Q119 1122
119 1243Q119 1444 176 1444Q187 1444 204 1401T276 1358H383Q549 1358 549 1153V956Q549 813 653 764L797 696L934 999Q819 1051 793 1086T766 1221Q766 1312 803 1379Q831 1432 850 1432Q868 1432 868 1411Q868 1405 866 1399T864 1389Q864 1375 922 1359Q1042
1325 1067 1317Q1135 1294 1160 1254Q1182 1219 1182 1145Q1182 1062 1149 968Q1120 887 1108 887Q1087 887 1087 899V918Q1087 934 987 979L854 668Q1092 561 1160 489Q1210 437 1210 340ZM318 678Q318 638 289 610T219 582Q179 582 151 610T123 678Q123 718 151
746T219 774Q259 774 288 746T318 678Z" />
<glyph unicode="&#xfb47;" glyph-name="qofdagesh" horiz-adv-x="1247" d="M1184 758Q1184 498 1098 391Q1028 303 795 221Q644 168 562 109Q521 79 480 29Q455 -2 426 -2Q383 -2 383 59Q383 166 441 236Q537 350 801 426Q996 482 1036 513Q1118 575 1118 745Q1118
875 1051 948Q988 1018 885 1018H256Q177 1018 147 1072Q119 1122 119 1243Q119 1444 176 1444Q188 1444 205 1401T276 1358H850Q1015 1358 1087 1257Q1184 1122 1184 758ZM307 756Q307 751 267 687T227 522Q227 334 264 65T301 -319Q301 -525 262 -665Q227 -795
182 -795Q119 -795 119 -705Q119 -701 126 -559T133 -262Q133 -195 121 116T109 459Q109 593 181 699Q243 791 293 791Q307 791 307 756ZM735 697Q735 657 706 629T636 601Q596 601 568 629T540 697Q540 737 568 765T636 793Q676 793 705 765T735 697Z" />
<glyph unicode="&#xfb48;" glyph-name="reshdagesh" horiz-adv-x="1331" d="M1221 164Q1221 141 1164 71T1092 0Q1067 0 1067 43Q1067 70 1101 437T1135 901Q1135 1018 956 1018H244Q165 1018 134 1072Q106 1122 106 1243Q106 1444 164 1444Q174 1444 192 1401T264
1358H940Q1218 1358 1219 1061L1221 164ZM755 678Q755 638 726 610T656 582Q616 582 588 610T560 678Q560 718 588 746T656 774Q696 774 725 746T755 678Z" />
<glyph unicode="&#xfb49;" glyph-name="shindagesh" horiz-adv-x="1430" d="M1341 1145Q1341 992 1254 749Q1218 648 1083 334Q981 98 963 0H229Q223 123 150 365Q82 594 82 723Q82 887 147 1028Q96 1060 81 1106Q68 1144 68 1235Q68 1325 111 1392Q144 1444 166
1444Q184 1444 184 1423Q184 1417 181 1412T178 1401Q178 1376 317 1329Q391 1304 414 1262Q432 1228 432 1145Q432 1063 387 979Q349 909 334 909Q322 909 322 926Q322 929 324 931T326 942Q326 956 314 962T213 997Q207 999 197 1004Q150 895 150 793Q150 715
199 563Q246 419 293 340H314Q501 641 610 1022Q554 1053 536 1107Q522 1146 522 1235Q522 1325 565 1392Q599 1444 621 1444Q639 1444 639 1423Q639 1417 637 1412T635 1401Q635 1376 772 1329Q844 1305 867 1261Q887 1226 887 1145Q887 1063 841 979Q803 909
788 909Q776 909 776 926Q776 929 778 931T780 942Q780 955 767 962Q758 966 676 993Q560 598 409 340H941Q966 405 1120 671Q1239 876 1239 969Q1239 990 1213 996Q1130 1015 1102 1024Q1032 1047 1006 1095Q983 1139 983 1235Q983 1325 1026 1392Q1059 1444 1079
1444Q1100 1444 1100 1423Q1100 1417 1097 1412T1094 1401Q1094 1376 1233 1329Q1300 1306 1324 1258Q1341 1221 1341 1145ZM935 678Q935 638 906 610T836 582Q796 582 768 610T740 678Q740 718 768 746T836 774Q876 774 905 746T935 678Z" />
<glyph unicode="&#xfb4a;" glyph-name="tavdagesh" horiz-adv-x="1370" d="M1245 164Q1247 141 1203 71T1143 0Q1118 0 1118 43Q1118 59 1120 470T1122 901Q1122 1018 932 1018H340Q248 845 248 694Q248 608 345 465T442 256Q442 135 396 65Q353 0 287 0H23L82
340H236Q205 374 177 466Q152 553 152 608Q152 726 177 811Q198 883 266 1018H244Q165 1018 134 1072Q106 1122 106 1243Q106 1444 164 1444Q174 1444 192 1401T264 1358H913Q1169 1358 1188 1061L1245 164ZM819 678Q819 638 790 610T720 582Q680 582 652 610T624
678Q624 718 652 746T720 774Q760 774 789 746T819 678Z" />
<glyph unicode="&#xfb4b;" glyph-name="vavholam" horiz-adv-x="690" d="M567 164Q567 141 511 71T438 0Q414 0 414 43Q414 70 448 437T483 901Q483 1018 356 1018H219Q140 1018 110 1072Q82 1122 82 1243Q82 1444 137 1444Q149 1444 167 1401T238 1358H365Q565
1358 565 1061L567 164ZM372 1638Q372 1601 344 1574T277 1546Q239 1546 212 1573T185 1638Q185 1675 212 1702T277 1729Q315 1729 343 1702T372 1638Z" />
<glyph unicode="&#xfb4c;" glyph-name="betrafe" horiz-adv-x="1312" d="M1307 340L1128 0H29L193 340H1069L1053 907Q1049 1018 881 1018H256Q177 1018 147 1072Q119 1122 119 1243Q119 1444 176 1444Q188 1444 205 1401T276 1358H862Q1143 1358 1143 1061V340H1307ZM840
1546H425V1661H840V1546Z" />
<glyph unicode="&#xfb4d;" glyph-name="kafrafe" horiz-adv-x="1262" d="M1198 678Q1198 286 1030 134Q882 0 530 0H29L193 340H772Q943 340 1037 424Q1135 512 1135 678Q1135 1018 772 1018H256Q177 1018 147 1072Q119 1122 119 1243Q119 1444 176 1444Q188 1444
205 1401T276 1358H735Q981 1358 1087 1208Q1198 1052 1198 678ZM840 1546H425V1661H840V1546Z" />
<glyph unicode="&#xfb4e;" glyph-name="perafe" horiz-adv-x="1262" d="M649 694Q649 629 603 589Q564 555 516 555H244Q189 555 158 512T119 469Q102 469 102 489Q102 500 115 558T129 670Q129 690 123 736T117 813Q117 917 252 1018Q175 1019 145 1074Q119 1123
119 1243Q119 1444 176 1444Q188 1444 205 1401T276 1358H739Q997 1358 1096 1202Q1188 1057 1188 690V313L1077 0H53L141 340H1110V612Q1110 841 1049 915Q963 1018 676 1018H328Q233 930 233 881Q233 845 269 836Q284 831 334 831Q353 831 407 834T516 838Q565
838 604 801Q649 760 649 694ZM840 1546H425V1661H840V1546Z" />
<glyph unicode="&#xfb4f;" glyph-name="aleflamed" horiz-adv-x="1221" d="M420 1693Q420 1610 328 1506Q274 1444 245 1408T215 1358Q215 1308 281 1234Q332 1183 383 1133L682 834L825 1014Q751 1070 726 1119Q709 1154 709 1210Q709 1307 780 1382Q837 1444
877 1444Q895 1444 895 1425Q895 1421 890 1416T885 1397Q885 1348 993 1270Q1122 1176 1122 1032Q1122 932 1078 878Q1044 836 1004 836Q982 836 964 870Q934 925 881 971L731 784L983 530Q1073 439 1105 382Q1143 312 1143 213Q1143 117 1078 36Q1023 -33 987
-33Q969 -33 969 -4Q969 0 982 20T995 55Q995 104 929 179L227 881Q137 971 106 1029Q70 1099 70 1198Q70 1294 133 1375Q166 1417 203 1462T240 1543Q240 1623 78 1699Q134 1731 193 1792Q249 1849 266 1889Q420 1805 420 1693Z" />
<glyph unicode="&#xfeff;" glyph-name="zerowidthnbspace" horiz-adv-x="0" />
</font>
</defs>
</svg>
