<?xml version="1.0" encoding="UTF-8" standalone="no"?>
<!-- Generator: Adobe Illustrator 13.0.2, SVG Export Plug-In . SVG Version: 6.00 Build 14948)  -->

<svg
   xmlns:dc="http://purl.org/dc/elements/1.1/"
   xmlns:cc="http://creativecommons.org/ns#"
   xmlns:rdf="http://www.w3.org/1999/02/22-rdf-syntax-ns#"
   xmlns:svg="http://www.w3.org/2000/svg"
   xmlns="http://www.w3.org/2000/svg"
   xmlns:sodipodi="http://sodipodi.sourceforge.net/DTD/sodipodi-0.dtd"
   xmlns:inkscape="http://www.inkscape.org/namespaces/inkscape"
   version="1.0"
   id="Layer_1"
   x="0px"
   y="0px"
   width="300"
   height="100"
   viewBox="5.5 -3.5 300 100"
   enable-background="new 5.5 -3.5 64 64"
   xml:space="preserve"
   inkscape:version="0.48.1 "
   sodipodi:docname="CC-0-PD.svg"
   inkscape:export-filename="E:\Projects\Open Siddur\images\creative commons logos\CC-0-PD.png"
   inkscape:export-xdpi="90"
   inkscape:export-ydpi="90"><title
   id="title3029">Creative Commons Zero Public Domain Declaration iconography</title><metadata
   id="metadata15"><rdf:RDF><cc:Work
       rdf:about=""><dc:format>image/svg+xml</dc:format><dc:type
         rdf:resource="http://purl.org/dc/dcmitype/StillImage" /><dc:title>Creative Commons Zero Public Domain Declaration iconography</dc:title><cc:license
         rdf:resource="http://creativecommons.org/licenses/publicdomain/" /><dc:creator><cc:Agent><dc:title>Aharon Varady</dc:title></cc:Agent></dc:creator><dc:date>2011-10-22</dc:date><dc:publisher><cc:Agent><dc:title>The Open Siddur Project</dc:title></cc:Agent></dc:publisher><dc:source>Wikicommons</dc:source></cc:Work><cc:License
       rdf:about="http://creativecommons.org/licenses/publicdomain/"><cc:permits
         rdf:resource="http://creativecommons.org/ns#Reproduction" /><cc:permits
         rdf:resource="http://creativecommons.org/ns#Distribution" /><cc:permits
         rdf:resource="http://creativecommons.org/ns#DerivativeWorks" /></cc:License></rdf:RDF></metadata><defs
   id="defs13" /><sodipodi:namedview
   pagecolor="#ffffff"
   bordercolor="#666666"
   borderopacity="1"
   objecttolerance="10"
   gridtolerance="10"
   guidetolerance="10"
   inkscape:pageopacity="0"
   inkscape:pageshadow="2"
   inkscape:window-width="962"
   inkscape:window-height="749"
   id="namedview11"
   showgrid="true"
   inkscape:snap-global="false"
   inkscape:zoom="2.5765766"
   inkscape:cx="156.12121"
   inkscape:cy="32.242424"
   inkscape:window-x="58"
   inkscape:window-y="-4"
   inkscape:window-maximized="1"
   inkscape:current-layer="Layer_1"><inkscape:grid
     type="xygrid"
     id="grid3008"
     empspacing="5"
     visible="true"
     enabled="true"
     snapvisiblegridlinesonly="true" /></sodipodi:namedview>

<g
   id="g2993"
   transform="matrix(1.4123236,0,0,1.4123236,2.7781798,6.2294585)">
	<circle
   id="circle2995"
   r="28.836"
   cy="28.500999"
   cx="37.785"
   sodipodi:cx="37.785"
   sodipodi:cy="28.500999"
   sodipodi:rx="28.836"
   sodipodi:ry="28.836"
   style="fill:#ffffff"
   d="M 66.621,28.500999 C 66.621,44.426683 53.710683,57.337 37.785,57.337 21.859317,57.337 8.9489994,44.426683 8.9489994,28.500999 c 0,-15.925683 12.9103176,-28.83599999 28.8360006,-28.83599999 15.925683,0 28.836,12.91031699 28.836,28.83599999 z" />
	<path
   id="path2997"
   d="m 37.441,-3.5 c 8.951,0 16.572,3.125 22.857,9.372 3.008,3.009 5.295,6.448 6.857,10.314 1.561,3.867 2.344,7.971 2.344,12.314 0,4.381 -0.773,8.486 -2.314,12.313 -1.543,3.828 -3.82,7.21 -6.828,10.143 -3.123,3.085 -6.666,5.448 -10.629,7.086 -3.961,1.638 -8.057,2.457 -12.285,2.457 -4.228,0 -8.276,-0.808 -12.143,-2.429 C 21.434,56.452 17.967,54.109 14.9,51.043 11.833,47.977 9.5,44.519 7.9,40.671 6.3,36.823 5.5,32.767 5.5,28.5 5.5,24.271 6.309,20.205 7.928,16.3 9.547,12.395 11.9,8.9 14.985,5.814 21.08,-0.394 28.565,-3.5 37.441,-3.5 z m 0.116,5.772 c -7.314,0 -13.467,2.553 -18.458,7.657 -2.515,2.553 -4.448,5.419 -5.8,8.6 -1.354,3.181 -2.029,6.505 -2.029,9.972 0,3.429 0.675,6.734 2.029,9.913 1.353,3.183 3.285,6.021 5.8,8.516 2.514,2.496 5.351,4.399 8.515,5.715 3.161,1.314 6.476,1.971 9.943,1.971 3.428,0 6.75,-0.665 9.973,-1.999 3.219,-1.335 6.121,-3.257 8.713,-5.771 4.99,-4.876 7.484,-10.99 7.484,-18.344 0,-3.543 -0.648,-6.895 -1.943,-10.057 C 60.491,15.283 58.604,12.465 56.13,9.987 50.984,4.844 44.795,2.272 37.557,2.272 z m -0.401,20.915 -4.287,2.229 c -0.458,-0.951 -1.019,-1.619 -1.685,-2 -0.667,-0.38 -1.286,-0.571 -1.858,-0.571 -2.856,0 -4.286,1.885 -4.286,5.657 0,1.714 0.362,3.084 1.085,4.113 0.724,1.029 1.791,1.544 3.201,1.544 1.867,0 3.181,-0.915 3.944,-2.743 l 3.942,2 c -0.838,1.563 -2,2.791 -3.486,3.686 -1.484,0.896 -3.123,1.343 -4.914,1.343 -2.857,0 -5.163,-0.875 -6.915,-2.629 -1.752,-1.752 -2.628,-4.19 -2.628,-7.313 0,-3.048 0.886,-5.466 2.657,-7.257 1.771,-1.79 4.009,-2.686 6.715,-2.686 3.963,-0.002 6.8,1.541 8.515,4.627 z m 18.457,0 -4.229,2.229 c -0.457,-0.951 -1.02,-1.619 -1.686,-2 -0.668,-0.38 -1.307,-0.571 -1.914,-0.571 -2.857,0 -4.287,1.885 -4.287,5.657 0,1.714 0.363,3.084 1.086,4.113 0.723,1.029 1.789,1.544 3.201,1.544 1.865,0 3.18,-0.915 3.941,-2.743 l 4,2 c -0.875,1.563 -2.057,2.791 -3.541,3.686 -1.486,0.896 -3.105,1.343 -4.857,1.343 -2.896,0 -5.209,-0.875 -6.941,-2.629 -1.736,-1.752 -2.602,-4.19 -2.602,-7.313 0,-3.048 0.885,-5.466 2.658,-7.257 1.77,-1.79 4.008,-2.686 6.713,-2.686 3.962,-0.002 6.783,1.541 8.458,4.627 z"
   inkscape:connector-curvature="0" />
</g><g
   id="g3042"
   transform="matrix(1.4123689,0,0,1.4123689,110.50351,1.2377622)"><path
     id="path3032"
     d="M 32,13.58 C 21.436,13.58 18.78,23.55 18.78,32 18.778,40.452 21.44,50.42 32,50.42 42.565,50.42 45.22,40.45 45.22,32 45.22,23.55 42.565,13.58 32,13.58 z m 0,6.95 c 0.43,0 0.82,0.06 1.19,0.15 0.76,0.66 1.13,1.564 0.4,2.83 L 26.556,36.436 C 26.34,34.8 26.31,33.196 26.31,32 26.31,28.277 26.567,20.526 32,20.526 z m 5.267,5.957 C 37.7,28.47 37.7,30.543 37.7,32 c 0,3.72 -0.26,11.475 -5.7,11.475 -0.425,0 -0.82,-0.045 -1.185,-0.135 C 30.74,43.318 30.68,43.3 30.61,43.27 30.5,43.24 30.38,43.2 30.277,43.16 29.067,42.647 28.305,41.716 29.4,40.07 l 7.867,-13.58 z"
     style="fill:#000000"
     inkscape:connector-curvature="0" /><path
     id="path3034"
     d="M 31.933,0 C 23.06,0 15.574,3.09 9.48,9.3 6.39,12.39 4.036,15.9 2.4,19.83 0.8,23.72 0,27.77 0,32 c 0,4.27 0.8,8.32 2.4,12.17 1.6,3.85 3.92,7.31 6.97,10.4 3.08,3.04 6.545,5.39 10.39,7.03 3.89,1.6 7.94,2.4 12.17,2.4 4.23,0 8.34,-0.83 12.31,-2.46 3.96,-1.64 7.49,-4 10.62,-7.09 3.01,-2.93 5.29,-6.293 6.81,-10.1 C 63.23,40.5 64,36.38 64,32 64,27.66 63.23,23.55 61.67,19.7 60.108,15.812 57.82,12.377 54.81,9.367 48.525,3.12 40.89,0 31.93,0 z m 0.134,5.76 c 7.238,0 13.413,2.57 18.553,7.71 2.48,2.48 4.38,5.308 5.671,8.47 1.299,3.16 1.949,6.54 1.949,10.06 0,7.35 -2.515,13.45 -7.51,18.33 -2.59,2.52 -5.5,4.448 -8.73,5.78 -3.21,1.34 -6.5,1.996 -9.933,1.996 C 29,58.106 25.279,57.453 22.118,56.16 18.96,54.824 16.117,52.92 13.6,50.44 11.087,47.93 9.15,45.09 7.776,41.93 6.44,38.73 5.76,35.43 5.76,32 c 0,-3.47 0.68,-6.79 2.02,-9.95 1.37,-3.2 3.31,-6.075 5.82,-8.63 4.99,-5.03 11.15,-7.66 18.467,-7.66 z"
     style="fill:#000000"
     inkscape:connector-curvature="0" /></g><path
   id="pPD"
   d="m 255.55787,1.6258742 c 12.64261,0 23.31653,4.3534228 32.02336,13.0586308 8.70522,8.705207 13.05864,19.352914 13.05864,31.943117 0,12.590204 -4.28628,23.116709 -12.85883,31.581152 -9.05406,8.94761 -19.79512,13.420597 -32.22317,13.420597 -12.21514,0 -22.75638,-4.420575 -31.62211,-13.260088 -8.86735,-8.839513 -13.29938,-19.418427 -13.29938,-31.741661 0,-12.321594 4.42058,-22.982404 13.26009,-31.982425 8.67899,-8.680641 19.23171,-13.0193228 31.6614,-13.0193228 z m 0.12121,8.1172171 c -10.20549,0 -18.84517,3.5901817 -25.9158,10.7689067 -7.34087,7.447336 -11.00967,16.152542 -11.00967,26.117263 0,9.964718 3.64259,18.59131 10.92779,25.874858 7.28518,7.286824 15.96419,10.929416 26.03699,10.929416 10.07118,0 18.80423,-3.668799 26.19754,-11.009672 7.07225,-6.857706 10.6084,-15.456451 10.6084,-25.796241 0,-10.28574 -3.59019,-18.990947 -10.76893,-26.117261 C 274.57505,13.331635 265.88458,9.7430913 255.6791,9.7430913 z m -21.17584,49.0996657 0,-24.911798 12.37565,0 c 6.10758,0 9.16053,2.812197 9.16053,8.438237 0,0.964697 -0.14904,1.888447 -0.44223,2.77289 -0.29479,0.884442 -0.80418,1.767247 -1.52646,2.65169 -0.72229,0.884443 -1.80821,1.606737 -3.25443,2.170162 -1.44623,0.561782 -3.16108,0.843494 -5.14288,0.843494 l -4.90209,0 0,8.035325 -6.26809,0 0,0 z m 6.18784,-20.252096 0,7.553793 5.30336,0 c 1.28573,0 2.25043,-0.361965 2.89411,-1.085897 0.64367,-0.722296 0.96469,-1.619842 0.96469,-2.692637 0,-2.517386 -1.33978,-3.776898 -4.0193,-3.776898 l -5.14286,0 0,0.0017 z m 17.03699,20.252096 0,-24.911798 9.64368,0 c 3.96362,0 7.07063,1.018747 9.32104,3.054602 2.25043,2.035856 3.37561,5.170714 3.37561,9.401297 0,4.232222 -1.12518,7.367078 -3.37561,9.402936 -2.25041,2.035854 -5.35742,3.052963 -9.32104,3.052963 l -9.64368,0 0,0 z m 6.18781,-19.688674 0,14.46555 3.61639,0 c 2.19636,0 3.78835,-0.655143 4.78089,-1.968705 0.9909,-1.311923 1.48719,-3.066067 1.48719,-5.26407 0,-2.196365 -0.49629,-3.950509 -1.48719,-5.262432 -0.99089,-1.311925 -2.61075,-1.968706 -4.86115,-1.968706 l -3.53613,0 0,-0.0017 z"
   inkscape:connector-curvature="0" /><path
   style="fill:#ffffff"
   d="m 143.83242,86.044775 c -7.52486,-1.430079 -13.68073,-4.669087 -19.19176,-10.098038 -5.46337,-5.38201 -8.69303,-10.967809 -10.24704,-17.722575 -1.09476,-4.758585 -1.30826,-7.971517 -0.81321,-12.237728 1.7252,-14.867227 13.02771,-28.107503 27.08704,-31.730992 5.85859,-1.509923 13.87789,-1.433317 19.85663,0.189685 11.49503,3.120462 21.43947,13.032851 25.10001,25.019092 0.9902,3.24236 1.06809,3.994302 1.08556,10.479021 0.0205,7.615939 -0.29389,9.444408 -2.52819,14.703518 -2.46887,5.81125 -7.50849,11.697304 -13.31528,15.551663 -3.69602,2.453294 -6.57552,3.782379 -11.09672,5.121881 -4.18235,1.239117 -11.48284,1.570984 -15.93704,0.724473 z M 154.6392,75.554542 c 3.39488,-0.800396 5.35529,-1.894623 7.70349,-4.299799 4.95085,-5.070957 7.51736,-15.425514 6.40513,-25.841343 -1.34993,-12.641753 -6.22161,-19.652737 -14.78437,-21.276631 -8.37238,-1.587789 -15.87473,2.074686 -19.40586,9.473497 -2.21498,4.641084 -2.89834,8.492023 -2.89834,16.332974 0,7.840951 0.68336,11.69189 2.89834,16.332975 3.63545,7.617386 11.5724,11.284504 20.08161,9.278327 l 0,0 z"
   id="path3153"
   inkscape:connector-curvature="0"
   transform="translate(5.5,-3.5)" /><path
   style="fill:#ffffff"
   d="m 242.86926,86.043044 c -7.5384,-1.704544 -12.9702,-4.700019 -18.43839,-10.168209 -5.25413,-5.254135 -8.75872,-11.467538 -10.21672,-18.113582 -0.80883,-3.686927 -0.81911,-11.614265 -0.0197,-15.198549 2.30123,-10.317982 9.3523,-19.718822 18.60451,-24.804479 5.44689,-2.993986 10.56218,-4.213734 17.59463,-4.195464 10.59333,0.02752 18.19762,3.247647 25.80944,10.929308 7.43666,7.504901 10.47902,14.935776 10.47902,25.594723 0,6.999515 -1.22907,12.22179 -4.10991,17.462826 -4.61618,8.398124 -12.79004,14.945901 -22.1698,17.759406 -2.87836,0.863378 -4.3197,1.044289 -9.23253,1.158817 -4.11092,0.09584 -6.55012,-0.02899 -8.30055,-0.424797 l 0,0 z m -7.41798,-27.527002 0,-4.040839 4.1722,-0.131364 c 3.5382,-0.111408 4.50703,-0.288324 6.37557,-1.164254 2.97348,-1.393904 4.30504,-3.378867 4.51882,-6.736204 0.18546,-2.912589 -0.37998,-4.833826 -1.9484,-6.620151 -1.82914,-2.083282 -3.87169,-2.493626 -12.41241,-2.493626 l -7.30368,0 0,12.613636 0,12.613636 3.29895,0 3.29895,0 0,-4.040834 z m 29.704,3.617393 c 4.11611,-0.760905 6.93528,-2.809538 8.49081,-6.170106 0.66661,-1.440136 0.81044,-2.508511 0.81044,-6.020089 0,-3.891258 -0.0963,-4.465361 -1.08787,-6.48454 -1.33516,-2.718918 -3.39707,-4.423195 -6.53171,-5.398804 -1.88304,-0.586067 -3.56597,-0.730292 -8.52164,-0.730292 l -6.17522,0 0,12.613636 0,12.613636 5.36229,0 c 2.94926,0 6.39306,-0.190547 7.6529,-0.423441 l 0,0 z"
   id="path3155"
   inkscape:connector-curvature="0"
   transform="translate(5.5,-3.5)" /><path
   style="fill:#ffffff"
   d="m 235.45128,45.868065 0,-3.493007 3.24661,0 c 4.18098,0 5.29185,0.702135 5.29185,3.344762 0,1.325652 -0.22517,1.961146 -0.95263,2.688614 -0.86281,0.862804 -1.2654,0.952638 -4.26924,0.952638 l -3.31659,0 0,-3.493007 z"
   id="path3157"
   inkscape:connector-curvature="0"
   transform="translate(5.5,-3.5)" /><path
   style="fill:#ffffff"
   d="m 258.738,49.999531 0,-7.236361 2.42569,6.03e-4 c 3.23186,8.04e-4 4.88679,0.850729 6.01574,3.089501 1.75937,3.488938 0.7842,8.940904 -1.84215,10.29904 -0.67317,0.348111 -2.4334,0.734324 -3.91162,0.858253 l -2.68766,0.225324 0,-7.23636 z"
   id="path3159"
   inkscape:connector-curvature="0"
   transform="translate(5.5,-3.5)" /><path
   style="fill:#ffffff"
   d="m 142.5481,54.589932 c -0.38067,-0.992007 -0.28034,-8.253014 0.15268,-11.050538 0.48374,-3.125118 1.3852,-5.638863 2.59742,-7.242974 0.95316,-1.261305 3.33284,-2.459823 4.88402,-2.459823 1.3293,0 2.60123,1.071726 2.60123,2.191785 0,0.540889 -1.95406,4.591606 -4.34236,9.001594 -5.68966,10.505966 -5.59124,10.346301 -5.89299,9.559956 z"
   id="path3161"
   inkscape:connector-curvature="0"
   transform="translate(5.5,-3.5)" /><path
   style="fill:#ffffff"
   d="m 147.738,65.370085 c -1.03768,-0.518379 -1.38546,-0.95424 -1.47301,-1.846106 -0.11179,-1.138602 0.52591,-2.338059 9.43835,-17.752942 0.83307,-1.440865 1.63358,-2.619755 1.77892,-2.619755 0.51651,0 0.77135,6.855513 0.40396,10.867133 -0.58984,6.440587 -2.09113,9.866153 -4.93422,11.258626 -1.94272,0.951496 -3.44202,0.97825 -5.214,0.09304 z"
   id="path3163"
   inkscape:connector-curvature="0"
   transform="translate(5.5,-3.5)" /></svg>